<svg width="32" height="32" viewBox="0 0 32 32" fill="none" xmlns="http://www.w3.org/2000/svg">
<path fill-rule="evenodd" clip-rule="evenodd" d="M14.2613 10.9024C12.4511 10.9014 10.6393 10.9004 8.83067 10.9086C8.57364 10.9086 8.48614 10.8594 8.49708 10.5805C8.56271 9.38827 8.95099 8.30546 9.61271 7.32108C10.269 6.34218 11.1221 5.58202 12.1557 5.01874C12.3307 4.9203 12.3416 4.84374 12.2486 4.68515C12.0052 4.25329 11.7675 3.81861 11.5292 3.38313L11.5291 3.38286C11.4355 3.21183 11.3419 3.04067 11.2479 2.86952C11.1658 2.7164 11.0838 2.5578 11.2861 2.44843C11.4721 2.34999 11.5596 2.49218 11.6416 2.63983C11.8029 2.9406 11.967 3.23867 12.1311 3.53671C12.2951 3.83476 12.4592 4.1328 12.6205 4.43358C12.7244 4.63593 12.8283 4.68515 13.058 4.59218C14.8299 3.88124 16.6346 3.83202 18.4611 4.35702C18.6854 4.42265 18.9096 4.50468 19.1229 4.60311C19.3143 4.69061 19.4236 4.66327 19.5275 4.46093C19.8229 3.87577 20.1401 3.30702 20.4682 2.73827C20.4822 2.71294 20.4958 2.68375 20.51 2.6534C20.5782 2.50684 20.659 2.33328 20.8674 2.43749C21.1005 2.55406 20.9929 2.73965 20.9007 2.89848L20.9003 2.89918C20.8889 2.91894 20.8777 2.93828 20.8674 2.95702C20.5611 3.53671 20.2494 4.11093 19.9158 4.67421C19.8119 4.85468 19.8338 4.92577 20.0143 5.02421C21.3486 5.77343 22.3877 6.81249 23.0494 8.20702C23.4104 8.96171 23.6072 9.76015 23.6619 10.5969C23.6783 10.843 23.6127 10.9031 23.3666 10.9031C21.7438 10.8995 20.121 10.9007 18.4998 10.9019L18.4986 10.9019C17.689 10.9025 16.8799 10.9031 16.0713 10.9031C15.4697 10.9031 14.8678 10.9028 14.2657 10.9024H14.2613ZM19.5985 6.96859C19.5771 6.96662 19.5552 6.96561 19.533 6.96561C19.533 6.96561 19.533 6.96561 19.533 6.96561C19.183 6.96561 18.9041 7.24452 18.9041 7.58358C18.899 7.90148 19.1775 8.19533 19.4872 8.22177C19.5078 8.22353 19.5286 8.22411 19.5494 8.22343M19.5985 6.96859C19.9207 6.99809 20.1561 7.2445 20.1564 7.57742C20.1564 7.57765 20.1565 7.57788 20.1565 7.57811C20.1619 7.92811 19.8939 8.21249 19.5494 8.22343M13.2071 7.81128C13.1124 8.0476 12.8721 8.22889 12.615 8.22889C12.2814 8.22342 11.9971 7.92811 11.9971 7.58905C11.9971 7.58149 11.9972 7.57397 11.9974 7.56649C12.0083 7.22253 12.2671 6.97097 12.615 6.96561C12.9847 6.96018 13.2516 7.22485 13.2495 7.59319C13.2495 7.59726 13.2495 7.60135 13.2494 7.60545C13.2494 7.60634 13.2494 7.60723 13.2494 7.60811C13.2483 7.6783 13.2332 7.74689 13.2071 7.81128Z" fill="#A4C639"/>
<path d="M17.8853 11.5655C19.6832 11.5665 21.4827 11.5676 23.2791 11.5594C23.5307 11.5594 23.6182 11.6031 23.6182 11.882C23.6072 15.3984 23.5963 18.9203 23.6182 22.4367C23.6236 23.5086 22.7596 24.3562 21.7205 24.3125C21.5817 24.3074 21.4429 24.3094 21.3042 24.3113H21.304C21.1421 24.3136 20.9801 24.3159 20.8182 24.307C20.6377 24.2961 20.5885 24.3617 20.5939 24.5367C20.5994 25.6961 20.5994 26.85 20.5939 28.0094C20.5939 28.8078 20.0471 29.5133 19.3197 29.6773C18.4994 29.8633 17.7502 29.5078 17.3893 28.7531C17.2799 28.5234 17.2143 28.2773 17.2143 28.0148C17.2166 27.5226 17.2159 27.0304 17.2153 26.5383C17.2144 25.882 17.2135 25.2258 17.2197 24.5695C17.2197 24.3508 17.1541 24.2961 16.9463 24.3016C16.3611 24.318 15.7814 24.318 15.1963 24.3016C14.9721 24.2961 14.9283 24.3726 14.9283 24.5805C14.9365 25.4336 14.9355 26.2897 14.9345 27.1444V27.148C14.9341 27.4317 14.9338 27.7153 14.9338 27.9984C14.9338 28.8242 14.458 29.4641 13.7033 29.6664C12.9432 29.8742 12.1885 29.5516 11.7783 28.8351C11.6361 28.5836 11.5814 28.3101 11.5814 28.0203V24.657C11.5814 24.6052 11.5824 24.5611 11.5832 24.5235C11.5856 24.415 11.5868 24.3609 11.5603 24.3337C11.5339 24.3065 11.4802 24.306 11.373 24.3049H11.3729C11.3296 24.3045 11.2775 24.304 11.215 24.3016C11.0801 24.2971 10.9448 24.3003 10.8095 24.3035H10.809C10.4454 24.3121 10.0821 24.3207 9.72754 24.1812C9.03848 23.9023 8.65566 23.3937 8.56816 22.6609C8.55994 22.5869 8.56099 22.5098 8.56202 22.4343C8.56236 22.4093 8.5627 22.3846 8.5627 22.3601V11.9148C8.5627 11.7362 8.5627 11.6459 8.60781 11.6004C8.65382 11.5539 8.74678 11.5539 8.93457 11.5539C11.308 11.5648 13.6979 11.5648 16.0877 11.5648C16.6852 11.5648 17.283 11.5652 17.8809 11.5655H17.8853Z" fill="#A4C639"/>
<path d="M27.6486 16.4758C27.6486 16.8118 27.6495 17.1479 27.6504 17.4838C27.6527 18.3232 27.6549 19.1618 27.6432 19.9976C27.6268 21.1187 26.6041 21.8953 25.5213 21.6219C24.8158 21.4469 24.2689 20.7742 24.2635 20.0195C24.2525 17.6406 24.2525 15.2672 24.2635 12.8883C24.2689 11.975 25.0619 11.2367 25.9697 11.2422C26.8721 11.2476 27.6322 12.0023 27.6377 12.9211C27.6508 13.8703 27.6499 14.8161 27.6491 15.7639C27.6489 16.001 27.6486 16.2383 27.6486 16.4758Z" fill="#A4C639"/>
<path d="M7.86938 17.6453C7.8706 18.4164 7.87181 19.1867 7.86816 19.9594C7.8627 20.9547 7.14629 21.6766 6.17285 21.6711C5.24863 21.6711 4.52129 20.9273 4.51582 19.9594C4.51035 17.6187 4.51035 15.2781 4.51582 12.932C4.51582 11.9969 5.27598 11.2367 6.19473 11.2422C7.12441 11.2422 7.8627 11.9914 7.86816 12.932C7.87181 13.7236 7.87059 14.5151 7.86938 15.3051C7.86877 15.6994 7.86816 16.0934 7.86816 16.4867C7.86816 16.873 7.86877 17.2586 7.86938 17.6441V17.6453Z" fill="#A4C639"/>
</svg>
