<svg width="24" height="24" viewBox="0 0 24 24" fill="none" xmlns="http://www.w3.org/2000/svg">
    <path d="M8.33333 14.173V22.5928L1 18.3829V9.96313L8.33333 14.173Z" fill="#228700"/>
    <path d="M8.3335 14.173V22.5927L23.0002 14.0372V5.61743L8.3335 14.173Z" fill="#124700"/>
    <path d="M8.33333 15.1021L8.33277 15.1024L1 10.8928V11.206L8.33333 15.4159V15.1021Z" fill="#33C600"/>
    <path d="M8.33333 16.1885L8.33277 16.1888L1 11.9792V12.2924L8.33333 16.5023V16.1885Z" fill="#33C600"/>
    <path d="M8.33333 17.2749L8.33277 17.2752L1 13.0657V13.3788L8.33333 17.5887V17.2749Z" fill="#33C600"/>
    <path d="M8.33333 18.3613L8.33277 18.3616L1 14.1521V14.4653L8.33333 18.6751V18.3613Z" fill="#33C600"/>
    <path d="M8.33333 19.4477L8.33277 19.4481L1 15.2385V15.5517L8.33333 19.7616V19.4477Z" fill="#33C600"/>
    <path d="M8.33333 20.5341L8.33277 20.5345L1 16.3249V16.6381L8.33333 20.848V20.5341Z" fill="#33C600"/>
    <path d="M8.33333 21.6206L8.33277 21.6209L1 17.4113V17.7245L8.33333 21.9344V21.6206Z" fill="#33C600"/>
    <path d="M8.3335 21.9345L8.33402 21.9348L23.0002 13.3796V13.0651L8.3335 21.6207V21.9345Z" fill="#228700"/>
    <path d="M8.3335 20.8481L8.33402 20.8484L23.0002 12.2932V11.9787L8.3335 20.5343V20.8481Z" fill="#228700"/>
    <path d="M8.3335 19.7617L8.33402 19.762L23.0002 11.2067V10.8923L8.3335 19.4479V19.7617Z" fill="#228700"/>
    <path d="M8.3335 18.6753L8.33402 18.6756L23.0002 10.1203V9.80589L8.3335 18.3614V18.6753Z" fill="#228700"/>
    <path d="M8.3335 17.5889L8.33402 17.5892L23.0002 9.03391V8.71947L8.3335 17.275V17.5889Z" fill="#228700"/>
    <path d="M8.3335 16.5024L8.33402 16.5027L23.0002 7.94749V7.63305L8.3335 16.1886V16.5024Z" fill="#228700"/>
    <path d="M8.3335 15.416L8.33402 15.4163L23.0002 6.86107V6.54663L8.3335 15.1022V15.416Z" fill="#228700"/>
    <path d="M23 5.61735L8.33333 14.1729L1 9.96303L15.6667 1.40747L23 5.61735Z" fill="#33C600"/>
    <path fill-rule="evenodd" clip-rule="evenodd" d="M8.47183 12.3228L20.142 5.61866L15.5332 2.98504L3.97989 9.69339L8.47183 12.3228ZM8.46927 12.9507L21.2347 5.61741L15.531 2.35815L2.90137 9.69149L8.46927 12.9507Z" fill="white"/>
    <ellipse cx="12.1359" cy="7.51867" rx="2.44444" ry="1.35802" fill="white"/>
    <ellipse cx="15.9385" cy="5.4815" rx="1.08642" ry="0.679012" fill="white"/>
    <ellipse cx="8.33349" cy="9.82721" rx="1.08642" ry="0.679012" fill="white"/>
</svg>
