<svg width="72" height="16" viewBox="0 0 72 16" fill="none" xmlns="http://www.w3.org/2000/svg">
<path fill-rule="evenodd" clip-rule="evenodd" d="M6.06386 15.7605C10.3509 16.829 14.6922 14.2216 15.7608 9.9351H15.7605C16.8292 5.64939 14.2209 1.30791 9.93433 0.239413C5.64885 -0.829081 1.30783 1.77914 0.239637 6.06562C-0.829466 10.3511 1.77906 14.692 6.06386 15.7605ZM9.78242 4.07492C11.0018 4.51918 11.8936 5.18513 11.7184 6.42392C11.5916 7.33076 11.1162 7.76977 10.4852 7.92368C11.3517 8.40081 11.7927 9.1325 11.3726 10.401C10.8514 11.9764 9.61298 12.1093 7.96613 11.7797L7.56645 13.4738L6.60067 13.2192L6.99512 11.5478C6.74481 11.4821 6.48899 11.4122 6.22547 11.3366L5.82964 13.0159L4.86497 12.7613L5.26464 11.064C5.17449 11.0396 5.08378 11.0146 4.99242 10.9894C4.85518 10.9515 4.71651 10.9133 4.57614 10.8761L3.31934 10.5447L3.79879 9.37543C3.79879 9.37543 4.5104 9.57559 4.50077 9.56075C4.77419 9.63232 4.8955 9.4438 4.94336 9.31812L5.57493 6.64008C5.59861 6.64609 5.62179 6.65224 5.64416 6.65817C5.65532 6.66113 5.66627 6.66404 5.67698 6.66684C5.63847 6.65055 5.60353 6.64008 5.57657 6.6328L6.02714 4.72108C6.03897 4.50404 5.96828 4.23028 5.57713 4.127C5.59226 4.11623 4.8757 3.94254 4.8757 3.94254L5.13261 2.85155L6.46451 3.20329L6.46341 3.20853C6.66366 3.26119 6.86996 3.31122 7.08012 3.36184L7.47594 1.68433L8.44117 1.93889L8.05332 3.58354C8.31244 3.64609 8.57321 3.70922 8.8271 3.77613L9.2122 2.14226L10.178 2.39682L9.78242 4.07492ZM6.72761 10.1591C7.51565 10.3792 9.23794 10.8604 9.51175 9.69662C9.79233 8.50671 8.12199 8.11029 7.30694 7.91686C7.21586 7.89524 7.13547 7.87616 7.06967 7.85879L6.53933 10.1074C6.59337 10.1216 6.65671 10.1393 6.72761 10.1591ZM7.4707 6.87334C8.12772 7.05879 9.56084 7.4633 9.81048 6.40558C10.0654 5.3237 8.67252 4.99757 7.99226 4.83829C7.91574 4.82038 7.84823 4.80457 7.79311 4.79004L7.31228 6.82947C7.35769 6.84145 7.41099 6.85649 7.4707 6.87334Z" fill="white"/>
<path d="M24.4958 4.91001C25.0701 4.91001 25.5663 5.00967 25.983 5.20539C26.4022 5.40301 26.7478 5.6692 27.0252 6.00395C27.2987 6.34048 27.5023 6.73382 27.6338 7.18456C27.7643 7.6368 27.8298 8.12248 27.8298 8.64245C27.8298 9.44193 27.6787 10.1964 27.3735 10.908C27.0681 11.6207 26.6543 12.239 26.1275 12.7663C25.6012 13.2929 24.9798 13.7079 24.2632 14.0146C23.5478 14.3215 22.7698 14.4749 21.9346 14.4749C21.8266 14.4749 21.6367 14.4719 21.3685 14.4666C21.1003 14.4612 20.792 14.4345 20.4468 14.3895C20.0757 14.3381 19.7076 14.2682 19.344 14.1798C18.9635 14.0908 18.5938 13.9629 18.2412 13.7983L21.3422 1.17862L24.1196 0.761963L23.0093 5.24007C23.2402 5.13904 23.4798 5.0578 23.7254 4.99746C23.9775 4.93809 24.2362 4.90877 24.4956 4.91001H24.4958ZM22.1661 12.3411C22.5844 12.3411 22.9783 12.2413 23.3488 12.0459C23.7211 11.8487 24.0479 11.5799 24.309 11.2559C24.5819 10.918 24.7966 10.5397 24.9448 10.1355C25.1003 9.71772 25.1793 9.27684 25.1781 8.83276C25.1781 8.2772 25.0823 7.84467 24.8913 7.53114C24.7003 7.21924 24.3469 7.06237 23.8335 7.06237C23.6652 7.06237 23.4488 7.09346 23.1802 7.14897C22.9106 7.20787 22.6694 7.33026 22.4531 7.51442L21.2707 12.2701C21.342 12.2823 21.405 12.2938 21.4588 12.3048C21.5115 12.3166 21.5695 12.3249 21.6277 12.3307C21.689 12.3374 21.7591 12.3408 21.8439 12.3408L22.1659 12.3411H22.1661ZM30.7102 14.2336H28.0573L30.2976 5.10358H32.9686L30.7102 14.2336ZM32.001 3.99115C31.6391 3.99403 31.2863 3.88137 30.9972 3.6705C30.6969 3.45786 30.5479 3.13062 30.5479 2.68947C30.5479 2.44686 30.5988 2.2192 30.7 2.00448C30.7977 1.79641 30.9348 1.60794 31.1041 1.44872C31.2737 1.29186 31.4708 1.16536 31.6861 1.07511C31.9102 0.982371 32.1515 0.93522 32.3952 0.936657C32.7652 0.936657 33.099 1.04337 33.3982 1.25731C33.696 1.4723 33.8458 1.79955 33.8458 2.23834C33.8473 2.47514 33.7952 2.70939 33.6931 2.92464C33.5964 3.13284 33.4597 3.32144 33.2904 3.4804C33.1211 3.63746 32.9239 3.76363 32.7084 3.8529C32.4866 3.94681 32.2516 3.99115 32.001 3.99115ZM35.2935 2.82884L38.0719 2.41192L37.3897 5.10312H40.3653L39.828 7.22035H36.8703L36.0824 10.4139C36.0098 10.6799 35.9686 10.9286 35.9572 11.1598C35.9439 11.392 35.9744 11.5913 36.0461 11.7591C36.1174 11.9274 36.2453 12.057 36.4312 12.1485C36.6164 12.2418 36.8813 12.2888 37.2288 12.2888C37.5149 12.2888 37.794 12.2624 38.0631 12.2101C38.3396 12.157 38.6118 12.0847 38.8775 11.9936L39.0758 13.973C38.6951 14.1065 38.306 14.2164 37.9109 14.302C37.4919 14.3955 36.996 14.4403 36.4228 14.4403C35.5986 14.4403 34.9597 14.3217 34.5045 14.0859C34.0499 13.8485 33.7286 13.5235 33.5362 13.1124C33.3466 12.7031 33.2618 12.2309 33.2855 11.6986C33.3099 11.1654 33.393 10.6047 33.5362 10.0146L35.2935 2.82884ZM40.2488 10.588C40.2488 9.80138 40.3802 9.05995 40.6427 8.36555C40.9049 7.67063 41.2827 7.06302 41.7727 6.54175C42.2611 6.02302 42.8562 5.61173 43.5569 5.30995C44.2536 5.00986 45.0343 4.85855 45.8943 4.85855C46.433 4.85855 46.9139 4.90786 47.3372 5.00667C47.7622 5.10632 48.1464 5.23517 48.494 5.39674L47.5793 7.4115C47.3356 7.31661 47.0873 7.23262 46.8355 7.15987C46.5788 7.0834 46.2656 7.0465 45.8949 7.0465C45.0093 7.0465 44.3095 7.34227 43.7885 7.93127C43.2694 8.52092 43.008 9.31458 43.008 10.3104C43.008 10.9005 43.1397 11.3774 43.4035 11.7424C43.6659 12.1074 44.1509 12.2891 44.8548 12.2891C45.2021 12.2891 45.5375 12.254 45.8587 12.1854C46.1822 12.116 46.4679 12.0285 46.7196 11.9252L46.9179 13.9906C46.5549 14.1254 46.1838 14.2388 45.8066 14.3301C45.3995 14.4265 44.9155 14.4762 44.354 14.4762C43.6131 14.4762 42.9854 14.3714 42.4724 14.1644C41.959 13.9546 41.5348 13.6757 41.2004 13.3225C40.8645 12.9684 40.6234 12.5547 40.4742 12.0804C40.3251 11.606 40.2486 11.1073 40.2486 10.588H40.2488ZM52.0334 14.4756C51.4002 14.4756 50.8501 14.3821 50.3835 14.1972C49.9184 14.0124 49.5333 13.7527 49.2284 13.4161C48.9229 13.0814 48.6948 12.6846 48.5383 12.2274C48.3818 11.7705 48.3066 11.2644 48.3066 10.7099C48.3066 10.0146 48.4217 9.31935 48.6549 8.62554C48.8871 7.93107 49.2312 7.30649 49.6862 6.75158C50.1383 6.19582 50.696 5.74142 51.352 5.38714C52.0077 5.0352 52.7617 4.85816 53.6091 4.85816C54.2308 4.85816 54.7776 4.95181 55.2508 5.13675C55.7215 5.32131 56.1092 5.58299 56.4157 5.91782C56.7189 6.25434 56.9496 6.64937 57.104 7.10737C57.2602 7.56327 57.3373 8.07063 57.3373 8.62554C57.3373 9.3187 57.2235 10.0144 56.998 10.7097C56.7721 11.402 56.4367 12.0279 55.9941 12.5839C55.5524 13.139 55.0003 13.593 54.3366 13.9458C53.6742 14.2987 52.9056 14.4756 52.0334 14.4756ZM53.3591 7.0467C52.9658 7.0467 52.6181 7.15713 52.3204 7.37551C52.0217 7.59651 51.7709 7.87452 51.5687 8.20928C51.3642 8.5458 51.2128 8.91276 51.1104 9.31158C51.0085 9.71132 50.9587 10.0896 50.9587 10.4482C50.9587 11.0276 51.0555 11.4792 51.2449 11.8037C51.437 12.1265 51.7827 12.2891 52.2846 12.2891C52.6792 12.2891 53.0253 12.1792 53.3245 11.9586C53.6215 11.7394 53.8729 11.4614 54.0765 11.1255C54.2797 10.7912 54.4326 10.423 54.535 10.0232C54.6353 9.62472 54.6865 9.24471 54.6865 8.88637C54.6865 8.30854 54.5904 7.8563 54.3987 7.53199C54.2079 7.20898 53.8607 7.0465 53.3591 7.0465V7.0467ZM60.2282 14.2336H57.5734L59.8137 5.10358H62.4857L60.2282 14.2336ZM61.5169 3.99115C61.1555 3.99409 60.8031 3.88137 60.5144 3.6705C60.2152 3.45786 60.0651 3.13062 60.0651 2.68947C60.0651 2.44686 60.1169 2.2192 60.2178 2.00448C60.3149 1.79615 60.4519 1.60761 60.6215 1.44872C60.7914 1.29179 60.9887 1.16529 61.2042 1.07511C61.4274 0.982371 61.6681 0.93522 61.9105 0.936657C62.2818 0.936657 62.6167 1.04337 62.9151 1.25731C63.2141 1.4723 63.3647 1.79955 63.3647 2.23834C63.3647 2.4818 63.3107 2.71031 63.2108 2.92464C63.1102 3.13897 62.9758 3.32346 62.8084 3.4804C62.639 3.63706 62.4418 3.76324 62.2265 3.8529C62.0044 3.94681 61.7694 3.99115 61.5169 3.99115ZM64.3976 5.51873C64.5988 5.46172 64.8236 5.39315 65.068 5.3185C65.3401 5.23687 65.6155 5.16797 65.8943 5.11194C66.1974 5.04761 66.539 4.99511 66.9151 4.95462C67.2911 4.91321 67.7198 4.8931 68.1958 4.8931C69.5946 4.8931 70.5593 5.28768 71.0913 6.07449C71.6233 6.86129 71.7158 7.93793 71.3701 9.30302L70.1502 14.2328H67.4801L68.6629 9.40653C68.7345 9.10541 68.7912 8.81395 68.8331 8.52928C68.8756 8.24722 68.8729 7.9984 68.8236 7.78342C68.7804 7.57731 68.6636 7.39262 68.4935 7.26195C68.318 7.12924 68.054 7.06257 67.6948 7.06257C67.3404 7.06394 66.986 7.09927 66.6383 7.16804L64.8992 14.2321H62.2285L64.3976 5.51873Z" fill="white"/>
</svg>
