<svg width="48" height="16" viewBox="0 0 48 16" fill="none" xmlns="http://www.w3.org/2000/svg">
<path d="M2.30855 3.79322H1.30099C1.30099 3.79322 1.22691 1.15579 3.85692 0.148238C3.85692 0.148238 5.99798 -0.555569 7.34632 1.10393C8.02209 1.86485 8.4802 2.79387 8.67244 3.79322H7.45004C7.45004 3.79322 7.10184 1.39287 5.29417 1.29655C5.29417 1.29655 3.10126 0.800186 2.30855 3.79322Z" fill="white"/>
<path fill-rule="evenodd" clip-rule="evenodd" d="M0.893084 4.48949H8.82017C9.69438 4.48949 9.59807 5.35628 9.59807 5.35628C9.59807 5.35628 9.70919 13.0685 9.59807 13.7353C9.48694 14.4021 8.82017 14.4539 8.82017 14.4539L1.18202 14.4391C0.137418 14.5873 0.00406502 13.7575 0.00406502 13.7575V5.46741C-0.0700199 4.40799 0.893084 4.48949 0.893084 4.48949ZM3.46387 12.0685H6.19019L5.13819 10.0459V9.18656C5.72346 9.16434 5.9309 8.30495 5.9309 8.30495C6.03461 7.08996 4.96038 6.89734 4.96038 6.89734C3.8417 6.71213 3.56018 7.72709 3.56018 7.72709C3.3157 8.74946 4.15286 9.17175 4.15286 9.17175L4.17508 10.0534L3.46387 12.0685Z" fill="#FFFFF9"/>
<path d="M11.1318 6.3269H14.5175C15.1843 6.3269 15.7177 6.41581 16.1326 6.59361C16.5279 6.76853 16.8759 7.0352 17.1475 7.3715C17.4223 7.72205 17.6215 8.12562 17.7328 8.55686C17.8534 9.02131 17.9132 9.49945 17.9106 9.97929C17.9106 10.772 17.8217 11.3795 17.6439 11.8166C17.4764 12.2296 17.221 12.6012 16.8956 12.9056C16.6069 13.1802 16.2562 13.381 15.8733 13.4909C15.4319 13.6159 14.9762 13.6831 14.5175 13.6909H11.1318V6.3269ZM13.4137 7.99382V12.0166H13.9693C14.4434 12.0166 14.7842 11.9648 14.9843 11.861C15.2 11.7341 15.367 11.5385 15.4584 11.3054C15.5695 11.0461 15.6288 10.6164 15.6288 10.0237C15.6288 9.24585 15.4954 8.71244 15.2436 8.42351C14.9917 8.13458 14.5694 7.99382 13.9767 7.99382H13.4137Z" fill="white"/>
<path d="M18.9619 6.3269H21.9549L23.1107 10.809L24.2516 6.3269H27.2446V13.6909H25.3851V8.07531L23.9478 13.6909H22.2587L20.8214 8.07531V13.6909H18.9619V6.3269Z" fill="white"/>
<path d="M44.8622 12.476H42.2766L41.921 13.6909H39.5947L42.3655 6.3269H44.8474L47.6107 13.6909H45.2326L44.8622 12.476ZM44.388 10.8831L43.5731 8.23089L42.773 10.8831H44.388Z" fill="white"/>
<path d="M40.0393 10.0089C40.0388 11.0611 39.7614 12.0947 39.2349 13.0057C38.7083 13.9167 37.9512 14.673 37.0396 15.1986C36.1281 15.7242 35.0942 16.0006 34.042 15.9999C32.9898 15.9992 31.9562 15.7216 31.0454 15.1948C29.6954 14.3868 28.7172 13.0804 28.322 11.5575C27.9269 10.0346 28.1463 8.41745 28.9331 7.05498C29.7198 5.6925 31.0108 4.69402 32.5273 4.27504C34.0438 3.85606 35.6642 4.05018 37.0388 4.8155C37.9485 5.34416 38.7041 6.10165 39.2305 7.01271C39.7568 7.92376 40.0357 8.95668 40.0393 10.0089ZM38.8761 10.0089C38.8761 8.67532 38.4045 7.53441 37.4611 6.58613C36.5178 5.63784 35.3769 5.16616 34.0384 5.1711C33.4027 5.16151 32.7718 5.2821 32.1844 5.52545C31.5971 5.7688 31.0657 6.12976 30.6231 6.58613C29.6748 7.53441 29.2006 8.67532 29.2006 10.0089C29.2065 11.2901 29.7181 12.5172 30.624 13.4232C31.53 14.3292 32.7571 14.8408 34.0384 14.8466C35.3719 14.8466 36.5128 14.3725 37.4611 13.4242C37.9175 12.9815 38.2784 12.4502 38.5218 11.8628C38.7651 11.2755 38.8857 10.6445 38.8761 10.0089ZM35.4386 10.7497L37.0536 11.1275C36.8511 11.7647 36.577 12.2536 36.2313 12.5944C35.6831 13.1204 34.9645 13.3871 34.0828 13.3871C33.2012 13.3871 32.3344 13.076 31.7269 12.4537C31.1194 11.8313 30.8157 11.0164 30.8157 9.99403C30.8157 8.97166 31.1269 8.2234 31.7492 7.59368C32.3715 6.96396 33.1494 6.64539 34.0902 6.64539C34.8459 6.64539 35.483 6.84542 36.0016 7.25289C36.5078 7.63809 36.8578 8.19325 36.987 8.81608L35.4386 9.05315C35.3423 8.62346 35.1719 8.3123 34.92 8.10487C34.6665 7.89485 34.3452 7.78426 34.0162 7.79371C33.6087 7.79371 33.2679 7.97151 32.9864 8.31231C32.7049 8.6531 32.5715 9.20873 32.5715 9.94958C32.5715 10.6904 32.6678 11.2387 32.853 11.5572C33.1346 12.0166 33.5272 12.2462 34.031 12.2462C34.3531 12.2455 34.662 12.1177 34.8904 11.8906C35.1423 11.6535 35.3275 11.2757 35.4386 10.7497Z" fill="white"/>
</svg>
