<svg width="56" height="16" viewBox="0 0 56 16" fill="none" xmlns="http://www.w3.org/2000/svg">
<path fill-rule="evenodd" clip-rule="evenodd" d="M17.0496 10.1038H13.2232C13.2096 10.1635 13.2002 10.2092 13.1949 10.2408C13.1323 10.6132 13.1889 10.9136 13.3649 11.142C13.5409 11.3703 13.783 11.4845 14.0912 11.4845C14.5979 11.4845 15.0366 11.2245 15.4075 10.7046L16.7352 10.9312C16.3779 11.4757 15.9541 11.8841 15.4637 12.1564C14.9733 12.4287 14.4517 12.5648 13.899 12.5648C13.1408 12.5648 12.5643 12.3268 12.1696 11.8508C11.7748 11.3747 11.6433 10.745 11.775 9.96151C11.9037 9.19561 12.2326 8.51405 12.7617 7.91679C13.4821 7.10874 14.3844 6.70472 15.4686 6.70472C16.1595 6.70472 16.673 6.91639 17.0093 7.33974C17.3456 7.76309 17.4497 8.35594 17.3216 9.11832C17.2601 9.4837 17.1695 9.81219 17.0496 10.1038ZM15.9186 9.18156C15.9334 9.11481 15.9437 9.06387 15.9496 9.02873C16.0193 8.61417 15.9777 8.30325 15.8247 8.09597C15.6718 7.88868 15.4376 7.78504 15.1223 7.78504C14.807 7.78504 14.5047 7.90274 14.2153 8.13812C13.926 8.37351 13.6983 8.72132 13.5324 9.18156H15.9186ZM23.3386 9.65058L24.9134 9.893C24.4523 10.7608 23.8678 11.4239 23.1601 11.8824C22.4524 12.3409 21.6751 12.5701 20.8284 12.5701C19.8753 12.5701 19.1782 12.2855 18.7371 11.7164C18.296 11.1472 18.1664 10.3216 18.3483 9.23953C18.4959 8.36121 18.8108 7.55756 19.2929 6.82856C19.7751 6.09955 20.3675 5.54183 21.0702 5.15537C21.7729 4.76891 22.4998 4.57568 23.2509 4.57568C24.0941 4.57568 24.7385 4.79965 25.184 5.24759C25.6296 5.69554 25.8334 6.30596 25.7956 7.07888L24.235 7.22643C24.2255 6.77674 24.1164 6.45088 23.9077 6.24887C23.6989 6.04686 23.3926 5.94585 22.9887 5.94585C22.5458 5.94585 22.1097 6.07936 21.6805 6.34636C21.2512 6.61337 20.8737 7.03057 20.548 7.59796C20.2224 8.16535 20.012 8.73186 19.9169 9.2975C19.813 9.91583 19.8824 10.3936 20.1251 10.7309C20.3678 11.0682 20.7123 11.2368 21.1587 11.2368C21.5733 11.2368 21.9757 11.1033 22.366 10.8363C22.7563 10.5693 23.0805 10.1741 23.3386 9.65058ZM25.4209 9.4029C25.4977 8.94617 25.6477 8.46486 25.8709 7.95895C26.1656 7.28089 26.5399 6.69242 26.994 6.19354C27.4481 5.69465 27.9812 5.30029 28.5933 5.01045C29.2053 4.7206 29.8709 4.57568 30.5902 4.57568C31.5539 4.57568 32.2826 4.87255 32.7762 5.46629C33.2699 6.06004 33.4343 6.847 33.2696 7.8272C33.1326 8.64228 32.8069 9.431 32.2926 10.1934C31.7783 10.9558 31.1553 11.5425 30.4237 11.9535C29.692 12.3646 28.9081 12.5701 28.072 12.5701C27.3457 12.5701 26.7637 12.4067 26.3262 12.08C25.8886 11.7533 25.6077 11.3484 25.4834 10.8653C25.3591 10.3822 25.3383 9.89475 25.4209 9.4029ZM27.0099 9.37128C26.9208 9.90178 27.0091 10.3462 27.2748 10.7046C27.5405 11.0629 27.9391 11.2421 28.4705 11.2421C28.9028 11.2421 29.342 11.1007 29.7881 10.8179C30.2342 10.535 30.6358 10.1064 30.9927 9.53201C31.3497 8.95759 31.5739 8.39811 31.6654 7.85355C31.7676 7.24575 31.683 6.76883 31.4117 6.42278C31.1403 6.07672 30.7496 5.90369 30.2394 5.90369C29.4564 5.90369 28.7587 6.26556 28.1464 6.98929C27.534 7.71302 27.1552 8.50701 27.0099 9.37128ZM37.733 8.30676H41.2193L39.9606 11.6215C39.5053 11.885 38.9639 12.1081 38.3361 12.2908C37.7084 12.4735 37.0846 12.5648 36.4646 12.5648C35.5009 12.5648 34.7985 12.3488 34.3574 11.9166C33.755 11.3264 33.5481 10.4709 33.7364 9.3502C33.8628 8.59836 34.1344 7.87815 34.5513 7.18955C35.0521 6.36041 35.6739 5.71749 36.4167 5.26077C37.1596 4.80404 37.981 4.57568 38.8809 4.57568C39.7808 4.57568 40.4678 4.78296 40.942 5.19753C41.4162 5.6121 41.6751 6.21637 41.7188 7.01037L40.1971 7.17901C40.1392 6.74336 39.9828 6.41487 39.7277 6.19354C39.4726 5.9722 39.1236 5.86153 38.6807 5.86153C38.1634 5.86153 37.6662 5.99504 37.1891 6.26205C36.712 6.52905 36.3042 6.94186 35.9659 7.50047C35.6275 8.05908 35.4028 8.66862 35.2918 9.32912C35.1826 9.97907 35.2506 10.4595 35.496 10.7704C35.7413 11.0814 36.151 11.2368 36.725 11.2368C37.0686 11.2368 37.4293 11.1885 37.8069 11.0919C38.1845 10.9953 38.5157 10.8802 38.8003 10.7467L39.2325 9.59788H37.2449L37.733 8.30676ZM42.2953 12.4331H40.6903L43.6204 4.70743H47.0801C47.6754 4.70743 48.1284 4.76804 48.4393 4.88924C48.7502 5.01045 48.9804 5.23266 49.1298 5.55588C49.2792 5.87911 49.3152 6.27083 49.2378 6.73107C49.1274 7.38805 48.8379 7.92996 48.3694 8.35683C47.9008 8.78369 47.2558 9.04806 46.4344 9.14994C46.6092 9.33263 46.7619 9.57329 46.8924 9.87192C47.1486 10.4762 47.4037 11.3299 47.6576 12.4331H45.9358C45.8708 11.9974 45.714 11.3176 45.4654 10.3936C45.3296 9.89475 45.1522 9.55924 44.9331 9.38709C44.7979 9.2852 44.5407 9.23426 44.1616 9.23426H43.5079L42.2953 12.4331ZM43.9473 8.07489H44.7976C45.6586 8.07489 46.2385 8.02394 46.5373 7.92206C46.836 7.82017 47.0835 7.66032 47.2795 7.4425C47.4756 7.22468 47.5937 6.99632 47.6338 6.75742C47.681 6.47635 47.6013 6.26556 47.3947 6.12503C47.2671 6.04071 46.9677 5.99855 46.4965 5.99855H44.7321L43.9473 8.07489ZM54.2476 10.7256H51.1599L49.9376 12.4331H48.2901L53.9943 4.70743H55.7747L55.741 12.4331H54.2211L54.2476 10.7256ZM54.2671 9.43979L54.338 6.33055L51.934 9.43979H54.2671Z" fill="white"/>
<path fill-rule="evenodd" clip-rule="evenodd" d="M5.43262 16C6.19719 14.5444 10.1175 7.51489 21.555 0.378605L21.2673 0C21.2673 0 13.0513 3.75115 5.95527 10.4448C5.95527 10.5572 2.6985 6.15717 0 4.54558C0 4.74337 0 5.17779 0 5.17779C0 5.17779 3.96177 10.4448 5.43262 16Z" fill="white"/>
<path fill-rule="evenodd" clip-rule="evenodd" d="M6.53035 4.93209C7.85357 4.34502 8.66587 3.37497 8.66587 2.31644C8.66587 2.01554 8.5006 1.46868 8.26801 1.27089C7.90507 0.948158 7.04553 0.774658 6.70538 0.774658C6.36523 0.774658 5.28505 0.991351 4.94423 1.16918C4.0266 1.64795 3.08221 2.3338 2.66081 4.04427C2.6311 4.26464 2.2704 4.12033 1.87169 3.96082C1.55382 3.83365 1.21181 3.69682 0.994102 3.72741C0.915355 3.73848 0.819665 4.26929 1.48488 4.59003C1.66542 4.67708 1.91566 4.78837 2.16143 4.89767C2.52256 5.05828 2.87403 5.21459 2.98055 5.2834C3.3709 6.57431 4.71977 7.59308 6.46406 7.59308C8.40713 7.59308 9.51772 6.52521 9.96988 6.09044C10.0132 6.04874 10.0506 6.01287 10.082 5.98432C10.4408 5.65808 11.222 4.78881 11.5337 4.36872C11.5994 4.28022 11.4185 4.08002 11.3507 4.00491C11.3389 3.99187 11.3305 3.9826 11.3274 3.97834C11.2442 3.87428 10.9212 4.13266 10.462 4.49993C10.0361 4.84055 9.49306 5.27484 8.91568 5.60052C8.18484 6.01276 7.24438 6.19601 6.70538 6.19601C6.14328 6.19601 5.21782 5.60613 5.22775 5.2834C5.74564 5.19042 6.10275 5.1218 6.53035 4.93209ZM4.81283 4.15868C4.81283 2.25055 6.23359 1.78178 6.62995 1.78178C6.98434 1.78178 7.64151 1.78178 7.46741 2.89278C7.39257 3.37034 6.03397 4.15868 5.4267 4.15868C5.38983 4.15868 5.33806 4.16526 5.27887 4.17278C5.13082 4.1916 4.93638 4.21632 4.81283 4.15868Z" fill="white"/>
</svg>
