<svg width="56" height="16" viewBox="0 0 56 16" fill="none" xmlns="http://www.w3.org/2000/svg">
<g clip-path="url(#clip0_10400_77514)">
<path fill-rule="evenodd" clip-rule="evenodd" d="M4.62472 8.04716C4.62472 5.96231 6.6126 3.24716 10.0065 1.79262C15.9217 -0.777081 19.3156 1.59868 20.1884 3.82898C21.0126 5.91383 19.3641 9.64716 16.6005 12.3623C18.5884 10.9078 20.2368 9.40474 21.352 7.90171C22.855 5.91383 23.4853 4.02292 22.9035 2.51989C22.0793 0.338071 18.7338 -0.389202 14.5641 0.192616C10.3944 0.774434 7.19442 1.8411 4.62472 3.19868C1.71563 4.65322 0.261084 6.35019 0.0186595 8.33807C-0.27225 11.1987 2.83078 15.0775 9.86108 15.5623C13.5459 15.8047 17.1338 15.9017 23.9702 14.2047C23.1459 14.2532 4.57624 16.5805 4.62472 8.04716Z" fill="white"/>
<path fill-rule="evenodd" clip-rule="evenodd" d="M11.4608 11.3927C13.6426 11.3927 15.485 9.59878 15.485 7.36848C15.485 5.18666 13.6911 3.34424 11.4608 3.34424C9.27895 3.34424 7.43652 5.13818 7.43652 7.36848C7.48501 9.59878 9.27895 11.3927 11.4608 11.3927Z" fill="white"/>
</g>
<g clip-path="url(#clip1_10400_77514)">
<path d="M35.2181 0.774414V2.71381H30.4181V4.70169H34.7333V6.54411H30.4181V8.53199H35.3636V10.4229H28.2363V0.774414H35.2181Z" fill="white"/>
<path d="M44.2368 5.47744H46.4186V8.91986C45.4489 9.98653 44.1398 10.5199 42.4428 10.5199C41.0368 10.5199 39.8246 10.035 38.8549 9.1138C37.8852 8.19259 37.4004 6.98047 37.4004 5.57441C37.4004 4.11986 37.8852 2.95622 38.8549 1.98653C39.8246 1.01683 41.0368 0.531982 42.3943 0.531982C43.8004 0.531982 44.964 0.968346 45.9822 1.88956L44.8671 3.48956C44.4307 3.10168 44.0428 2.85925 43.6549 2.7138C43.3155 2.56835 42.8792 2.51986 42.4913 2.51986C41.6671 2.51986 40.9883 2.81077 40.4065 3.3441C39.8246 3.87744 39.5822 4.65319 39.5822 5.52592C39.5822 6.39865 39.8731 7.17441 40.4065 7.70774C40.9398 8.24107 41.5701 8.53198 42.3458 8.53198C43.0731 8.53198 43.7034 8.38653 44.1883 8.09562V5.47744H44.2368Z" fill="white"/>
<path d="M52.9149 2.61684V10.4229H50.7816V2.61684H48.0664V0.774414H55.6785V2.61684H52.9149Z" fill="white"/>
<path d="M28.2852 12.7988H28.673V15.2231H28.2852V12.7988Z" fill="white"/>
<path d="M31.5332 12.7988H31.9211V15.2231H31.4847L30.1271 13.4776V15.2231H29.7393V12.7988H30.1271L31.5332 14.5928V12.7988Z" fill="white"/>
<path d="M33.8612 13.1867V15.2231H33.4734V13.1867H32.7461V12.7988H34.637V13.1867H33.8612Z" fill="white"/>
<path d="M37.0612 12.7987V13.1866H35.7521V13.8169H36.9158V14.1563H35.7521V14.7866H37.1097V15.1745H35.3643V12.7502H37.0612V12.7987Z" fill="white"/>
<path d="M39.9218 13.6229C39.9218 14.0108 39.7279 14.2532 39.3885 14.3987L40.0188 15.2714H39.4855L38.9036 14.4472H38.3703V15.2714H37.9824V12.8472H38.9036C39.2915 12.8472 39.5339 12.8957 39.6794 13.0411C39.8248 13.1381 39.9218 13.332 39.9218 13.6229ZM39.3885 13.9623C39.4855 13.9138 39.5339 13.7684 39.5339 13.6229C39.5339 13.4775 39.4855 13.3805 39.3885 13.2835C39.2915 13.235 39.1461 13.1866 38.9521 13.1866H38.4188V14.0593H38.9036C39.1461 14.0593 39.2915 14.0108 39.3885 13.9623Z" fill="white"/>
<path d="M41.1817 14.6897L40.9393 15.2231H40.5029L41.5696 12.7988H42.006L43.0726 15.2231H42.6363L42.3938 14.6897H41.1817ZM42.2484 14.3019L41.812 13.2837L41.3757 14.3019H42.2484Z" fill="white"/>
<path d="M44.8671 14.8835C45.0125 14.8835 45.1095 14.8835 45.2064 14.835C45.3034 14.7866 45.4004 14.6896 45.5458 14.5926L45.7883 14.8835C45.5458 15.1744 45.2064 15.3199 44.8671 15.3199C44.4792 15.3199 44.1883 15.2229 43.9458 14.9805C43.7034 14.7381 43.6064 14.4472 43.6064 14.1078C43.6064 13.7684 43.7519 13.429 43.9943 13.1866C44.2367 12.9441 44.5277 12.8472 44.9155 12.8472C45.3034 12.8472 45.5943 12.9926 45.8367 13.2835L45.5943 13.5744C45.4974 13.4775 45.3519 13.3805 45.2549 13.332C45.158 13.2835 45.0125 13.2835 44.9155 13.2835C44.6731 13.2835 44.4792 13.3805 44.2852 13.526C44.1398 13.6714 44.0428 13.8653 44.0428 14.1078C44.0428 14.3502 44.1398 14.5441 44.2852 14.7381C44.4307 14.7866 44.6246 14.8835 44.8671 14.8835Z" fill="white"/>
<path d="M47.582 13.1867V15.2231H47.1941V13.1867H46.4668V12.7988H48.3577V13.1867H47.582Z" fill="white"/>
<path d="M49.085 12.7988H49.4728V15.2231H49.085V12.7988Z" fill="white"/>
<path d="M51.6063 15.2231H51.1699L50.2002 12.7988H50.6366L51.3638 14.5928L52.0911 12.7988H52.5275L51.6063 15.2231Z" fill="white"/>
<path d="M55.0003 12.7987V13.1866H53.6912V13.8169H54.8549V14.1563H53.6912V14.7866H55.0003V15.1745H53.2549V12.7502H55.0003V12.7987Z" fill="white"/>
</g>
<defs>
<clipPath id="clip0_10400_77514">
<rect width="24.2424" height="16" fill="white" transform="translate(0 0.000244141)"/>
</clipPath>
<clipPath id="clip1_10400_77514">
<rect width="27.6364" height="15.0303" fill="white" transform="translate(28.1211 0.485107)"/>
</clipPath>
</defs>
</svg>
