<svg width="105" height="16" viewBox="0 0 105 16" fill="none" xmlns="http://www.w3.org/2000/svg">
<path d="M9.84616 8.1677L4.92308 11.0769L0 8.1677L4.92308 0L9.84616 8.1677Z" fill="white"/>
<path d="M4.92175 15.9999L9.84616 9.23071L4.92175 12.0675L0 9.23071L4.92175 15.9999Z" fill="white"/>
<path d="M23.926 11.2518C23.926 11.4423 23.7635 11.5974 23.5695 11.5974H16.7009C16.8724 13.263 18.1496 14.7825 19.9457 14.7825C21.1731 14.7825 22.0847 14.3218 22.7707 13.3605C22.87 13.2276 23.0189 13.1434 23.2084 13.2232C23.3122 13.2675 23.3844 13.3605 23.4025 13.4668C23.4205 13.5776 23.3889 13.6396 23.3573 13.7016C22.6669 14.8844 21.2905 15.4648 19.9411 15.4648C17.6306 15.4648 15.9834 13.4358 15.9834 11.2651C15.9834 9.09445 17.6306 7.06555 19.9411 7.06555C22.2517 7.06105 23.9215 9.08565 23.926 11.2518ZM23.1904 10.924C23.0415 9.25835 21.7418 7.73885 19.9457 7.73885C18.1496 7.73885 16.8724 9.25835 16.7009 10.924H23.1904ZM32.2611 7.22945C32.4597 7.22945 32.6041 7.39775 32.6041 7.56615C32.6041 7.76105 32.4552 7.90275 32.2611 7.90275H30.4199V14.9952C30.4199 15.1635 30.271 15.3319 30.0769 15.3319C29.8784 15.3319 29.734 15.1635 29.734 14.9952V7.90275H27.9649C27.7664 7.90275 27.622 7.75655 27.622 7.56615C27.622 7.39775 27.7709 7.22945 27.9649 7.22945H29.734V4.63344C29.734 4.46954 29.8468 4.31895 30.0092 4.29235C30.2394 4.25685 30.4199 4.41195 30.4199 4.62455V7.22945H32.2611ZM43.4936 10.6582V14.9553C43.4936 15.1502 43.3221 15.292 43.1506 15.292C42.952 15.292 42.8076 15.1458 42.8076 14.9553V10.6582C42.8076 9.20965 41.9727 7.76105 40.3256 7.76105C38.2136 7.76105 37.302 9.57295 37.4238 11.429C37.4238 11.4778 37.4464 11.6948 37.4464 11.717V14.942C37.4464 15.1059 37.3336 15.2565 37.1711 15.2831C36.9409 15.3186 36.7604 15.1635 36.7604 14.9509V0.836945C36.7604 0.668545 36.9093 0.500244 37.1034 0.500244C37.302 0.500244 37.4464 0.668545 37.4464 0.836945V8.82425C38.0376 7.78765 39.0936 7.08765 40.321 7.08765C42.3383 7.08765 43.4936 8.82425 43.4936 10.6582ZM55.809 11.2518C55.809 11.4423 55.6466 11.5974 55.4525 11.5974H48.5795C48.751 13.263 50.0281 14.7825 51.8242 14.7825C53.0517 14.7825 53.9633 14.3218 54.6492 13.3605C54.7485 13.2276 54.8975 13.1434 55.087 13.2232C55.1908 13.2675 55.263 13.3605 55.281 13.4668C55.2991 13.5776 55.2675 13.6396 55.2359 13.7016C54.5454 14.8844 53.169 15.4648 51.8197 15.4648C49.5091 15.4648 47.862 13.4358 47.862 11.2651C47.862 9.09445 49.5091 7.06555 51.8197 7.06555C54.1348 7.06105 55.8045 9.08565 55.809 11.2518ZM55.0689 10.924C54.92 9.25835 53.6203 7.73885 51.8242 7.73885C50.0281 7.73885 48.751 9.25835 48.5795 10.924H55.0689ZM64.239 7.54395C64.239 7.76104 64.1171 7.88065 63.9186 7.90725C61.9013 8.19515 60.9943 9.81215 60.9943 11.6948V14.9199C60.9943 15.0838 60.8814 15.2344 60.719 15.261C60.4888 15.2964 60.3083 15.1414 60.3083 14.9287V7.57935C60.3083 7.41545 60.4211 7.26485 60.5836 7.23825C60.8138 7.20285 60.9943 7.35784 60.9943 7.57055V9.06785C61.5584 8.12875 62.6911 7.23385 63.8689 7.23385C64.0404 7.22945 64.239 7.35345 64.239 7.54395ZM75.521 11.2518C75.521 11.4423 75.3586 11.5974 75.1645 11.5974H68.296C68.4675 13.263 69.7446 14.7825 71.5407 14.7825C72.7682 14.7825 73.6798 14.3218 74.3658 13.3605C74.465 13.2276 74.614 13.1434 74.8035 13.2232C74.9073 13.2675 74.9795 13.3605 74.9975 13.4668C75.0156 13.5776 74.984 13.6396 74.9524 13.7016C74.262 14.8844 72.8856 15.4648 71.5362 15.4648C69.2257 15.4648 67.5785 13.4358 67.5785 11.2651C67.5785 9.09445 69.2257 7.06555 71.5362 7.06555C73.8468 7.06105 75.5165 9.08565 75.521 11.2518ZM74.7855 10.924C74.6365 9.25835 73.3368 7.73885 71.5407 7.73885C69.7446 7.73885 68.4675 9.25835 68.296 10.924H74.7855ZM86.6094 7.62815V14.9952C86.6094 15.1901 86.4374 15.3319 86.2664 15.3319C86.0674 15.3319 85.9234 15.1857 85.9234 14.9952V13.5953C85.3594 14.7072 84.3484 15.5002 83.0714 15.5002C81.0314 15.5002 79.8985 13.7636 79.8985 11.9296V7.61045C79.8985 7.44205 80.0474 7.27375 80.2414 7.27375C80.44 7.27375 80.5844 7.44205 80.5844 7.61045V11.9296C80.5844 13.3782 81.4194 14.8268 83.0664 14.8268C85.3774 14.8268 85.9184 12.7049 85.9184 10.3614V7.61045C85.9184 7.41545 86.1174 7.21615 86.3604 7.28705C86.5094 7.33575 86.6094 7.47754 86.6094 7.62815ZM103.983 10.6316V14.9509C103.983 15.1458 103.812 15.2876 103.64 15.2876C103.441 15.2876 103.297 15.1414 103.297 14.9509V10.6316C103.297 9.18305 102.462 7.76105 100.815 7.76105C98.7484 7.76105 97.9634 9.93175 97.9634 11.6195V14.9509C97.9634 15.1458 97.7914 15.2876 97.6204 15.2876C97.4214 15.2876 97.2774 15.1414 97.2774 14.9509V10.6316C97.2774 9.18305 96.4424 7.76105 94.7954 7.76105C92.7054 7.76105 91.8444 9.37795 91.9204 11.5265C91.9204 11.5752 91.9434 11.6727 91.9204 11.6948V14.942C91.9204 15.1059 91.8074 15.2565 91.6404 15.2831C91.4104 15.3186 91.2304 15.1635 91.2304 14.9509V7.57935C91.2304 7.41545 91.3434 7.26485 91.5054 7.23825C91.7354 7.20285 91.9164 7.35784 91.9164 7.57055V8.80205C92.5074 7.76545 93.5634 7.08765 94.7904 7.08765C96.1894 7.08765 97.2724 7.95595 97.7154 9.23625C98.2794 7.98255 99.3844 7.08765 100.81 7.08765C102.828 7.08765 103.983 8.79765 103.983 10.6316Z" fill="white"/>
<path d="M16.7029 11.5972V11.0972H16.1488L16.2056 11.6484L16.7029 11.5972ZM22.7727 13.3603L22.372 13.061L22.3657 13.0699L22.7727 13.3603ZM23.2104 13.223L23.4067 12.7631L23.4043 12.7621L23.2104 13.223ZM23.4045 13.4666L23.898 13.3862L23.8974 13.3829L23.4045 13.4666ZM23.3593 13.7014L23.7912 13.9535L23.7984 13.9411L23.8049 13.9283L23.3593 13.7014ZM19.9431 7.0653V7.5653H19.9441L19.9431 7.0653ZM23.1924 10.9238V11.4238H23.7391L23.6904 10.8793L23.1924 10.9238ZM16.7029 10.9238L16.2056 10.8726L16.1488 11.4238H16.7029V10.9238ZM30.4219 7.9025V7.4025H29.9219V7.9025H30.4219ZM29.736 7.9025H30.236V7.4025H29.736V7.9025ZM29.736 7.2292V7.7292H30.236V7.2292H29.736ZM30.0112 4.2921L29.9351 3.7979L29.9305 3.7986L30.0112 4.2921ZM30.4219 7.2292H29.9219V7.7292H30.4219V7.2292ZM37.4258 11.4288H37.9258V11.4124L37.9247 11.3961L37.4258 11.4288ZM37.1731 15.2829L37.2492 15.7771L37.2538 15.7764L37.1731 15.2829ZM37.4484 8.824H36.9484V10.71L37.8827 9.0717L37.4484 8.824ZM48.5815 11.5972V11.0972H48.0274L48.0841 11.6484L48.5815 11.5972ZM54.6512 13.3603L54.2506 13.061L54.2442 13.0699L54.6512 13.3603ZM55.089 13.223L55.2853 12.7631L55.2829 12.7621L55.089 13.223ZM55.283 13.4666L55.7765 13.3862L55.776 13.3829L55.283 13.4666ZM55.2379 13.7014L55.6697 13.9535L55.6769 13.9411L55.6834 13.9283L55.2379 13.7014ZM51.8217 7.0653V7.5653H51.8227L51.8217 7.0653ZM55.0709 10.9238V11.4238H55.6176L55.5689 10.8793L55.0709 10.9238ZM48.5815 10.9238L48.0841 10.8726L48.0274 11.4238H48.5815V10.9238ZM63.9206 7.907L63.8542 7.4114L63.8499 7.412L63.9206 7.907ZM60.721 15.2608L60.7971 15.755L60.8017 15.7542L60.721 15.2608ZM60.5856 7.238L60.5095 6.7438L60.5049 6.7446L60.5856 7.238ZM60.9963 9.0676H60.4963V10.8711L61.4249 9.3251L60.9963 9.0676ZM63.8709 7.2336V7.7338L63.8838 7.7334L63.8709 7.2336ZM68.298 11.5972V11.0972H67.7439L67.8006 11.6484L68.298 11.5972ZM74.3678 13.3603L73.9671 13.061L73.9607 13.0699L74.3678 13.3603ZM74.8055 13.223L75.0018 12.7631L74.9994 12.7621L74.8055 13.223ZM74.9995 13.4666L75.493 13.3862L75.4925 13.3829L74.9995 13.4666ZM74.9544 13.7014L75.3862 13.9535L75.3935 13.9411L75.4 13.9283L74.9544 13.7014ZM71.5382 7.0653V7.5653H71.5392L71.5382 7.0653ZM68.298 10.9238L67.8006 10.8726L67.7439 11.4238H68.298V10.9238ZM85.9254 13.5951H86.4254L85.4794 13.3689L85.9254 13.5951ZM86.3624 7.2868L86.5184 6.8116L86.5104 6.809L86.5024 6.8067L86.3624 7.2868ZM91.9224 11.5263H92.4224V11.5174V11.5084L91.9224 11.5263ZM91.9224 11.6946L91.5724 11.3378L91.4224 11.4848V11.6946H91.9224ZM91.6424 15.2829L91.7194 15.7771L91.7214 15.7767L91.6424 15.2829ZM91.5074 7.238L91.4314 6.7438L91.4264 6.7446L91.5074 7.238ZM91.9184 8.8018H91.4184V10.6879L92.3524 9.0495L91.9184 8.8018ZM97.7174 9.236L97.2444 9.3992L97.6564 10.5904L98.1734 9.4411L97.7174 9.236ZM23.428 11.2516C23.428 11.1491 23.5065 11.0972 23.5715 11.0972V12.0972C24.0245 12.0972 24.428 11.7351 24.428 11.2516H23.428ZM23.5715 11.0972H16.7029V12.0972H23.5715V11.0972ZM16.2056 11.6484C16.3965 13.5031 17.834 15.2823 19.9477 15.2823V14.2823C18.4692 14.2823 17.3523 13.0226 17.2003 11.546L16.2056 11.6484ZM19.9477 15.2823C21.3301 15.2823 22.3961 14.7489 23.1797 13.6507L22.3657 13.0699C21.7774 13.8944 21.0202 14.2823 19.9477 14.2823V15.2823ZM23.1732 13.6595C23.1845 13.6445 23.1754 13.6641 23.1343 13.6797C23.1123 13.688 23.0868 13.6926 23.0613 13.6919C23.0361 13.6911 23.0204 13.6855 23.0165 13.6839L23.4043 12.7621C23.1988 12.6756 22.9815 12.6685 22.7811 12.7441C22.5933 12.815 22.4602 12.9432 22.3721 13.0611L23.1732 13.6595ZM23.0142 13.6828C22.9624 13.6608 22.9221 13.6127 22.9115 13.5503L23.8974 13.3829C23.8507 13.1079 23.666 12.8738 23.4067 12.7631L23.0142 13.6828ZM22.911 13.5471C22.9105 13.5442 22.9093 13.535 22.9099 13.5208C22.9105 13.5063 22.9128 13.4913 22.9164 13.4772C22.9199 13.4636 22.9236 13.455 22.9242 13.4536C22.9244 13.4531 22.924 13.4542 22.9222 13.4578C22.9203 13.4617 22.918 13.4662 22.9138 13.4745L23.8049 13.9283C23.8182 13.9022 23.8594 13.825 23.8846 13.7274C23.9124 13.6201 23.9176 13.5068 23.898 13.3862L22.911 13.5471ZM22.9275 13.4493C22.3509 14.4371 21.1687 14.9646 19.9431 14.9646V15.9646C21.4163 15.9646 22.9868 15.3313 23.7912 13.9535L22.9275 13.4493ZM19.9431 14.9646C17.957 14.9646 16.4854 13.2104 16.4854 11.2649H15.4854C15.4854 13.6608 17.3081 15.9646 19.9431 15.9646V14.9646ZM16.4854 11.2649C16.4854 9.3194 17.957 7.5653 19.9431 7.5653V6.5653C17.3081 6.5653 15.4854 8.869 15.4854 11.2649H16.4854ZM19.9441 7.5653C21.9336 7.5615 23.4239 9.3153 23.428 11.2527L24.428 11.2506C24.423 8.8554 22.5738 6.5602 19.9422 6.5653L19.9441 7.5653ZM23.6904 10.8793C23.5236 9.0133 22.0566 7.2386 19.9477 7.2386V8.2386C21.4309 8.2386 22.5633 9.5029 22.6944 10.9683L23.6904 10.8793ZM19.9477 7.2386C17.834 7.2386 16.3965 9.0179 16.2056 10.8726L17.2003 10.975C17.3523 9.4983 18.4692 8.2386 19.9477 8.2386V7.2386ZM16.7029 11.4238H23.1924V10.4238H16.7029V11.4238ZM32.2631 7.7292C32.2151 7.7292 32.1742 7.7074 32.1493 7.6816C32.1281 7.6596 32.1061 7.622 32.1061 7.5659H33.1061C33.1061 7.1383 32.7545 6.7292 32.2631 6.7292V7.7292ZM32.1061 7.5659C32.1061 7.5313 32.1214 7.4853 32.1588 7.4489C32.1951 7.4136 32.2363 7.4025 32.2631 7.4025V8.4025C32.7202 8.4025 33.1061 8.0499 33.1061 7.5659H32.1061ZM32.2631 7.4025H30.4219V8.4025H32.2631V7.4025ZM29.9219 7.9025V14.995H30.9219V7.9025H29.9219ZM29.9219 14.995C29.9219 14.9344 29.9462 14.8969 29.965 14.8776C29.987 14.855 30.0266 14.8317 30.0789 14.8317V15.8317C30.5615 15.8317 30.9219 15.427 30.9219 14.995H29.9219ZM30.0789 14.8317C30.1269 14.8317 30.1678 14.8534 30.1928 14.8792C30.214 14.9012 30.236 14.9388 30.236 14.995H29.236C29.236 15.4226 29.5876 15.8317 30.0789 15.8317V14.8317ZM30.236 14.995V7.9025H29.236V14.995H30.236ZM29.736 7.4025H27.9669V8.4025H29.736V7.4025ZM27.9669 7.4025C27.9938 7.4025 28.0362 7.4141 28.0729 7.4504C28.1094 7.4866 28.124 7.5314 28.124 7.5659H27.124C27.124 8.0369 27.4966 8.4025 27.9669 8.4025V7.4025ZM28.124 7.5659C28.124 7.6265 28.0997 7.6639 28.0809 7.6833C28.0588 7.7059 28.0193 7.7292 27.9669 7.7292V6.7292C27.4844 6.7292 27.124 7.1339 27.124 7.5659H28.124ZM27.9669 7.7292H29.736V6.7292H27.9669V7.7292ZM30.236 7.2292V4.6332H29.236V7.2292H30.236ZM30.236 4.6332C30.236 4.6648 30.2256 4.6951 30.2052 4.7209C30.1836 4.7483 30.145 4.7768 30.092 4.7855L29.9305 3.7986C29.4957 3.8698 29.236 4.2566 29.236 4.6332H30.236ZM30.0873 4.7863C30.071 4.7888 30.028 4.7866 29.9849 4.751C29.9416 4.7154 29.9219 4.6649 29.9219 4.6243H30.9219C30.9219 4.0853 30.4482 3.7189 29.9352 3.7979L30.0873 4.7863ZM29.9219 4.6243V7.2292H30.9219V4.6243H29.9219ZM30.4219 7.7292H32.2631V6.7292H30.4219V7.7292ZM42.9956 10.658V14.9551H43.9956V10.658H42.9956ZM42.9956 14.9551C42.9956 14.8988 43.0219 14.8545 43.0479 14.8304C43.07 14.8099 43.1039 14.7918 43.1526 14.7918V15.7918C43.5654 15.7918 43.9956 15.4597 43.9956 14.9551H42.9956ZM43.1526 14.7918C43.1794 14.7918 43.2218 14.8033 43.2585 14.8397C43.295 14.8758 43.3096 14.9206 43.3096 14.9551H42.3096C42.3096 15.4261 42.6823 15.7918 43.1526 15.7918V14.7918ZM43.3096 14.9551V10.658H42.3096V14.9551H43.3096ZM43.3096 10.658C43.3096 9.8451 43.0766 9.0085 42.5837 8.3628C42.0806 7.7035 41.3167 7.2608 40.3276 7.2608V8.2608C40.9856 8.2608 41.4628 8.5423 41.7888 8.9695C42.1252 9.4102 42.3096 10.0223 42.3096 10.658H43.3096ZM40.3276 7.2608C39.1078 7.2608 38.1987 7.7939 37.6286 8.6131C37.0719 9.4131 36.8605 10.4504 36.9269 11.4616L37.9247 11.3961C37.8693 10.5511 38.0528 9.7543 38.4494 9.1843C38.8326 8.6336 39.4353 8.2608 40.3276 8.2608V7.2608ZM36.9258 11.4288C36.9258 11.4635 36.929 11.5056 36.9308 11.5295C36.9332 11.5604 36.9362 11.5954 36.9391 11.6273C36.9421 11.6608 36.9447 11.689 36.9467 11.7128C36.9478 11.7244 36.9484 11.7326 36.9488 11.7378C36.949 11.7404 36.949 11.7408 36.949 11.7397C36.9489 11.7391 36.9488 11.7371 36.9487 11.7342C36.9486 11.732 36.9484 11.7255 36.9484 11.7168H37.9484C37.9484 11.6997 37.9475 11.6851 37.9473 11.6812C37.9469 11.6744 37.9464 11.6678 37.946 11.6623C37.9451 11.6512 37.9441 11.6384 37.943 11.6258C37.9408 11.6011 37.9377 11.5678 37.9351 11.5383C37.9323 11.507 37.9297 11.4772 37.9279 11.453C37.9255 11.4218 37.9258 11.4185 37.9258 11.4288H36.9258ZM36.9484 11.7168V14.9418H37.9484V11.7168H36.9484ZM36.9484 14.9418C36.9484 14.9102 36.9588 14.88 36.9792 14.8541C37.0008 14.8268 37.0393 14.7982 37.0924 14.7895L37.2538 15.7764C37.6886 15.7052 37.9484 15.3184 37.9484 14.9418H36.9484ZM37.097 14.7888C37.1134 14.7862 37.1563 14.7884 37.1995 14.824C37.2427 14.8596 37.2624 14.9101 37.2624 14.9507H36.2624C36.2624 15.4897 36.7362 15.8561 37.2492 15.7771L37.097 14.7888ZM37.2624 14.9507V0.8367H36.2624V14.9507H37.2624ZM37.2624 0.8367C37.2624 0.8973 37.2382 0.9347 37.2193 0.9541C37.1973 0.9767 37.1578 1 37.1054 1V0C36.6229 0 36.2624 0.4047 36.2624 0.8367H37.2624ZM37.1054 1C37.0574 1 37.0165 0.9783 36.9916 0.9524C36.9703 0.9304 36.9484 0.8928 36.9484 0.8367H37.9484C37.9484 0.4091 37.5967 0 37.1054 0V1ZM36.9484 0.8367V8.824H37.9484V0.8367H36.9484ZM37.8827 9.0717C38.3961 8.1714 39.2967 7.5874 40.323 7.5874V6.5874C38.8944 6.5874 37.683 7.4033 37.014 8.5763L37.8827 9.0717ZM40.323 7.5874C41.9736 7.5874 42.9956 8.9999 42.9956 10.658H43.9956C43.9956 8.648 42.7069 6.5874 40.323 6.5874V7.5874ZM55.311 11.2516C55.311 11.1491 55.3896 11.0972 55.4545 11.0972V12.0972C55.9076 12.0972 56.311 11.7351 56.311 11.2516H55.311ZM55.4545 11.0972H48.5815V12.0972H55.4545V11.0972ZM48.0841 11.6484C48.2751 13.5031 49.7125 15.2823 51.8262 15.2823V14.2823C50.3477 14.2823 49.2309 13.0226 49.0789 11.546L48.0841 11.6484ZM51.8262 15.2823C53.2086 15.2823 54.2747 14.7489 55.0583 13.6507L54.2442 13.0699C53.6559 13.8944 52.8988 14.2823 51.8262 14.2823V15.2823ZM55.0518 13.6595C55.063 13.6445 55.054 13.6641 55.0129 13.6797C54.9908 13.688 54.9654 13.6926 54.9398 13.6919C54.9147 13.6911 54.899 13.6855 54.8951 13.6839L55.2829 12.7621C55.0774 12.6756 54.8601 12.6685 54.6597 12.7441C54.4719 12.815 54.3387 12.9432 54.2507 13.0611L55.0518 13.6595ZM54.8927 13.6828C54.841 13.6608 54.8007 13.6127 54.7901 13.5503L55.776 13.3829C55.7293 13.1079 55.5446 12.8738 55.2853 12.7631L54.8927 13.6828ZM54.7895 13.5471C54.7891 13.5442 54.7879 13.535 54.7885 13.5208C54.7891 13.5063 54.7914 13.4913 54.795 13.4772C54.7985 13.4636 54.8022 13.455 54.8028 13.4536C54.803 13.4531 54.8026 13.4542 54.8008 13.4578C54.7989 13.4617 54.7966 13.4662 54.7924 13.4745L55.6834 13.9283C55.6968 13.9022 55.7379 13.825 55.7632 13.7274C55.7909 13.6201 55.7962 13.5068 55.7765 13.3862L54.7895 13.5471ZM54.8061 13.4493C54.2295 14.4371 53.0472 14.9646 51.8217 14.9646V15.9646C53.2948 15.9646 54.8654 15.3313 55.6697 13.9535L54.8061 13.4493ZM51.8217 14.9646C49.8356 14.9646 48.364 13.2104 48.364 11.2649H47.364C47.364 13.6608 49.1867 15.9646 51.8217 15.9646V14.9646ZM48.364 11.2649C48.364 9.3194 49.8356 7.5653 51.8217 7.5653V6.5653C49.1867 6.5653 47.364 8.869 47.364 11.2649H48.364ZM51.8227 7.5653C53.8171 7.5615 55.307 9.3157 55.311 11.2527L56.311 11.2506C56.306 8.855 54.4565 6.5602 51.8208 6.5653L51.8227 7.5653ZM55.5689 10.8793C55.4021 9.0133 53.9352 7.2386 51.8262 7.2386V8.2386C53.3094 8.2386 54.4419 9.5029 54.5729 10.9683L55.5689 10.8793ZM51.8262 7.2386C49.7125 7.2386 48.2751 9.0179 48.0841 10.8726L49.0789 10.975C49.2309 9.4983 50.3477 8.2386 51.8262 8.2386V7.2386ZM48.5815 11.4238H55.0709V10.4238H48.5815V11.4238ZM63.741 7.5437C63.741 7.5515 63.7399 7.5435 63.7461 7.5254C63.7528 7.5061 63.7656 7.4819 63.7865 7.4591C63.8306 7.4109 63.8709 7.4092 63.8542 7.4114L63.9869 8.4025C64.1689 8.3782 64.3693 8.3033 64.524 8.1345C64.6815 7.9624 64.741 7.748 64.741 7.5437H63.741ZM63.8499 7.412C62.7105 7.5746 61.8553 8.1219 61.2941 8.9136C60.7407 9.6941 60.4963 10.6779 60.4963 11.6946H61.4963C61.4963 10.8286 61.7054 10.0625 62.1099 9.4919C62.5065 8.9324 63.1135 8.5273 63.9912 8.402L63.8499 7.412ZM60.4963 11.6946V14.9197H61.4963V11.6946H60.4963ZM60.4963 14.9197C60.4963 14.888 60.5067 14.8578 60.5271 14.832C60.5487 14.8046 60.5872 14.776 60.6403 14.7673L60.8017 15.7542C61.2365 15.6831 61.4963 15.2963 61.4963 14.9197H60.4963ZM60.6449 14.7666C60.6613 14.7641 60.7042 14.7663 60.7474 14.8019C60.7906 14.8375 60.8103 14.888 60.8103 14.9285H59.8103C59.8103 15.4676 60.2841 15.834 60.7971 15.755L60.6449 14.7666ZM60.8103 14.9285V7.5791H59.8103V14.9285H60.8103ZM60.8103 7.5791C60.8103 7.6108 60.7999 7.641 60.7795 7.6669C60.7579 7.6942 60.7194 7.7228 60.6663 7.7315L60.5049 6.7446C60.0701 6.8157 59.8103 7.2025 59.8103 7.5791H60.8103ZM60.6617 7.7322C60.6453 7.7347 60.6024 7.7325 60.5592 7.697C60.516 7.6613 60.4963 7.6108 60.4963 7.5703H61.4963C61.4963 7.0313 61.0225 6.6649 60.5095 6.7439L60.6617 7.7322ZM60.4963 7.5703V9.0676H61.4963V7.5703H60.4963ZM61.4249 9.3251C61.9337 8.4781 62.9274 7.7336 63.8709 7.7336V6.7336C62.4588 6.7336 61.1871 7.7789 60.5676 8.8102L61.4249 9.3251ZM63.8838 7.7334C63.8534 7.7342 63.8347 7.7266 63.8168 7.713C63.7935 7.6951 63.741 7.638 63.741 7.5437H64.741C64.741 7.2589 64.5892 7.0445 64.4237 6.9182C64.2637 6.796 64.06 6.7286 63.858 6.7338L63.8838 7.7334ZM75.023 11.2516C75.023 11.1491 75.1016 11.0972 75.1665 11.0972V12.0972C75.6196 12.0972 76.023 11.7351 76.023 11.2516H75.023ZM75.1665 11.0972H68.298V12.0972H75.1665V11.0972ZM67.8006 11.6484C67.9916 13.5031 69.429 15.2823 71.5427 15.2823V14.2823C70.0642 14.2823 68.9474 13.0226 68.7954 11.546L67.8006 11.6484ZM71.5427 15.2823C72.9251 15.2823 73.9912 14.7489 74.7748 13.6507L73.9607 13.0699C73.3724 13.8944 72.6153 14.2823 71.5427 14.2823V15.2823ZM74.7683 13.6595C74.7796 13.6445 74.7705 13.6641 74.7294 13.6797C74.7073 13.688 74.6819 13.6926 74.6563 13.6919C74.6312 13.6911 74.6155 13.6855 74.6116 13.6839L74.9994 12.7621C74.7939 12.6756 74.5766 12.6685 74.3762 12.7441C74.1884 12.815 74.0552 12.9432 73.9672 13.0611L74.7683 13.6595ZM74.6092 13.6828C74.5575 13.6608 74.5172 13.6127 74.5066 13.5503L75.4925 13.3829C75.4458 13.1079 75.2611 12.8738 75.0018 12.7631L74.6092 13.6828ZM74.5061 13.5471C74.5056 13.5442 74.5044 13.535 74.505 13.5208C74.5056 13.5063 74.5079 13.4913 74.5115 13.4772C74.515 13.4636 74.5187 13.455 74.5193 13.4536C74.5195 13.4531 74.5191 13.4542 74.5173 13.4578C74.5154 13.4617 74.5131 13.4662 74.5089 13.4745L75.4 13.9283C75.4133 13.9022 75.4545 13.825 75.4797 13.7274C75.5074 13.6201 75.5127 13.5068 75.493 13.3862L74.5061 13.5471ZM74.5226 13.4493C73.946 14.4371 72.7637 14.9646 71.5382 14.9646V15.9646C73.0114 15.9646 74.5819 15.3313 75.3862 13.9535L74.5226 13.4493ZM71.5382 14.9646C69.5521 14.9646 68.0805 13.2104 68.0805 11.2649H67.0805C67.0805 13.6608 68.9032 15.9646 71.5382 15.9646V14.9646ZM68.0805 11.2649C68.0805 9.3194 69.5521 7.5653 71.5382 7.5653V6.5653C68.9032 6.5653 67.0805 8.869 67.0805 11.2649H68.0805ZM71.5392 7.5653C73.5287 7.5615 75.019 9.3153 75.023 11.2527L76.023 11.2506C76.018 8.8554 74.1688 6.5602 71.5373 6.5653L71.5392 7.5653ZM75.2855 10.8793C75.1186 9.0133 73.6517 7.2386 71.5427 7.2386V8.2386C73.0259 8.2386 74.1584 9.5029 74.2894 10.9683L75.2855 10.8793ZM71.5427 7.2386C69.429 7.2386 67.9916 9.0179 67.8006 10.8726L68.7954 10.975C68.9474 9.4983 70.0642 8.2386 71.5427 8.2386V7.2386ZM68.298 11.4238H74.7875V10.4238H68.298V11.4238ZM86.1114 7.6279V14.995H87.1114V7.6279H86.1114ZM86.1114 14.995C86.1114 14.9386 86.1374 14.8944 86.1634 14.8703C86.1854 14.8497 86.2194 14.8317 86.2684 14.8317V15.8317C86.6804 15.8317 87.1114 15.4996 87.1114 14.995H86.1114ZM86.2684 14.8317C86.2944 14.8317 86.3374 14.8432 86.3744 14.8796C86.4104 14.9157 86.4254 14.9605 86.4254 14.995H85.4254C85.4254 15.466 85.7974 15.8317 86.2684 15.8317V14.8317ZM86.4254 14.995V13.5951H85.4254V14.995H86.4254ZM85.4794 13.3689C84.9784 14.356 84.1174 15 83.0734 15V16C84.5824 16 85.7434 15.0581 86.3714 13.8213L85.4794 13.3689ZM83.0734 15C82.2104 15 81.5574 14.6388 81.1104 14.0875C80.6544 13.5257 80.4005 12.749 80.4005 11.9294H79.4005C79.4005 12.9438 79.7129 13.9524 80.3335 14.7175C80.9625 15.4929 81.8964 16 83.0734 16V15ZM80.4005 11.9294V7.6102H79.4005V11.9294H80.4005ZM80.4005 7.6102C80.4005 7.6708 80.3762 7.7082 80.3574 7.7276C80.3354 7.7502 80.2958 7.7735 80.2434 7.7735V6.7735C79.7609 6.7735 79.4005 7.1782 79.4005 7.6102H80.4005ZM80.2434 7.7735C80.1954 7.7735 80.1546 7.7517 80.1296 7.7259C80.1084 7.7039 80.0864 7.6663 80.0864 7.6102H81.0864C81.0864 7.1826 80.7348 6.7735 80.2434 6.7735V7.7735ZM80.0864 7.6102V11.9294H81.0864V7.6102H80.0864ZM80.0864 11.9294C80.0864 12.7423 80.3194 13.5789 80.8123 14.2246C81.3154 14.8839 82.0794 15.3266 83.0684 15.3266V14.3266C82.4104 14.3266 81.9334 14.0451 81.6074 13.6179C81.2704 13.1772 81.0864 12.5651 81.0864 11.9294H80.0864ZM83.0684 15.3266C83.7254 15.3266 84.2874 15.1749 84.7544 14.8821C85.2204 14.59 85.5604 14.1768 85.8054 13.7017C86.2864 12.7689 86.4204 11.5533 86.4204 10.3612H85.4204C85.4204 11.5126 85.2844 12.5297 84.9164 13.2437C84.7374 13.592 84.5084 13.8558 84.2234 14.0348C83.9384 14.2131 83.5674 14.3266 83.0684 14.3266V15.3266ZM86.4204 10.3612V7.6102H85.4204V10.3612H86.4204ZM86.4204 7.6102C86.4204 7.6767 86.3914 7.7157 86.3664 7.7362C86.3504 7.7493 86.3274 7.7617 86.2994 7.768C86.2694 7.7747 86.2424 7.7724 86.2234 7.7669L86.5024 6.8067C85.8964 6.6304 85.4204 7.1276 85.4204 7.6102H86.4204ZM86.2074 7.762C86.1764 7.7517 86.1524 7.7324 86.1374 7.7112C86.1224 7.6905 86.1114 7.6623 86.1114 7.6279H87.1114C87.1114 7.2639 86.8754 6.9284 86.5184 6.8116L86.2074 7.762ZM103.485 10.6314V14.9507H104.485V10.6314H103.485ZM103.485 14.9507C103.485 14.8943 103.511 14.8501 103.537 14.826C103.559 14.8054 103.593 14.7874 103.642 14.7874V15.7874C104.055 15.7874 104.485 15.4553 104.485 14.9507H103.485ZM103.642 14.7874C103.669 14.7874 103.711 14.7989 103.748 14.8353C103.784 14.8714 103.799 14.9162 103.799 14.9507H102.799C102.799 15.4217 103.172 15.7874 103.642 15.7874V14.7874ZM103.799 14.9507V10.6314H102.799V14.9507H103.799ZM103.799 10.6314C103.799 9.8182 103.566 8.9871 103.071 8.3472C102.567 7.6938 101.803 7.2608 100.817 7.2608V8.2608C101.479 8.2608 101.956 8.5387 102.28 8.9586C102.615 9.3918 102.799 9.996 102.799 10.6314H103.799ZM100.817 7.2608C99.5734 7.2608 98.7134 7.9286 98.1884 8.7988C97.6744 9.6502 97.4654 10.7106 97.4654 11.6193H98.4654C98.4654 10.8402 98.6484 9.9713 99.0444 9.3154C99.4284 8.6783 99.9954 8.2608 100.817 8.2608V7.2608ZM97.4654 11.6193V14.9507H98.4654V11.6193H97.4654ZM97.4654 14.9507C97.4654 14.8943 97.4914 14.8501 97.5174 14.826C97.5394 14.8054 97.5734 14.7874 97.6224 14.7874V15.7874C98.0354 15.7874 98.4654 15.4553 98.4654 14.9507H97.4654ZM97.6224 14.7874C97.6494 14.7874 97.6914 14.7989 97.7284 14.8353C97.7644 14.8714 97.7794 14.9162 97.7794 14.9507H96.7794C96.7794 15.4217 97.1524 15.7874 97.6224 15.7874V14.7874ZM97.7794 14.9507V10.6314H96.7794V14.9507H97.7794ZM97.7794 10.6314C97.7794 9.8182 97.5464 8.9871 97.0514 8.3472C96.5464 7.6938 95.7834 7.2608 94.7974 7.2608V8.2608C95.4584 8.2608 95.9364 8.5387 96.2604 8.9586C96.5954 9.3918 96.7794 9.996 96.7794 10.6314H97.7794ZM94.7974 7.2608C93.6054 7.2608 92.7064 7.7322 92.1374 8.5527C91.5854 9.3471 91.3824 10.4103 91.4234 11.5441L92.4224 11.5084C92.3864 10.4937 92.5754 9.6741 92.9584 9.123C93.3234 8.5979 93.8994 8.2608 94.7974 8.2608V7.2608ZM91.4224 11.5263C91.4224 11.5688 91.4274 11.6088 91.4284 11.6237C91.4314 11.6492 91.4324 11.6536 91.4324 11.6627C91.4334 11.6727 91.4314 11.6549 91.4334 11.6253C91.4354 11.6098 91.4384 11.5755 91.4524 11.5323C91.4654 11.4915 91.4964 11.4122 91.5724 11.3378L92.2724 12.0514C92.3544 11.9716 92.3894 11.8843 92.4054 11.8337C92.4224 11.7808 92.4284 11.7348 92.4304 11.7063C92.4354 11.6507 92.4314 11.6014 92.4294 11.5781C92.4274 11.554 92.4234 11.5235 92.4234 11.5164C92.4214 11.4986 92.4224 11.5082 92.4224 11.5263H91.4224ZM91.4224 11.6946V14.9418H92.4224V11.6946H91.4224ZM91.4224 14.9418C91.4224 14.91 91.4334 14.8787 91.4544 14.8519C91.4774 14.8232 91.5154 14.7968 91.5644 14.7891L91.7214 15.7767C92.1594 15.7071 92.4224 15.3223 92.4224 14.9418H91.4224ZM91.5664 14.7888C91.5834 14.7862 91.6264 14.7884 91.6694 14.824C91.7124 14.8596 91.7324 14.9101 91.7324 14.9507H90.7324C90.7324 15.4897 91.2064 15.8561 91.7194 15.7771L91.5664 14.7888ZM91.7324 14.9507V7.5791H90.7324V14.9507H91.7324ZM91.7324 7.5791C91.7324 7.6108 91.7214 7.641 91.7014 7.6669C91.6794 7.6942 91.6414 7.7228 91.5884 7.7315L91.4264 6.7446C90.9924 6.8157 90.7324 7.2025 90.7324 7.5791H91.7324ZM91.5834 7.7322C91.5674 7.7347 91.5244 7.7325 91.4814 7.697C91.4374 7.6613 91.4184 7.6108 91.4184 7.5703H92.4184C92.4184 7.0313 91.9444 6.6649 91.4314 6.7439L91.5834 7.7322ZM91.4184 7.5703V8.8018H92.4184V7.5703H91.4184ZM92.3524 9.0495C92.8624 8.155 93.7604 7.5874 94.7924 7.5874V6.5874C93.3704 6.5874 92.1564 7.3755 91.4834 8.5541L92.3524 9.0495ZM94.7924 7.5874C95.9574 7.5874 96.8644 8.2998 97.2444 9.3992L98.1894 9.0727C97.6854 7.6116 96.4264 6.5874 94.7924 6.5874V7.5874ZM98.1734 9.4411C98.6744 8.327 99.6234 7.5874 100.812 7.5874V6.5874C99.1494 6.5874 97.8884 7.6375 97.2614 9.0308L98.1734 9.4411ZM100.812 7.5874C102.467 7.5874 103.485 8.9785 103.485 10.6314H104.485C104.485 8.6163 103.192 6.5874 100.812 6.5874V7.5874Z" fill="white"/>
</svg>
