<svg width="83" height="16" viewBox="0 0 83 16" fill="none" xmlns="http://www.w3.org/2000/svg">
<path d="M10.0117 15.7944C9.60028 15.7944 9.27112 15.4652 9.27112 15.0538C9.27112 14.6424 9.60028 14.3132 10.0117 14.3132C10.4232 14.3132 10.7523 14.6424 10.7523 15.0538C10.7523 15.4652 10.4232 15.7944 10.0117 15.7944ZM10.0117 14.1349C9.50427 14.1349 9.09283 14.5464 9.09283 15.0675C9.09283 15.575 9.50427 16.0001 10.0117 16.0001C10.5192 16.0001 10.9443 15.5887 10.9443 15.0675C10.9306 14.5464 10.5192 14.1349 10.0117 14.1349ZM13.3855 1.43513H22.5881V3.51976H15.7856V6.5507H20.3114V8.63533H15.7856V12.0366H22.8075V14.1212H13.3992V1.43513H13.3855ZM22.1218 5.09695H24.563L26.7025 11.392L28.6911 5.09695H31.0637L27.7722 14.1212H25.5779L22.1218 5.09695ZM30.7072 9.6365C30.7072 6.87985 32.6135 4.93237 35.3564 4.93237C38.0719 4.93237 39.9783 6.87985 39.9783 9.6365C39.9783 12.352 38.0308 14.2995 35.2879 14.2995C32.5724 14.2995 30.7072 12.3932 30.7072 9.6365ZM37.5645 9.69136V9.60907C37.5645 7.89474 36.7279 6.85243 35.3427 6.85243C33.9438 6.85243 33.1072 7.88102 33.1072 9.60907V9.69136C33.1072 11.3783 33.9301 12.3657 35.3016 12.3657C36.7005 12.3657 37.5645 11.3783 37.5645 9.69136ZM41.0617 1.25684H43.4481V14.1212H41.0617V1.25684ZM44.8059 10.5142V5.09695H47.1785V10.3771C47.1785 11.584 47.7545 12.2834 48.8243 12.2834C50.0723 12.2834 50.5797 11.2274 50.5797 9.67765V5.08323H52.9524V14.1075H50.5797V12.832C50.0997 13.7646 49.2768 14.2858 48.1111 14.2858C46.0676 14.2995 44.8059 12.8457 44.8059 10.5142ZM55.1193 11.7348V7.017H53.8438V5.11066H55.1193V3.39633L57.4371 2.09343V5.09695H59.22V7.00328H57.4234V11.5017C57.4234 11.9406 57.6291 12.1326 58.0679 12.1463H59.124V14.1212H57.2862C55.5444 14.0389 55.1604 13.2297 55.1193 11.7348ZM60.2897 1.47627H62.7584V3.79405H60.2897V1.47627ZM60.3309 5.09695H62.7172V14.1212H60.3309V5.09695ZM63.8007 9.6365C63.8007 6.87985 65.707 4.93237 68.45 4.93237C71.1655 4.93237 73.0718 6.87985 73.0718 9.6365C73.0718 12.352 71.1243 14.2995 68.3814 14.2995C65.6796 14.2995 63.8007 12.3932 63.8007 9.6365ZM70.6717 9.69136V9.60907C70.6717 7.89474 69.8351 6.85243 68.45 6.85243C67.0511 6.85243 66.2145 7.88102 66.2145 9.60907V9.69136C66.2145 11.3783 67.0373 12.3657 68.4088 12.3657C69.8077 12.3657 70.6717 11.3783 70.6717 9.69136ZM74.1415 5.09695H76.5142V6.56442C76.9942 5.50839 77.8719 4.90494 79.1474 4.90494C81.1223 4.90494 82.2881 6.22155 82.2881 8.70391V14.1212H79.9154V8.84105C79.9154 7.5793 79.4354 6.93471 78.3245 6.93471C77.1999 6.93471 76.5142 7.85359 76.5142 9.5405V14.1349H74.1415V5.09695ZM9.65513 14.9029H9.51799V14.8069H9.91571V14.9029H9.77857V15.3007H9.65513V14.9029ZM9.95686 14.8207H10.1351L10.2174 15.1361L10.3134 14.8207H10.4917V15.3007H10.382V14.9167L10.2586 15.3007H10.1626L10.0391 14.9167V15.3007H9.94314V14.8207H9.95686ZM8.5031 7.33244C9.24369 7.35987 10.0529 7.33244 10.9443 7.26387C10.8209 5.46724 10.2311 3.97234 9.35341 2.82031C9.39455 3.13575 9.42198 3.4649 9.42198 3.79405C9.40827 5.08323 9.07912 6.29012 8.5031 7.33244ZM8.18766 7.8536C6.87105 9.82851 4.62185 11.1314 2.07092 11.1314C1.89263 11.1314 1.71433 11.1177 1.53604 11.104C0.877739 12.1051 0.466299 13.216 0 14.2584C4.5807 16.6996 10.4917 14.1212 10.9443 7.89474C9.91571 7.82617 9.01054 7.81245 8.18766 7.8536Z" fill="white"/>
<path d="M0 0.913856C1.27547 3.78022 2.22178 7.14032 8.5031 7.34604C9.07912 6.29001 9.42198 5.08312 9.42198 3.79394C9.42198 3.46479 9.39455 3.14935 9.35341 2.8202C7.18649 -0.0187424 3.25038 -0.827908 0 0.913856Z" fill="white"/>
<path d="M8.18775 7.85352C4.41622 8.04552 2.63331 9.41699 1.53613 11.1176C1.71442 11.1313 1.89271 11.145 2.071 11.145C4.62194 11.1313 6.87114 9.82843 8.18775 7.85352Z" fill="white"/>
</svg>
