<svg width="70" height="16" viewBox="0 0 70 16" fill="none" xmlns="http://www.w3.org/2000/svg">
<path d="M55.8433 0.116924C57.0814 -0.0989259 58.348 0.0599072 59.5983 0.0110355C60.5635 -0.0161155 61.6319 -0.0296909 62.4261 0.612429C63.4212 1.35636 63.6696 2.756 63.3261 3.90041C62.532 6.48654 61.7066 9.06452 60.907 11.6506C60.216 14.1526 57.7276 16.079 55.113 15.9975C54.1179 15.9962 53.1228 15.9975 52.1291 15.9975C51.3675 15.9948 50.5598 15.8943 49.938 15.4165C48.8995 14.6875 48.628 13.2526 48.985 12.0905C49.7887 9.47721 50.6181 6.87072 51.43 4.2588C52.0191 2.22112 53.7962 0.611071 55.8433 0.116924ZM55.5868 4.19364C54.7763 6.83 53.9455 9.46092 53.1215 12.0918C54.3175 12.0932 55.5121 12.0946 56.7095 12.0918C57.5294 9.45549 58.3589 6.82185 59.1788 4.18549C57.9815 4.19092 56.7841 4.17599 55.5868 4.19364Z" fill="white"/>
<path d="M38.8155 4.5209C39.478 2.04881 41.9393 0.110228 44.5281 0.244626C46.8658 0.254128 49.2021 0.24191 51.5398 0.252771C51.1366 1.5533 50.7185 2.85112 50.314 4.15165C47.8514 4.14893 45.3874 4.15708 42.9248 4.14757C42.0845 6.79479 41.2537 9.44608 40.4147 12.0933C41.7153 12.0933 43.0158 12.0933 44.3163 12.0933C44.5254 11.4145 44.7426 10.7371 44.9571 10.0583C44.3 10.0556 43.6443 10.057 42.9886 10.057C43.385 8.76595 43.8059 7.48171 44.2009 6.19068C46.0988 6.18525 47.9953 6.18661 49.8931 6.18932C49.3908 7.75186 48.9062 9.31983 48.4093 10.8837C48.1419 11.7078 47.9369 12.5657 47.4685 13.3056C46.5468 14.841 44.8702 16.0207 43.0334 15.999C41.7207 15.9935 40.4079 16.0003 39.0952 15.9949C38.168 15.999 37.2014 15.5903 36.695 14.7894C36.1683 13.9911 36.1575 12.9581 36.4358 12.0689C37.2272 9.55197 38.0282 7.03915 38.8155 4.5209Z" fill="white"/>
<path d="M1.16749 5.98825C1.51502 4.27367 3.11693 2.87132 4.88174 2.86182C15.7883 2.86317 26.6935 2.86182 37.6 2.86182C37.3 3.51887 37.1099 4.21936 36.8913 4.90628C36.2058 7.07429 35.5257 9.24365 34.836 11.4103C34.6175 12.0782 34.5197 12.7828 34.5441 13.486C24.296 13.4846 14.0479 13.4833 3.79842 13.486C2.92823 13.4806 1.98745 13.5634 1.20686 13.0991C0.526728 12.7244 0.115392 11.99 0 11.2379V10.4641C0.35432 8.96263 0.78602 7.48155 1.16749 5.98825ZM5.72885 4.69315C5.06094 6.80821 4.39166 8.92326 3.72782 11.0397C4.27084 11.041 4.81386 11.041 5.35552 11.041C5.51707 10.5184 5.68133 9.99709 5.84967 9.47714C6.38319 9.47443 6.91535 9.49886 7.4475 9.469C8.40729 9.42963 9.27748 8.71692 9.54491 7.80057C9.72547 7.16388 10.001 6.5462 10.0839 5.88643C10.1599 5.28504 9.66031 4.7203 9.05891 4.70537C7.9498 4.67278 6.83797 4.70537 5.72885 4.69315ZM11.1767 4.69722C10.5196 6.81364 9.84222 8.92326 9.18381 11.0397C10.7816 11.0424 12.3781 11.041 13.9759 11.041C14.3099 9.97808 14.6507 8.91648 14.9778 7.85216C14.4348 7.8508 13.8931 7.8508 13.3501 7.8508C13.1859 8.38432 13.0189 8.91648 12.8478 9.44728C12.336 9.44456 11.8229 9.44456 11.3111 9.44728C11.8093 7.86166 12.3116 6.27876 12.8098 4.69451C12.2654 4.69315 11.7211 4.69315 11.1767 4.69722ZM17.8409 4.74066C17.0182 4.928 16.3259 5.58913 16.0964 6.40094C15.6104 7.94855 15.1217 9.49343 14.6371 11.041C15.1801 11.041 15.7231 11.041 16.2675 11.0397C16.4277 10.5184 16.5892 9.99844 16.7576 9.47986C17.2707 9.47986 17.7825 9.47986 18.2957 9.4785C18.13 9.99844 17.9644 10.5184 17.8056 11.041C18.3486 11.041 18.8916 11.041 19.4346 11.041C19.9179 9.46628 20.4284 7.89967 20.9157 6.32628C21.061 5.89458 21.0433 5.35699 20.689 5.02846C20.3659 4.67414 19.8528 4.69043 19.4129 4.69043C18.8889 4.70265 18.3608 4.65649 17.8409 4.74066ZM22.1755 4.69586C21.8647 5.70588 21.5402 6.71318 21.2225 7.72048C21.0854 8.13724 21.0243 8.63275 21.2958 9.01015C21.5008 9.33867 21.904 9.41198 22.2502 9.50429C22.0805 10.0147 21.9203 10.5279 21.7615 11.041C22.3045 11.041 22.8462 11.041 23.3892 11.041C23.5507 10.5265 23.7123 10.012 23.8793 9.50022C24.8119 9.40384 25.6875 8.7685 25.9767 7.86166C26.3106 6.80821 26.6419 5.75475 26.9704 4.69994C26.4247 4.69043 25.8803 4.69043 25.3345 4.70401C25.0128 5.76697 24.6721 6.82314 24.3408 7.88338C23.829 7.88474 23.3159 7.88474 22.8041 7.8861C23.134 6.82042 23.4747 5.75882 23.8032 4.69315C23.2602 4.69451 22.7172 4.69315 22.1755 4.69586ZM27.8691 4.86691C27.6478 5.48324 27.4428 6.10635 27.2378 6.72947C27.9451 6.73218 28.6537 6.73218 29.3624 6.73083C29.566 6.10771 29.7914 5.49274 29.9936 4.86963C29.285 4.86148 28.5764 4.86284 27.8691 4.86691ZM30.4267 6.71454C29.7574 6.99283 29.2008 7.5725 29.0135 8.28114C28.7433 9.2002 28.4813 10.122 28.2085 11.041C28.7501 11.041 29.2932 11.041 29.8348 11.041C30.1213 10.0799 30.3941 9.11604 30.6833 8.15625C31.1951 8.15625 31.7069 8.15625 32.2187 8.15761C31.9417 9.11875 31.6526 10.0758 31.3797 11.0383C31.9214 11.0424 32.463 11.041 33.0047 11.041C33.2748 10.1003 33.5586 9.16219 33.8287 8.22006C33.959 7.77749 33.9618 7.23583 33.6102 6.89102C33.2355 6.51769 32.6667 6.56521 32.1807 6.5557C31.5956 6.57199 30.9847 6.49733 30.4267 6.71454Z" fill="white"/>
<path d="M65.0952 2.86186C66.1107 2.91209 67.2089 2.6813 68.147 3.18631C68.895 3.56507 69.3932 4.33615 69.5073 5.15883V5.94213C69.1584 7.43136 68.6941 8.89208 68.3072 10.3718C67.98 11.7443 66.8913 12.8887 65.55 13.3109C64.4056 13.6245 63.2015 13.4317 62.0312 13.4847C62.4059 12.7557 62.6082 11.9574 62.8539 11.1809C63.4988 9.10657 64.1436 7.0336 64.7911 4.96198C65.0084 4.28457 65.1224 3.57457 65.0952 2.86186Z" fill="white"/>
<path d="M6.84902 6.29236C7.36353 6.28829 7.87668 6.28829 8.39119 6.29236C8.22422 6.82316 8.05588 7.35261 7.8889 7.88476C7.37711 7.88476 6.86531 7.88476 6.35352 7.88341C6.51506 7.35261 6.6834 6.8218 6.84902 6.29236Z" fill="white"/>
<path d="M17.764 6.28979C18.2772 6.28979 18.789 6.28979 19.3021 6.28979C19.1324 6.81924 18.9641 7.35004 18.8012 7.8822C18.288 7.88491 17.7749 7.88491 17.2617 7.88627C17.4233 7.35275 17.5902 6.8206 17.764 6.28979Z" fill="white"/>
</svg>
