<svg xmlns="http://www.w3.org/2000/svg" width="25" height="24"><path d="M18.094 13.66a.666.666 0 00-.195.605l.779 4.391a1.123 1.123 0 01-.916 1.3 1.135 1.135 0 01-.714-.108l-4.037-2.073a.712.712 0 00-.647 0L8.34 19.872a1.132 1.132 0 01-1.523-.474 1.116 1.116 0 01-.113-.708l.752-4.4a.673.673 0 00-.2-.6l-3.242-3.095a1.118 1.118 0 01-.032-1.586 1.13 1.13 0 01.65-.333l4.486-.656a.686.686 0 00.518-.373l2.002-4.022a1.132 1.132 0 012.02-.007l2.03 4.014a.704.704 0 00.523.373l4.485.628a1.12 1.12 0 01.628 1.917l-3.23 3.11z" fill="#707688"/></svg>