<svg width="24" height="24" viewBox="0 0 24 24" fill="none" xmlns="http://www.w3.org/2000/svg">
<path fill-rule="evenodd" clip-rule="evenodd" d="M18.1729 7.04644C17.8941 5.57214 17.3141 4.45156 16.2773 3.74337C15.2608 3.04903 13.9238 2.83511 12.3197 2.89104C12.0837 2.89927 11.7023 3.08611 11.5288 3.24937C8.62076 5.98634 7.3333 8.73383 7.05412 12.7995C6.9921 12.7912 6.92825 12.7819 6.86209 12.7715C5.93329 12.625 4.57234 12.5513 3.65015 13.5995C2.65202 14.734 2.54424 16.2736 2.91426 17.5835C3.50248 19.6658 5.22863 21.0565 7.38091 21.257C7.44529 21.2738 7.51316 21.2823 7.58317 21.2811C7.62328 21.2805 7.66327 21.2794 7.70312 21.2779C7.74298 21.2794 7.78297 21.2805 7.82308 21.2811C7.89309 21.2823 7.96096 21.2738 8.02534 21.257C9.74138 21.0971 11.1865 20.1806 12 18.7602C12.8135 20.1806 14.2586 21.0971 15.9747 21.257C16.039 21.2738 16.1069 21.2823 16.1769 21.2811C16.217 21.2805 16.257 21.2794 16.2969 21.2779C16.3367 21.2794 16.3767 21.2805 16.4168 21.2811C16.4868 21.2823 16.5547 21.2738 16.6191 21.257C18.7714 21.0565 20.4975 19.6657 21.0857 17.5835C21.4558 16.2736 21.348 14.734 20.3498 13.5995C19.4277 12.5513 18.0667 12.625 17.1379 12.7715C17.0165 12.7906 16.9028 12.8061 16.7939 12.8178C15.6994 11.5804 15.0279 10.6226 14.4101 9.46105C15.455 10.0556 16.7465 10.3445 18.2173 10.2806C18.4896 10.2688 18.7293 10.0971 18.8281 9.84304C18.9112 9.62965 18.8817 9.39199 18.7559 9.20713C18.7426 9.17486 18.7235 9.12292 18.6989 9.04871C18.6473 8.89244 18.5855 8.67972 18.5201 8.43843C18.3915 7.96412 18.2578 7.41369 18.1729 7.04644ZM14.9043 12.7045C12.881 10.1579 12.0581 8.00232 11.5365 5.20453C9.58551 7.37758 8.67046 9.56911 8.43335 12.7882C8.4696 12.783 8.5065 12.7774 8.54416 12.7715C9.47296 12.625 10.8339 12.5513 11.7561 13.5995C11.8442 13.6997 11.9255 13.8031 12 13.9091C12.0745 13.8031 12.1558 13.6997 12.2439 13.5995C12.9963 12.7443 14.0408 12.6359 14.9043 12.7045ZM12.9965 4.25957C12.989 5.62721 13.4152 6.74581 14.1551 7.53303C14.8481 8.27025 15.8707 8.77465 17.2179 8.88948C17.2096 8.85927 17.2013 8.82885 17.193 8.79829C17.0568 8.29592 16.9171 7.71975 16.83 7.34212C16.8278 7.33285 16.8259 7.32354 16.8241 7.3142C16.5863 6.04559 16.1367 5.31247 15.5018 4.87878C14.9405 4.49542 14.1435 4.28206 12.9965 4.25957ZM19.2454 14.5176C18.8718 14.093 18.26 14.0257 17.3706 14.1659C16.5496 14.2953 16.0714 14.2996 15.2232 14.1659C14.3337 14.0257 13.722 14.093 13.3484 14.5176C12.7584 15.1882 12.6229 16.195 12.9094 17.2094C13.3523 18.7771 14.6494 19.7816 16.2969 19.8639C17.9443 19.7816 19.2415 18.7771 19.6843 17.2094C19.9709 16.195 19.8353 15.1882 19.2454 14.5176ZM10.6516 14.5176C10.278 14.093 9.66628 14.0257 8.77682 14.1659C7.92859 14.2996 7.45041 14.2953 6.62943 14.1659C5.73998 14.0257 5.12822 14.093 4.75463 14.5176C4.16468 15.1882 4.02911 16.195 4.31567 17.2094C4.75851 18.7771 6.05565 19.7816 7.70312 19.8639C9.3506 19.7816 10.6477 18.7771 11.0906 17.2094C11.3771 16.195 11.2416 15.1882 10.6516 14.5176Z" fill="url(#paint0_linear_836_4471)"/>
<defs>
<linearGradient id="paint0_linear_836_4471" x1="0.696578" y1="13.6918" x2="23.5963" y2="17.0724" gradientUnits="userSpaceOnUse">
<stop stop-color="#815E00"/>
<stop offset="0.515625" stop-color="#FFE9AF"/>
<stop offset="1" stop-color="#815E00"/>
</linearGradient>
</defs>
</svg>
