<svg width="24" height="24" viewBox="0 0 24 24" fill="none" xmlns="http://www.w3.org/2000/svg">
    <path fill-rule="evenodd" clip-rule="evenodd" d="M19.3331 13.8336C19.3332 12.3649 18.6148 10.7278 17.3624 9.34209C15.8096 7.62405 14.8868 6.11166 14.3861 5.14542C14.3093 4.99727 14.2399 4.85708 14.1772 4.72556C13.797 3.92801 13.6659 3.44914 13.6647 3.4447L13.5033 2.83331C12.8474 3.12637 12.2729 3.50181 11.7819 3.94065C11.7813 3.94121 11.7806 3.94177 11.78 3.94232C11.7659 3.95498 11.7518 3.96768 11.7378 3.98044C10.4236 5.17754 9.72074 6.83427 9.67262 8.57566C9.63666 9.8771 9.96636 11.2258 10.6798 12.4653C9.59943 11.9022 8.75426 11.0988 8.1627 10.0387C7.97555 9.70334 7.81378 9.34228 7.67798 8.955C7.54376 8.57221 7.4349 8.16381 7.35198 7.72932C7.31391 7.78189 7.27587 7.83439 7.23787 7.88682C6.75971 8.54661 6.28926 9.19576 5.88415 9.87034C5.1674 11.0639 4.6552 12.337 4.66669 13.8895C4.69243 18.7036 8.34611 21.1455 11.9998 21.1665C15.6744 21.1876 19.3491 18.7599 19.3331 13.8336ZM7.04583 11.976C7.75432 12.9071 8.65934 13.6676 9.75539 14.2389C10.5435 14.6496 11.5081 14.4911 12.1232 13.8497C12.7384 13.2083 12.8565 12.2379 12.4132 11.4676C11.3153 9.56018 11.4683 7.464 12.5839 6.01437C12.5926 6.03136 12.6014 6.04843 12.6103 6.06559L12.6104 6.06568C13.1807 7.16613 14.1981 8.82373 15.8786 10.6831C16.8922 11.8046 17.3331 12.9841 17.3331 13.8336L17.3331 13.8401C17.3394 15.7622 16.6454 17.0415 15.7236 17.8589C14.7638 18.7098 13.423 19.1747 12.0113 19.1665C10.6078 19.1585 9.26542 18.6833 8.29791 17.8274C7.36674 17.0037 6.67661 15.7381 6.66667 13.8788L6.66664 13.8746C6.66158 13.191 6.79466 12.5832 7.04583 11.976Z" fill="url(#paint0_linear_836_4476)"/>
    <defs>
        <linearGradient id="paint0_linear_836_4476" x1="3.06874" y1="13.6041" x2="21.3068" y2="15.739" gradientUnits="userSpaceOnUse">
            <stop stop-color="#815E00"/>
            <stop offset="0.515625" stop-color="#FFE9AF"/>
            <stop offset="1" stop-color="#815E00"/>
        </linearGradient>
    </defs>
</svg>
