<svg width="24" height="24" viewBox="0 0 24 24" fill="none" xmlns="http://www.w3.org/2000/svg">
<path d="M5.45406 7.42093C5.22504 6.92706 5.11053 6.44035 5.11768 5.925C5.13915 4.09266 6.79957 2.63968 8.62461 2.85441C10.1276 3.02619 11.1224 3.90657 11.8453 5.1663C11.8882 5.23788 11.924 5.30945 11.9669 5.38818C11.9741 5.39534 11.9884 5.4025 12.0099 5.40966C12.0528 5.33092 12.0957 5.25935 12.1387 5.18062C12.6683 4.22866 13.384 3.4628 14.4289 3.06913C15.982 2.48221 17.6424 3.03335 18.4368 4.40044C18.9665 5.31661 19.0094 6.27572 18.6086 7.25631C18.5871 7.30641 18.5657 7.34936 18.537 7.42809C18.7374 7.42809 18.9092 7.42809 19.0881 7.42809C20.2977 7.42809 21.1637 8.29416 21.1637 9.50379C21.1637 10.2482 21.1708 10.9926 21.1637 11.7369C21.1493 12.4885 20.813 13.0611 20.1688 13.4476C20.0543 13.512 20.0185 13.5764 20.0185 13.7124C20.0257 15.5161 20.0257 17.327 20.0185 19.1307C20.0185 20.1041 19.403 20.8915 18.4726 21.1062C18.308 21.1492 18.1291 21.1635 17.9573 21.1635C13.9852 21.1635 10.0131 21.1706 6.04093 21.1635C4.85287 21.1635 3.98688 20.2902 3.98688 19.1092C3.98688 17.3127 3.98688 15.5161 3.98688 13.7268C3.98688 13.5979 3.95825 13.5192 3.83658 13.4476C3.19245 13.0611 2.85607 12.4885 2.84176 11.7369C2.82745 10.9711 2.8346 10.2124 2.84176 9.44653C2.84892 8.30847 3.72207 7.44241 4.86719 7.42809C5.04611 7.42093 5.23219 7.42093 5.45406 7.42093ZM5.69024 13.7268C5.69024 13.7983 5.69024 13.8556 5.69024 13.9128C5.69024 15.6164 5.69024 17.327 5.69024 19.0305C5.69024 19.3598 5.77613 19.4457 6.09819 19.4457C7.70851 19.4457 9.31883 19.4457 10.9292 19.4457C10.9936 19.4457 11.058 19.4457 11.1152 19.4457C11.1152 17.5274 11.1152 15.6307 11.1152 13.7268C9.31168 13.7268 7.51527 13.7268 5.69024 13.7268ZM12.8615 13.7268C12.8615 15.6378 12.8615 17.5346 12.8615 19.4457C12.9331 19.4457 12.9904 19.4457 13.0548 19.4457C14.6579 19.4457 16.2611 19.4457 17.8643 19.4457C18.2078 19.4457 18.2865 19.3669 18.2865 19.0305C18.2865 17.327 18.2865 15.6164 18.2865 13.9128C18.2865 13.8556 18.2865 13.7983 18.2865 13.7268C16.4687 13.7268 14.6723 13.7268 12.8615 13.7268ZM11.1152 12.0018C11.1152 11.0498 11.1152 10.0979 11.1152 9.14591C11.0866 9.14591 11.0651 9.13875 11.0437 9.13875C8.98961 9.13875 6.93556 9.13875 4.87434 9.13875C4.64532 9.13875 4.54512 9.25327 4.54512 9.48947C4.54512 10.1981 4.54512 10.9067 4.54512 11.6153C4.54512 11.9087 4.63816 11.9946 4.9316 11.9946C6.01946 11.9946 7.10017 11.9946 8.18803 11.9946C9.15422 12.0018 10.1276 12.0018 11.1152 12.0018ZM12.8544 11.9946C12.8973 11.9946 12.9188 12.0018 12.9403 12.0018C14.9872 12.0018 17.0412 12.0018 19.0881 12.0018C19.3243 12.0018 19.4245 11.8944 19.4245 11.6654C19.4245 10.9639 19.4245 10.2625 19.4245 9.55389C19.4245 9.22464 19.3386 9.13875 19.0166 9.13875C17.0269 9.13875 15.0373 9.13875 13.0476 9.13875C12.9832 9.13875 12.9188 9.13875 12.8544 9.13875C12.8544 10.0979 12.8544 11.0427 12.8544 11.9946ZM10.9077 7.41378C10.65 6.55487 10.328 5.75322 9.67668 5.13051C9.34746 4.81558 8.96099 4.62948 8.50294 4.56506C7.67273 4.45054 6.9284 5.01599 6.83536 5.83911C6.74948 6.62644 7.35782 7.37799 8.15225 7.40662C9.06834 7.44241 9.97012 7.41378 10.9077 7.41378ZM13.0691 7.41378C14.0067 7.41378 14.9084 7.43525 15.8174 7.40662C16.5259 7.38515 17.1056 6.77675 17.1414 6.06815C17.1772 5.34524 16.6905 4.70822 15.9891 4.57938C15.3379 4.46486 14.7725 4.67243 14.3073 5.12335C13.6488 5.75322 13.3267 6.55487 13.0691 7.41378Z" fill="url(#paint0_linear_836_4481)"/>
<defs>
<linearGradient id="paint0_linear_836_4481" x1="0.836289" y1="13.6041" x2="23.4618" y2="16.9148" gradientUnits="userSpaceOnUse">
<stop stop-color="#815E00"/>
<stop offset="0.515625" stop-color="#FFE9AF"/>
<stop offset="1" stop-color="#815E00"/>
</linearGradient>
</defs>
</svg>
