<svg width="16" height="16" viewBox="0 0 16 16" fill="none" xmlns="http://www.w3.org/2000/svg">
<path fill-rule="evenodd" clip-rule="evenodd" d="M0 8C0 12.4183 3.58172 16 8 16C12.4183 16 16 12.4183 16 8C16 3.58172 12.4183 0 8 0C3.58172 0 0 3.58172 0 8ZM14.9333 7.99998C14.9333 11.8292 11.8292 14.9333 8.00001 14.9333C4.17084 14.9333 1.06668 11.8292 1.06668 7.99998C1.06668 4.17081 4.17084 1.06665 8.00001 1.06665C11.8292 1.06665 14.9333 4.17081 14.9333 7.99998Z" fill="white"/>
<path d="M6.07346 9.39066V10H3.08696V9.48003L4.49925 8.11239C4.64118 7.96976 4.75312 7.84428 4.83508 7.73595C4.91704 7.62582 4.97601 7.52742 5.01199 7.44076C5.04998 7.35229 5.06897 7.26834 5.06897 7.1889C5.06897 7.06974 5.04698 6.96773 5.003 6.88287C4.95902 6.79621 4.89405 6.72941 4.8081 6.68246C4.72414 6.63552 4.62019 6.61205 4.49625 6.61205C4.36432 6.61205 4.25037 6.64094 4.15442 6.69871C4.06047 6.75649 3.98851 6.83683 3.93853 6.93974C3.89055 7.04265 3.86657 7.15911 3.86657 7.2891H3C3 7.05439 3.06197 6.83954 3.18591 6.64455C3.30985 6.44775 3.48476 6.29158 3.71064 6.17603C3.93653 6.05868 4.2044 6 4.51424 6C4.82009 6 5.07796 6.04514 5.28786 6.13541C5.49975 6.22388 5.65967 6.35206 5.76762 6.51997C5.87756 6.68608 5.93253 6.88468 5.93253 7.11578C5.93253 7.24577 5.90955 7.37305 5.86357 7.49763C5.81759 7.6204 5.75162 7.74317 5.66567 7.86594C5.58171 7.98691 5.47976 8.10968 5.35982 8.23426C5.23988 8.35884 5.10695 8.48793 4.96102 8.62153L4.2024 9.39066H6.07346Z" fill="white"/>
<path d="M8.71814 6.04875V10H7.85457V6.94787L6.81709 7.24577V6.63101L8.62519 6.04875H8.71814Z" fill="white"/>
<path d="M13 7.80366V8.48341H10.0075V7.80366H13ZM11.9145 6.73392V9.6046H11.096V6.73392H11.9145Z" fill="white"/>
</svg>
