<svg width="38" height="16" viewBox="0 0 38 16" fill="none" xmlns="http://www.w3.org/2000/svg">
<path fill-rule="evenodd" clip-rule="evenodd" d="M6.93469 3.15436C3.68282 3.15436 1.0371 5.80872 1.0371 9.07159C1.0371 12.3343 3.68282 14.9889 6.93469 14.9889H31.5168C34.7684 14.9889 37.4143 12.3343 37.4143 9.07159C37.4143 5.80872 34.7684 3.15436 31.5168 3.15436H6.93469ZM31.5172 15.493H6.93506C3.40614 15.493 0.535156 12.6122 0.535156 9.07159C0.535156 5.53099 3.40614 2.65039 6.93506 2.65039H31.5172C35.0461 2.65039 37.9171 5.53099 37.9171 9.07159C37.9171 12.6122 35.0461 15.493 31.5172 15.493Z" fill="white"/>
<path fill-rule="evenodd" clip-rule="evenodd" d="M28.5679 8.10193C28.0784 8.10193 27.6811 7.70395 27.6811 7.21267C27.6811 6.72091 28.0784 6.32281 28.5679 6.32281C29.0575 6.32281 29.4548 6.72091 29.4548 7.21267C29.4548 7.70395 29.0575 8.10193 28.5679 8.10193ZM28.5679 5.47827C27.6137 5.47827 26.8398 6.25477 26.8398 7.21268C26.8398 8.1701 27.6137 8.94599 28.5679 8.94599C29.5228 8.94599 30.2961 8.1701 30.2961 7.21268C30.2961 6.25477 29.5228 5.47827 28.5679 5.47827Z" fill="white"/>
<path fill-rule="evenodd" clip-rule="evenodd" d="M20.6419 8.10193C20.1528 8.10193 19.7557 7.70395 19.7557 7.21267C19.7557 6.72091 20.1528 6.32281 20.6419 6.32281C21.132 6.32281 21.5288 6.72091 21.5288 7.21267C21.5288 7.70395 21.132 8.10193 20.6419 8.10193ZM20.642 5.47827C19.6878 5.47827 18.9141 6.25477 18.9141 7.21268C18.9141 8.1701 19.6878 8.94599 20.642 8.94599C21.5969 8.94599 22.3708 8.1701 22.3708 7.21268C22.3708 6.25477 21.5969 5.47827 20.642 5.47827Z" fill="white"/>
<path fill-rule="evenodd" clip-rule="evenodd" d="M26.7284 8.15047C26.6191 8.18237 26.4519 8.21379 26.3883 8.21379C26.093 8.21379 26.0287 8.11167 26.0287 7.82802V6.22608H26.7353V5.55665H26.0287V4.61035H25.2336L25.0666 5.55665H24.5127V5.55714H24.4676C24.0147 5.55931 23.6731 5.83656 23.454 6.27079L23.1775 5.55665H22.6074V8.88382H23.5818V7.43621C23.5818 6.7066 24.0115 6.24046 24.5208 6.22608H25.0538V7.88011C25.0538 8.65866 25.4515 8.94824 26.0992 8.94824C26.4335 8.94824 26.6897 8.87741 26.8434 8.82629L26.7284 8.15047Z" fill="white"/>
<path fill-rule="evenodd" clip-rule="evenodd" d="M31.4766 6.60905V8.88356H30.5293V5.5564H31.1042L31.2969 6.0646" fill="white"/>
<path fill-rule="evenodd" clip-rule="evenodd" d="M31.293 6.06793C31.581 5.73268 31.975 5.47876 32.4366 5.47876C33.2258 5.47876 33.5505 6.10999 33.5505 6.69542V8.88376H32.575V6.72358C32.575 6.43836 32.3384 6.28354 32.0817 6.28354C31.8085 6.28354 31.6329 6.44053 31.4786 6.60816" fill="white"/>
<path fill-rule="evenodd" clip-rule="evenodd" d="M15.1133 4.35205H16.1991L17.6901 7.20135V4.35205H18.5894V8.88415H17.6057L16.013 5.7512V8.88415H15.1133V4.35205Z" fill="white"/>
<path fill-rule="evenodd" clip-rule="evenodd" d="M14.8418 12.9004L15.0672 12.5487C15.2503 12.6844 15.525 12.8105 15.8601 12.8105C16.1859 12.8105 16.3869 12.6624 16.3869 12.4053C16.3869 12.1096 16.1329 12.0313 15.7154 11.8855C15.341 11.7536 14.9729 11.5641 14.9729 11.0319C14.9729 10.5333 15.3648 10.2617 15.8921 10.2617C16.2426 10.2617 16.5009 10.331 16.7089 10.4539L16.5286 10.828C16.354 10.737 16.1455 10.6753 15.9005 10.6753C15.6067 10.6753 15.4306 10.7865 15.4306 11.0202C15.4306 11.2948 15.6348 11.3645 16.0188 11.4912C16.4193 11.6215 16.8601 11.8073 16.8601 12.3969C16.8601 12.8957 16.5047 13.2245 15.8671 13.2245C15.394 13.2245 15.0465 13.0606 14.8418 12.9004Z" fill="white"/>
<path fill-rule="evenodd" clip-rule="evenodd" d="M17.7148 10.3071H19.422V10.7052H18.2006V11.4913H19.1651V11.8808H18.2006V12.7893H19.4962V13.1868H17.7148V10.3071Z" fill="white"/>
<path fill-rule="evenodd" clip-rule="evenodd" d="M20.1924 11.7493C20.1924 10.909 20.5934 10.2625 21.3938 10.2625C21.7523 10.2625 22.0356 10.3763 22.2351 10.6094L21.9518 10.9383C21.7805 10.77 21.6352 10.6876 21.4018 10.6876C20.9319 10.6876 20.7149 11.0734 20.7149 11.7861C20.7149 12.455 20.9439 12.794 21.406 12.794C21.6627 12.794 21.843 12.6588 22.0012 12.4907L22.2871 12.8105C22.0791 13.0569 21.8187 13.2245 21.4018 13.2245C20.5764 13.2245 20.1924 12.5933 20.1924 11.7493Z" fill="white"/>
<path fill-rule="evenodd" clip-rule="evenodd" d="M23.0781 12.0847V10.3071H23.5677V12.164C23.5677 12.5599 23.6654 12.819 24.0818 12.819C24.4945 12.819 24.5967 12.5599 24.5967 12.164V10.3071H25.0911V12.0847C25.0911 12.7982 24.8174 13.2246 24.078 13.2246C23.3508 13.2246 23.0781 12.7982 23.0781 12.0847Z" fill="white"/>
<path fill-rule="evenodd" clip-rule="evenodd" d="M26.9834 11.5897C27.3473 11.5897 27.5345 11.471 27.5345 11.1384C27.5345 10.8186 27.3435 10.7046 27.0119 10.7046H26.5506V11.5897H26.9834ZM28.086 13.1872H27.555L27.0039 11.9659H26.5504V13.1872H26.0645V10.3071H27.0008C27.5804 10.3071 28.033 10.5157 28.033 11.1468C28.033 11.5774 27.7757 11.7935 27.4892 11.8963L28.086 13.1872Z" fill="white"/>
<path fill-rule="evenodd" clip-rule="evenodd" d="M28.917 10.3071H30.624V10.7052H29.4023V11.4913H30.3656V11.8808H29.4023V12.7893H30.6971V13.1868H28.917V10.3071Z" fill="white"/>
<path fill-rule="evenodd" clip-rule="evenodd" d="M32.2059 12.7893C32.876 12.7893 33.1051 12.479 33.1051 11.7366C33.1051 11.0852 32.9252 10.7046 32.2663 10.7046H32.0054V12.7893H32.2059ZM31.5176 10.3071H32.2342C33.1699 10.3071 33.6196 10.8153 33.6196 11.7366C33.6196 12.6753 33.1619 13.1872 32.259 13.1872H31.5176V10.3071Z" fill="white"/>
<path fill-rule="evenodd" clip-rule="evenodd" d="M6.9055 4.33503C5.64515 4.33503 4.45961 4.82788 3.5669 5.72246C2.67527 6.61752 2.18417 7.80698 2.18417 9.0715C2.18417 10.3358 2.67527 11.5252 3.5669 12.4209C4.45901 13.3149 5.64455 13.8077 6.9055 13.8082C8.16572 13.8077 9.35126 13.3149 10.244 12.4203C11.1345 11.5252 11.6257 10.3358 11.6262 9.0715C11.6257 7.80698 11.1345 6.61752 10.2435 5.72198C9.35078 4.82788 8.16524 4.33503 6.9055 4.33503ZM6.9057 15.9999C3.09828 15.9999 0 12.8914 0 9.0715C0 5.25149 3.09828 2.14355 6.9057 2.14355C10.7126 2.14355 13.8102 5.25149 13.8108 9.0715C13.8102 12.8914 10.7126 15.9999 6.9057 15.9999Z" fill="white"/>
<path fill-rule="evenodd" clip-rule="evenodd" d="M14.4272 0.541314H14.9656V0H14.4272V0.541314ZM14.4272 1.61681H14.9656V1.07659H14.4272V1.61681ZM13.4149 2.14036H12.9121V1.61295H13.4149V2.14036Z" fill="white"/>
<path fill-rule="evenodd" clip-rule="evenodd" d="M13.8947 1.07665H14.4274V0.54126H13.8947V1.07665ZM13.9791 2.64875L13.4154 2.64874V3.1532H12.9126V2.64874L13.4153 2.64875V2.14055H13.9791V2.64875ZM12.4228 3.1532H11.9156V2.64874L11.4108 2.64875V2.16544H11.9157V2.64875L12.4228 2.64874V3.1532ZM13.8948 1.61301H12.9126V1.07666H13.8948V1.61301ZM12.423 2.64875H12.9126V1.61313H12.423V2.64875ZM12.4232 3.66152V3.1532H12.9127V4.22398H12.4789V4.64819H12.028V5.26491H11.6276L11.6286 5.77577H11.1289V5.2596H10.6182V5.77577H11.1289V6.34367H10.6239V6.93273H10.2013V7.44105H9.79917V8.0046C9.04595 9.09242 8.40993 10.4169 7.97123 11.5956C7.76488 12.1535 6.7375 12.0683 6.50827 11.5205C6.46663 11.4207 6.42485 11.3185 6.38207 11.2138C5.9797 10.229 5.48919 9.02855 4.20091 7.6071C3.58043 6.96475 4.0307 6.5565 4.40412 6.66938C5.09687 6.89611 5.97633 7.52299 7.10935 9.10463C7.42326 8.31919 8.46293 6.38996 8.87767 5.77106H9.24699V5.26491H9.5827V4.76094H10.0887V3.97115H10.6239V4.47464H11.1273V3.97115H10.6239V3.51939H11.0748V3.1532H11.9161V3.66152H12.4232Z" fill="white"/>
</svg>
