<svg width="20" height="18" viewBox="0 0 20 18" fill="none" xmlns="http://www.w3.org/2000/svg">
    <path d="M9.53109 0H17.1981C18.7306 0 19.9773 1.24689 19.9773 2.77939V15.2208C19.9773 16.7531 18.7308 18 17.1981 18H9.53109C9.32337 18 9.15479 17.8314 9.15479 17.6237V16.4948C9.15479 16.2871 9.32337 16.1185 9.53109 16.1185H17.1981C17.693 16.1185 18.0958 15.7158 18.0958 15.2208V2.7792C18.0958 2.28436 17.6933 1.88153 17.1981 1.88153H9.53109C9.32337 1.88153 9.15479 1.71294 9.15479 1.50522V0.376305C9.15479 0.168585 9.32337 0 9.53109 0Z" fill="white"/>
    <path d="M13.8239 9.28L6.87717 12.9572C6.82275 12.9858 6.762 13 6.70124 13C6.64049 13 6.57973 12.9858 6.52514 12.9567C6.41613 12.8991 6.34904 12.7927 6.34904 12.6771V10.9652H0.352206C0.157788 10.9652 0 10.8205 0 10.6423V7.35785C0 7.17962 0.157788 7.03496 0.352206 7.03496H6.34886V5.32285C6.34886 5.20758 6.41596 5.10086 6.52496 5.04323C6.63397 4.98559 6.76816 4.98559 6.87717 5.04323L13.8239 8.72092C13.9329 8.77856 14 8.88544 14 9.00054C14 9.11565 13.9329 9.22253 13.8239 9.28Z" fill="white"/>
</svg>
