<svg width="95" height="16" viewBox="0 0 95 16" fill="none" xmlns="http://www.w3.org/2000/svg">
<g clip-path="url(#clip0_10402_76760)">
<path d="M92.1841 2.25952L89.6569 8.43707C89.5847 8.50932 89.5847 8.65382 89.5847 8.72608L89.5125 8.87058L89.4403 8.72608C89.4403 8.65382 89.3681 8.50932 89.3681 8.43707L86.841 2.25952H83.5918L87.8518 12.8444L86.0467 16.8906H89.2959L95.2527 2.25952H92.1841Z" fill="white"/>
<path d="M68.2854 2.83747C67.7078 2.40396 66.9857 2.11495 66.1193 2.0427C64.6752 1.8982 63.3033 2.40396 62.3647 3.34324V2.1872H59.4404V12.7721H62.4008V7.24484C62.4008 6.01656 62.6174 5.6553 62.834 5.36629C63.195 4.78828 63.8449 4.49927 64.6391 4.49927C65.4333 4.49927 66.1554 4.86053 66.5164 5.43854C66.733 5.87206 66.8052 6.45007 66.8052 6.73908C66.8052 7.67836 66.8052 12.7721 66.8052 12.7721H69.7656V6.37782C69.7295 4.71602 69.2963 3.55999 68.2854 2.83747Z" fill="white"/>
<path d="M53.8803 2.33191C52.4362 1.82614 50.8477 1.8984 49.4037 2.54866C48.465 2.98218 47.5986 3.7047 47.0931 4.64397C46.5877 5.43874 46.3711 6.45027 46.3711 7.53405C46.3711 8.61783 46.5877 9.62936 47.0931 10.4241C47.5986 11.2189 48.2484 11.9414 49.1148 12.3749C49.9813 12.8085 50.9921 13.0975 51.9308 13.0975C52.4362 13.0975 52.9416 13.0252 53.4471 12.8807C53.8803 12.7362 54.3135 12.5917 54.7467 12.3749C55.6132 11.8692 56.3352 11.2189 56.7684 10.4241C57.2739 9.62936 57.4905 8.61783 57.4905 7.53405C57.4905 5.14974 56.1186 3.12668 53.8803 2.33191ZM54.6745 7.67856C54.6023 8.61783 54.3135 9.41261 53.7359 9.91837C53.3027 10.2796 52.6528 10.4964 51.8586 10.5686C51.0643 10.5686 50.4867 10.3519 49.9813 9.91837C49.4037 9.41261 49.1148 8.61783 49.0426 7.67856C48.9704 6.59478 49.4037 5.72775 50.1979 5.14974C50.6311 4.86073 51.2088 4.64397 51.7864 4.64397C52.4362 4.64397 52.9416 4.86073 53.4471 5.14974C54.3135 5.6555 54.7467 6.59478 54.6745 7.67856Z" fill="white"/>
<path d="M42.9419 2.8375C42.3642 2.40398 41.6422 2.11498 40.7757 2.04272C40.6313 2.04272 40.4147 2.04272 40.2703 2.04272C39.115 2.04272 38.1042 2.54849 37.2378 3.56002L37.0933 3.77677H36.8045C36.5879 3.41551 36.2991 3.12651 36.0103 2.90975C35.4327 2.47624 34.7106 2.18723 33.8442 2.11498C32.4723 1.97047 31.3892 2.40398 30.4506 3.41551V2.33173H27.4902V12.9167H30.4506V7.38937V7.24487C30.4506 6.08884 30.595 5.79983 30.8116 5.43857C31.1726 4.86055 31.8225 4.49929 32.5445 4.57155C33.2665 4.57155 33.9164 4.93281 34.2774 5.51082C34.5662 5.94433 34.5662 6.4501 34.5662 6.95586V12.8444H37.5266V7.17262C37.5266 6.08884 37.671 5.72758 37.8876 5.36632C38.2486 4.7883 38.8984 4.49929 39.6205 4.49929C40.3425 4.49929 40.9201 4.86055 41.2812 5.43857C41.4978 5.79983 41.57 6.23334 41.57 6.52235C41.57 6.66685 41.57 6.81136 41.57 6.88361V12.7722H44.5303V6.30559C44.5303 5.72758 44.4581 5.14956 44.3137 4.6438C44.0249 3.92128 43.5917 3.27101 42.9419 2.8375Z" fill="white"/>
<path d="M80.8122 9.62908C80.3789 10.0626 79.3681 10.8574 77.9962 10.9296C76.8409 11.0019 75.9745 10.6406 75.3247 9.99034C75.0358 9.70133 74.8192 9.26782 74.6748 8.83431H82.7978V8.76206C82.87 8.32855 82.9422 7.96729 82.9422 7.53377C82.9422 7.17251 82.87 6.66675 82.7256 6.01648C82.3646 4.7882 81.6425 3.84892 80.7039 3.1264C79.6208 2.33163 78.6099 2.11487 78.3211 2.11487C76.2272 1.75361 73.8445 2.69289 72.617 4.64369C71.7506 6.01648 71.8228 7.38927 71.8228 7.82278C71.8228 8.32855 71.895 9.91809 73.1946 11.3631C74.7109 13.0249 76.8048 13.0972 77.4547 13.1694C80.3428 13.2417 82.2923 11.4354 82.7256 11.0741L80.8122 9.62908ZM75.7579 5.14946C76.1911 4.86045 76.6965 4.64369 77.3464 4.64369C77.9962 4.64369 78.5016 4.86045 79.0071 5.14946C79.4403 5.51072 79.8013 5.94423 80.0179 6.44999H74.8192C74.9636 5.94423 75.2525 5.43847 75.7579 5.14946Z" fill="white"/>
<path d="M14.5171 0C10.0756 0 6.52246 3.60635 6.52246 8C6.52246 12.4444 10.1264 16 14.5171 16C18.9079 16 22.5118 12.3937 22.5118 8C22.5118 3.60635 18.9332 0 14.5171 0ZM14.5171 10.946C12.8928 10.946 11.5223 9.5746 11.5223 7.94921C11.5223 6.32381 12.8928 4.95238 14.5171 4.95238C16.1414 4.95238 17.512 6.32381 17.512 7.94921C17.4612 9.6254 16.1414 10.946 14.5171 10.946Z" fill="white"/>
<path d="M6.47188 2.28564V13.9428H3.65471L0 2.28564H6.47188Z" fill="white"/>
</g>
<defs>
<clipPath id="clip0_10402_76760">
<rect width="95" height="16" fill="white"/>
</clipPath>
</defs>
</svg>
