<svg width="46" height="16" viewBox="0 0 46 16" fill="none" xmlns="http://www.w3.org/2000/svg">
<path d="M23.2468 0.00264103C23.4035 0.00176065 23.561 0.000880379 23.7195 0C23.7204 1.02476 23.7186 2.04864 23.7195 3.0734C25.6634 3.07516 27.6073 3.07252 29.5511 3.07428C29.552 3.70023 29.5511 4.3253 29.552 4.95125C28.0536 4.95389 26.5552 4.95037 25.0577 4.95213C25.0568 5.64587 25.0559 6.33961 25.0577 7.03334C26.3378 7.03598 27.6178 7.02982 28.8979 7.03687C28.9005 7.66105 28.8988 8.28524 28.8988 8.90943C27.6222 8.91559 26.3457 8.91824 25.0691 8.90855C25.0427 9.6243 25.0603 10.3409 25.0595 11.0567C26.557 11.0567 28.0536 11.0567 29.5511 11.0567C29.552 11.6809 29.552 12.3051 29.5511 12.9292C27.6073 12.931 25.6643 12.9292 23.7204 12.9301C23.7178 13.9531 23.7204 14.977 23.7186 16C23.561 15.9991 23.4035 15.9982 23.2468 15.9982C23.2459 10.6667 23.2459 5.33421 23.2468 0.00264103Z" fill="white"/>
<path d="M30.5282 3.08843C31.119 3.08843 31.7097 3.08579 32.3013 3.09019C33.5717 5.09746 34.8623 7.09151 36.0896 9.12607C36.0957 7.1144 36.0887 5.10186 36.0931 3.09019C36.7507 3.08667 37.4084 3.08755 38.066 3.08931C38.0678 6.37489 38.066 9.66046 38.0678 12.9469C37.4744 12.9513 36.8819 12.9469 36.2894 12.9496C35.0032 10.9485 33.7434 8.93062 32.4853 6.91192C32.4791 8.92446 32.4853 10.9361 32.4827 12.9487C31.8303 12.9478 31.1788 12.9504 30.5273 12.9478C30.5282 9.66134 30.5265 6.37488 30.5282 3.08843Z" fill="white"/>
<path d="M38.8671 3.08828C41.0196 3.08652 43.1721 3.08916 45.3247 3.0874C45.3282 3.71775 45.3264 4.3481 45.3255 4.97845C44.5825 4.98021 43.8403 4.97758 43.0973 4.98022C43.0973 7.63544 43.0973 10.2915 43.0982 12.9476C42.437 12.9485 41.7767 12.952 41.1165 12.945C41.1156 10.2898 41.1165 7.63456 41.1165 4.97934C40.3664 4.97845 39.6172 4.98021 38.868 4.97845C38.8653 4.34898 38.8662 3.71863 38.8671 3.08828Z" fill="white"/>
<path d="M0.000660284 3.07436C0.584351 3.07348 1.16804 3.07436 1.75173 3.07436C3.03445 5.07106 4.30835 7.07393 5.5444 9.09968C5.54529 7.09153 5.54441 5.08339 5.54529 3.07613C6.20293 3.07261 6.86145 3.07261 7.51997 3.07613C7.51909 6.35994 7.51997 9.64463 7.51909 12.9284C6.92572 12.9311 6.33146 12.9311 5.73809 12.9284C4.46242 10.9194 3.18939 8.90863 1.93925 6.88464C1.93661 8.89983 1.93925 10.915 1.93749 12.9302C1.29218 12.9302 0.645978 12.9302 0.000660284 12.9302C-0.000220095 9.64463 -0.000220095 6.35994 0.000660284 3.07436Z" fill="white"/>
<path d="M8.61719 3.07444C10.7732 3.07532 12.9284 3.07092 15.0836 3.07708C15.0836 3.70039 15.0836 4.32458 15.0845 4.94877C13.586 4.95581 12.0876 4.95141 10.5892 4.95141C10.5796 5.64515 10.5866 6.33976 10.5848 7.0335C11.8649 7.03438 13.1441 7.0335 14.4242 7.03438C14.4242 7.66033 14.4233 8.28716 14.4242 8.91399C13.1459 8.91399 11.8667 8.91399 10.5884 8.91399C10.5813 9.62798 10.5848 10.342 10.5866 11.0568C12.0859 11.0586 13.5852 11.0524 15.0845 11.0604C15.0836 11.6828 15.0836 12.3052 15.0836 12.9285C12.9284 12.9329 10.7732 12.9294 8.61719 12.9303C8.61719 9.64471 8.61719 6.36001 8.61719 3.07444Z" fill="white"/>
<path d="M15.8663 3.07349C18.0241 3.07437 20.1811 3.07348 22.3389 3.07436C22.3398 3.70207 22.3389 4.32979 22.3398 4.9575C21.595 4.95926 20.8502 4.95838 20.1062 4.95838C20.0913 7.61448 20.1036 10.2715 20.0992 12.9284C19.4416 12.9328 18.7839 12.9293 18.1263 12.9293C18.1219 10.2723 18.1324 7.61536 18.121 4.95838C17.3691 4.95926 16.6173 4.95838 15.8655 4.95838C15.8655 4.32979 15.8646 3.70208 15.8663 3.07349Z" fill="white"/>
</svg>
