<svg width="65" height="16" viewBox="0 0 65 16" fill="none" xmlns="http://www.w3.org/2000/svg">
<path d="M58.6197 3.28528C59.2259 2.44553 60.2853 2.05538 61.2913 2.02502C62.2901 1.98433 63.2522 2.32667 64.1504 2.72975C64.0538 2.91026 63.9474 3.08493 63.8409 3.2597C63.7568 3.39765 63.6727 3.53568 63.5933 3.67671C62.9504 3.30465 62.2359 3.0243 61.4873 2.99394C60.8612 2.99202 60.1996 3.18449 59.7617 3.65411C59.0234 4.406 59.0363 5.75732 59.7991 6.48789C60.2202 6.91617 60.8308 7.09186 61.4176 7.11254C62.2901 7.11382 63.1232 6.74821 63.8125 6.23145C63.8682 6.3283 63.9242 6.42498 63.9802 6.52167L63.9809 6.52289L63.9844 6.52906L63.9847 6.52945C64.0874 6.70685 64.1901 6.88427 64.291 7.06279L64.2911 7.07581L64.2913 7.08899C64.2915 7.09914 64.2916 7.10959 64.2916 7.11641C63.5398 7.60151 62.7015 7.99489 61.8052 8.09632C60.8631 8.17253 59.8552 7.98393 59.1001 7.38512C58.5604 6.95815 58.1993 6.32059 58.1039 5.63911C57.9794 4.8291 58.118 3.94931 58.6197 3.28528Z" fill="white"/>
<path d="M19.1934 2.08648C18.9954 2.08607 18.7975 2.08567 18.5996 2.08897C18.6059 3.58721 18.6046 5.08506 18.6032 6.58311L18.6025 7.43461C18.6024 7.6498 18.6023 7.86499 18.6022 8.08018C18.9743 8.08857 19.347 8.08405 19.719 8.07954C19.7085 6.92221 19.7113 5.76445 19.7141 4.60661C19.7147 4.34531 19.7153 4.08401 19.7158 3.82271C20.9513 5.23541 22.1765 6.65778 23.3978 8.08275C23.446 8.08255 23.4942 8.08249 23.5424 8.08249C23.5963 8.08249 23.6501 8.08258 23.7039 8.08273C23.9447 8.08337 24.1853 8.08514 24.4263 8.0847C24.4308 6.08483 24.4321 4.08562 24.4256 2.0864C24.2681 2.08668 24.1104 2.08659 23.9527 2.0865L23.7939 2.08644C23.6354 2.0864 23.4769 2.08648 23.3185 2.08704C23.3176 2.98881 23.3179 3.89057 23.3182 4.79253V4.80525C23.3183 5.25842 23.3185 5.71164 23.3185 6.16492C23.2248 6.1071 23.1571 6.022 23.0897 5.93729L23.0891 5.93652C23.0726 5.9158 23.0561 5.8951 23.0393 5.87483C23.0252 5.85789 23.0109 5.84126 22.9961 5.82516C22.5112 5.26709 22.0285 4.7072 21.5458 4.14738L21.544 4.14532L21.5431 4.14429C20.95 3.45645 20.357 2.76867 19.7603 2.08445C19.5713 2.0873 19.3823 2.08689 19.1934 2.08648Z" fill="white"/>
<path fill-rule="evenodd" clip-rule="evenodd" d="M27.1501 2.91191C27.7994 2.80468 28.4894 2.86216 29.091 3.14123C29.663 3.40347 30.1053 3.93638 30.2504 4.55069C30.4071 5.196 30.3529 5.91171 30.0138 6.49113C29.7449 6.95168 29.2896 7.28823 28.7776 7.42969C28.0696 7.62865 27.2984 7.6209 26.5987 7.39028C25.9242 7.17066 25.3955 6.57639 25.2414 5.88457C25.0569 5.07907 25.202 4.1489 25.8101 3.5527C26.1725 3.19935 26.6574 2.99846 27.1501 2.91191ZM27.279 3.81301C27.0366 3.88342 26.8154 4.01972 26.631 4.1909C26.09 4.70313 26.0564 5.64363 26.5594 6.19335C27.0882 6.79732 28.0825 6.89354 28.7164 6.39939C29.2683 6.01507 29.4515 5.22119 29.1677 4.61915C28.8589 3.92217 27.9909 3.58821 27.279 3.81301Z" fill="white"/>
<path fill-rule="evenodd" clip-rule="evenodd" d="M39.5282 3.41576C38.9808 2.98168 38.2566 2.8357 37.5725 2.86606C36.8019 2.89641 35.9842 3.20001 35.5477 3.86921C35.1853 4.38791 35.115 5.05325 35.1943 5.66754C35.2749 6.27733 35.6257 6.85223 36.15 7.17908C36.6284 7.47621 37.2043 7.56407 37.7582 7.57182C38.4713 7.56276 39.2393 7.39289 39.7429 6.84899C40.5954 5.90591 40.529 4.23031 39.5282 3.41576ZM36.3834 4.50741C36.5794 4.1444 36.9476 3.90474 37.3371 3.79428C37.7311 3.70257 38.1644 3.73809 38.5178 3.94416C38.993 4.18638 39.3148 4.70831 39.2916 5.24639C39.3045 5.75734 39.0085 6.25213 38.5623 6.49566C37.9161 6.89162 37.0056 6.73917 36.522 6.15717C36.1429 5.70695 36.0906 5.01513 36.3834 4.50741Z" fill="white"/>
<path d="M30.2627 2.9145C30.4151 2.92294 30.568 2.9206 30.721 2.91827C30.9426 2.91491 31.1642 2.91155 31.384 2.94098C31.603 3.48726 31.8366 4.02756 32.0703 4.56792L32.0709 4.56934L32.0725 4.57319C32.2929 5.08284 32.5133 5.59253 32.7214 6.10744C32.7597 6.06225 32.7868 6.00865 32.8132 5.95618C32.817 5.94864 32.8208 5.94113 32.8246 5.93368C32.9301 5.68629 33.0358 5.43904 33.1416 5.19184L33.416 4.5515L33.4284 4.5226C33.6581 3.98673 33.8878 3.45089 34.1162 2.9145C34.3478 2.92097 34.5795 2.91985 34.8112 2.91874C34.9097 2.91827 35.0083 2.9178 35.1069 2.9179L35.1608 2.91803C35.1834 2.9181 35.2059 2.91823 35.2285 2.91838C34.5585 4.45252 33.8943 5.98987 33.236 7.52917C33.1622 7.52975 33.0885 7.52994 33.0148 7.52994C32.9472 7.52994 32.8796 7.52979 32.812 7.52964H32.8084C32.6214 7.52924 32.4344 7.52883 32.2474 7.53176C31.9716 6.88355 31.6909 6.23728 31.4102 5.59097C31.0234 4.70059 30.6367 3.81015 30.2627 2.9145Z" fill="white"/>
<path d="M41.0613 6.6933C41.0619 6.97322 41.0625 7.25315 41.0629 7.53307C41.2384 7.52937 41.414 7.53011 41.5897 7.53142L41.6665 7.53204C41.7179 7.53245 41.7693 7.53285 41.8206 7.53318C41.8746 7.5335 41.9285 7.53371 41.9824 7.53371C41.9823 7.25753 41.9825 6.98142 41.9826 6.70533C41.9831 6.03543 41.9836 5.36574 41.9786 4.69605C42.0565 4.77502 42.1058 4.87369 42.1552 4.9725L42.1554 4.97289C42.1775 5.01697 42.1996 5.06128 42.2243 5.10365C42.4299 5.47481 42.6361 5.84567 42.8422 6.21653C43.0497 6.58981 43.2573 6.9631 43.4643 7.3367C43.4765 7.35393 43.4866 7.37405 43.4969 7.39441C43.5212 7.44273 43.5463 7.49242 43.6016 7.50787C43.8256 7.11346 44.0449 6.7162 44.2643 6.31897L44.2667 6.31473C44.5674 5.77002 44.8681 5.22537 45.1808 4.6883C45.1848 5.18041 45.1843 5.6727 45.1838 6.16507V6.16687C45.1833 6.62201 45.1829 7.07722 45.186 7.53243C45.4897 7.52853 45.7934 7.52789 46.0978 7.53048C46.0957 6.82091 46.0961 6.11119 46.0964 5.40147C46.0969 4.57351 46.0974 3.74554 46.0939 2.91773C45.9486 2.91966 45.8033 2.91889 45.658 2.91812C45.4623 2.91709 45.2666 2.91606 45.0712 2.92161C45.0209 3.03078 44.968 3.13866 44.9074 3.24265C44.7197 3.56946 44.5413 3.90181 44.3629 4.23414L44.3626 4.23472C44.1067 4.71144 43.8508 5.1881 43.5674 5.64817C43.309 5.15708 43.0415 4.6707 42.774 4.18435L42.7676 4.17304L42.767 4.17195C42.5378 3.75526 42.3086 3.33856 42.085 2.91904C41.9808 2.91863 41.8766 2.91891 41.7725 2.91919C41.5365 2.91979 41.3007 2.92039 41.0649 2.91322C41.0559 4.17266 41.0586 5.4321 41.0613 6.69156V6.6933Z" fill="white"/>
<path fill-rule="evenodd" clip-rule="evenodd" d="M48.6848 2.93518C48.9003 2.91234 49.1165 2.91525 49.3327 2.91818C49.4465 2.91972 49.5603 2.92127 49.674 2.91904C49.9078 3.44765 50.1403 3.97689 50.3729 4.50614L50.3739 4.50858C50.8165 5.5158 51.2592 6.52315 51.7104 7.5266C51.5222 7.53223 51.3344 7.53114 51.1466 7.53005H51.1449C51.059 7.52954 50.973 7.52902 50.8871 7.52917C50.8172 7.52928 50.7473 7.52981 50.6773 7.53112C50.5568 7.26075 50.4417 6.98831 50.3266 6.71582L50.3251 6.71229L50.3236 6.70882L50.3222 6.70541C50.2943 6.63941 50.2664 6.57342 50.2385 6.50744L50.1989 6.41427C49.9425 6.41599 49.6861 6.41511 49.4297 6.41423H49.4273C49.0069 6.4128 48.5865 6.41136 48.1664 6.42138C48.0878 6.64834 47.9924 6.86856 47.897 7.08871C47.8336 7.23512 47.7702 7.3815 47.7118 7.52984C47.3661 7.52855 47.0212 7.52919 46.6762 7.53112C46.9731 6.83639 47.2798 6.14572 47.5865 5.45509C47.9584 4.61748 48.3303 3.77992 48.6848 2.93518ZM48.5604 5.53385C48.9808 5.52867 49.4019 5.52674 49.8223 5.53321C49.7478 5.36047 49.6748 5.18711 49.6018 5.01378L49.6016 5.01326C49.4651 4.68896 49.3286 4.36475 49.182 4.04492C49.0856 4.29029 48.9813 4.53241 48.877 4.77453L48.8763 4.77607C48.7681 5.02744 48.6598 5.2788 48.5604 5.53385Z" fill="white"/>
<path d="M51.7044 2.9178L51.2074 2.91709C51.206 3.07236 51.2063 3.22782 51.2066 3.38328C51.2068 3.52142 51.207 3.65954 51.2061 3.79754C51.5544 3.80006 51.9029 3.79903 52.2517 3.79801C52.4396 3.79745 52.6276 3.79689 52.8156 3.79689L52.8166 4.18242C52.8197 5.29672 52.8228 6.41102 52.8124 7.52532C53.0402 7.53039 53.2681 7.5302 53.4961 7.53001H53.5058C53.6224 7.52992 53.739 7.52984 53.8557 7.53048C53.8528 6.90844 53.8533 6.28656 53.8538 5.66467C53.8543 5.04278 53.8547 4.42088 53.8518 3.79882C54.0773 3.79801 54.3028 3.79811 54.5283 3.79822C54.8393 3.79835 55.1503 3.79848 55.4613 3.79623C55.4617 3.62015 55.4614 3.44384 55.4611 3.2676C55.4609 3.15028 55.4607 3.03299 55.4607 2.91581C54.2085 2.92152 52.9562 2.91966 51.7044 2.9178Z" fill="white"/>
<path d="M56.2306 2.91581L56.2774 2.91626H56.2787C56.611 2.91936 56.9437 2.92246 57.2765 2.91322C57.2824 3.98661 57.281 5.06 57.2797 6.13341C57.2791 6.59996 57.2785 7.06652 57.2785 7.53307C57.0352 7.52857 56.792 7.52909 56.5488 7.5296L56.422 7.52984C56.358 7.52992 56.294 7.52994 56.23 7.52984C56.2303 6.87068 56.2302 6.21152 56.2301 5.55239C56.23 4.67353 56.2299 3.79467 56.2306 2.91581Z" fill="white"/>
<path d="M46.8928 9.17378L46.5814 9.18348C46.5784 10.0325 46.5788 10.8811 46.5792 11.7299L46.5795 12.2112C46.5795 12.4775 46.5796 12.7438 46.5794 13.0101C46.6433 13.0093 46.7075 13.0088 46.7718 13.0083L46.9006 13.0075L46.8999 12.7685C46.8986 12.3707 46.8974 11.9725 46.9006 11.5748C46.909 11.3158 46.9696 11.0393 47.1495 10.8436C47.3713 10.5884 47.7885 10.5445 48.0651 10.7344C48.256 10.892 48.2747 11.1588 48.2844 11.3887C48.2877 11.7345 48.2868 12.0799 48.2858 12.4255C48.2853 12.6196 48.2848 12.8139 48.285 13.0081L48.3339 13.0084L48.378 13.0086L48.4177 13.0087C48.4791 13.0088 48.5404 13.0088 48.6023 13.0088L48.602 12.9232L48.6019 12.8356C48.6017 12.6642 48.602 12.4927 48.6023 12.3213V12.3198C48.6028 11.9869 48.6034 11.6539 48.6003 11.3209C48.5965 11.0167 48.5185 10.6763 48.2599 10.487C47.8072 10.1957 47.1308 10.3572 46.8941 10.8539C46.8999 10.2939 46.9044 9.73382 46.8928 9.17378Z" fill="white"/>
<path d="M55.3208 13.0068C55.3234 12.4289 55.3228 11.8511 55.3223 11.2733C55.3216 10.575 55.321 9.87673 55.3259 9.17829C55.431 9.17893 55.5368 9.17958 55.6432 9.17958C55.6397 10.3149 55.6404 11.4502 55.641 12.585L55.6412 13.0081C55.5885 13.0078 55.536 13.0077 55.4836 13.0075L55.3886 13.0072L55.3208 13.0068Z" fill="white"/>
<path d="M24.2928 9.27972C24.1838 9.27908 24.0742 9.27908 23.9652 9.28036C23.9672 9.42506 23.9704 9.56911 23.9749 9.7138C24.08 9.7138 24.1858 9.71444 24.2915 9.71573C24.2896 9.57039 24.2902 9.42506 24.2928 9.27972Z" fill="white"/>
<path d="M31.0042 9.28231C31.1132 9.27972 31.2228 9.27908 31.3324 9.27908C31.3305 9.36644 31.3293 9.45404 31.328 9.54175V9.54226L31.3266 9.63864C31.3262 9.66454 31.3258 9.69047 31.3253 9.71639C31.2209 9.7138 31.1177 9.71252 31.0139 9.71187C31.0107 9.56782 31.0081 9.42506 31.0042 9.28231Z" fill="white"/>
<path d="M18.9562 9.44248C18.8382 9.4412 18.7202 9.44056 18.6028 9.43925C18.7724 10.0707 18.9536 10.6992 19.1348 11.3277C19.2959 11.8868 19.4571 12.4458 19.6101 13.0068C19.7258 13.0084 19.8419 13.0083 19.9582 13.0082L20.0447 13.0081C20.147 12.66 20.2459 12.3107 20.3448 11.9614L20.3452 11.9599L20.3461 11.9569C20.5467 11.2486 20.7472 10.5402 20.9758 9.84169C21.1844 10.604 21.4017 11.3639 21.619 12.124C21.7033 12.4189 21.7877 12.7138 21.8715 13.0088H22.29C22.4103 12.5869 22.5333 12.1658 22.6564 11.7446L22.657 11.7424L22.6573 11.7415L22.6581 11.7381C22.8821 10.9717 23.106 10.2054 23.3133 9.43473C23.2653 9.43754 23.2171 9.44058 23.169 9.44391C23.1407 9.44586 23.1125 9.44792 23.0842 9.45008L23.0474 9.45297C23.0249 9.45479 23.0024 9.45668 22.9799 9.45865C22.8874 9.78716 22.7955 10.1159 22.7036 10.4448L22.7024 10.4492C22.4996 11.1749 22.2967 11.9009 22.0862 12.6244C22.0124 12.3651 21.9382 12.1059 21.8639 11.8466L21.8632 11.8439C21.6358 11.0501 21.4083 10.256 21.1951 9.45865C21.0525 9.44895 20.91 9.44184 20.7675 9.43602C20.6184 9.92304 20.4792 10.4131 20.34 10.903C20.1772 11.4761 20.0144 12.0494 19.8357 12.6173C19.6722 12.0359 19.5118 11.4533 19.3514 10.8708L19.3506 10.8678C19.2197 10.3925 19.0888 9.91717 18.9562 9.44248Z" fill="white"/>
<path d="M40.6515 9.44272H40.6529C40.9839 9.44456 41.315 9.4464 41.6458 9.44118L41.6455 9.50906C41.6454 9.54124 41.6454 9.57343 41.6454 9.60567L41.6455 9.66551C41.6455 9.69297 41.6457 9.72046 41.6458 9.74801C41.297 9.75188 40.9488 9.75319 40.6006 9.74672C40.5857 10.8332 40.5896 11.9203 40.5967 13.0075L40.242 13.0094L40.2427 12.5082C40.244 11.5875 40.2452 10.6668 40.2414 9.74608C39.8913 9.75447 39.5418 9.75188 39.1923 9.74865C39.1914 9.71635 39.1906 9.68411 39.1899 9.65191L39.1886 9.589L39.1878 9.54616L39.1872 9.50557L39.1865 9.45734C39.6744 9.43732 40.1629 9.44002 40.6515 9.44272Z" fill="white"/>
<path d="M26.8554 10.4889C26.4021 10.2015 25.7037 10.3346 25.4761 10.85C25.458 10.7395 25.4618 10.6271 25.4655 10.5154C25.4667 10.4795 25.4679 10.4438 25.4683 10.4082C25.408 10.4078 25.3477 10.4077 25.2876 10.4077C25.2487 10.4078 25.2098 10.4079 25.1711 10.4082C25.1823 10.9901 25.1811 11.5724 25.1798 12.1547C25.1792 12.4392 25.1786 12.7237 25.1795 13.0081C25.2871 13.0075 25.3948 13.0069 25.5025 13.0056L25.5016 12.6055C25.5007 12.2393 25.4997 11.873 25.5025 11.507C25.5115 11.1833 25.6412 10.8203 25.9571 10.6801C26.1957 10.5871 26.5033 10.5832 26.6961 10.7757C26.8728 10.9514 26.8831 11.2176 26.8896 11.4514C26.8911 11.7708 26.8908 12.0904 26.8904 12.4099C26.8902 12.6094 26.8899 12.8088 26.8902 13.0081L27.2081 13.0101C27.2066 12.7811 27.207 12.5522 27.2075 12.3233V12.3225C27.2082 11.968 27.209 11.6136 27.2023 11.2589C27.2068 10.9695 27.0998 10.6588 26.8554 10.4889Z" fill="white"/>
<path d="M28.3933 10.8733C28.5919 10.3345 29.307 10.206 29.7623 10.4825C30.0176 10.6536 30.1137 10.9714 30.1195 11.266C30.1242 11.5657 30.1235 11.8654 30.1228 12.1651C30.1222 12.4455 30.1216 12.7258 30.1253 13.0062C30.0775 13.0068 30.0297 13.0072 29.982 13.0077L29.9521 13.0079C29.9037 13.0084 29.8554 13.0088 29.8074 13.0094C29.8058 12.8016 29.8069 12.5936 29.8079 12.3855C29.8098 12.0213 29.8117 11.657 29.799 11.2931C29.7952 11.0709 29.7068 10.8655 29.5514 10.7079C29.3064 10.5949 29.0033 10.5735 28.775 10.7376C28.5029 10.9185 28.4178 11.2641 28.4133 11.5722L28.4132 12.1226C28.4132 12.4182 28.413 12.7137 28.4126 13.0094C28.3758 13.0092 28.339 13.009 28.3022 13.0089L28.2627 13.0088C28.2056 13.0086 28.1486 13.0085 28.0915 13.0081C28.0894 12.698 28.091 12.3879 28.0925 12.0778C28.0953 11.5212 28.0981 10.9647 28.0799 10.4088C28.1824 10.4075 28.285 10.4075 28.3875 10.4075L28.3868 10.459C28.3849 10.597 28.383 10.7354 28.3933 10.8733Z" fill="white"/>
<path d="M33.9227 10.509C33.4707 10.195 32.7149 10.321 32.5163 10.8791C32.5015 10.7221 32.5073 10.5652 32.5105 10.4082L32.4717 10.408L32.4185 10.4078C32.3811 10.4076 32.3439 10.4076 32.3066 10.4076L32.2004 10.4075C32.2245 10.9871 32.2219 11.5669 32.2192 12.1469C32.2178 12.4337 32.2165 12.7206 32.2184 13.0075L32.5383 13.0094C32.5383 12.5534 32.5383 12.098 32.537 11.6426C32.5286 11.3228 32.6015 10.9592 32.8704 10.7557C33.1006 10.5761 33.4217 10.5904 33.677 10.7085C33.844 10.8765 33.9272 11.1052 33.9298 11.3416C33.9358 11.684 33.9346 12.0264 33.9335 12.369V12.3699C33.9328 12.5828 33.932 12.7957 33.933 13.0088L34.2529 13.0068C34.2521 12.8758 34.252 12.7448 34.2521 12.6137C34.2522 12.5052 34.2524 12.3968 34.2527 12.2884C34.2535 11.9644 34.2544 11.6405 34.2503 11.317C34.2438 11.0218 34.171 10.6956 33.9227 10.509Z" fill="white"/>
<path fill-rule="evenodd" clip-rule="evenodd" d="M35.0789 11.0341C35.1659 10.735 35.3987 10.4786 35.7012 10.3927C36.1048 10.2854 36.6233 10.3235 36.8677 10.7118L36.8735 10.4082C36.9786 10.4069 37.0843 10.4069 37.1901 10.4069C37.1871 10.7653 37.188 11.1237 37.1888 11.482C37.19 11.9878 37.1911 12.4936 37.1817 12.9991C37.1701 13.4816 36.8599 13.9712 36.3686 14.0746C35.9752 14.1302 35.5619 14.1172 35.1866 13.9758L35.1888 13.951C35.1971 13.8592 35.2053 13.768 35.213 13.6767C35.2375 13.6825 35.2865 13.6948 35.311 13.7006C35.6908 13.8601 36.1667 13.9286 36.533 13.7012C36.8845 13.4222 36.8774 12.9228 36.8717 12.5142L36.8715 12.5056C36.7684 12.678 36.6529 12.8609 36.4575 12.939C36.0287 13.1121 35.4722 12.9836 35.2169 12.5805C34.928 12.1258 34.9235 11.5373 35.0789 11.0341ZM35.8533 10.6595C35.6135 10.7337 35.4593 10.9669 35.3968 11.1995C35.2962 11.598 35.2949 12.045 35.4961 12.4132C35.6947 12.7594 36.2035 12.8466 36.5143 12.6031C36.76 12.4074 36.8689 12.0812 36.8702 11.7744C36.8754 11.463 36.8593 11.1226 36.6613 10.8662C36.4775 10.6226 36.1306 10.5703 35.8533 10.6595Z" fill="white"/>
<path fill-rule="evenodd" clip-rule="evenodd" d="M43.2521 10.6653C42.8742 10.2099 42.0824 10.2493 41.7271 10.7124C41.4137 11.0942 41.3744 11.6226 41.4414 12.0941C41.495 12.4397 41.6736 12.7911 41.9999 12.9474C42.4196 13.1528 42.9117 13.0799 43.3411 12.9436L43.3585 12.6232C43.0058 12.7575 42.5937 12.8951 42.232 12.7156C41.8973 12.5495 41.7697 12.1562 41.7542 11.806C42.3526 11.7996 42.951 11.8022 43.55 11.806C43.5533 11.412 43.5094 10.9824 43.2521 10.6653ZM41.7535 11.5283C41.7787 11.2602 41.8645 10.9812 42.0734 10.7984C42.312 10.569 42.7408 10.5477 42.9684 10.8035C43.1395 10.9853 43.1683 11.2408 43.1952 11.4792L43.2005 11.5263C43.1097 11.5265 43.0188 11.5265 42.928 11.5265L42.7182 11.5266C42.3966 11.5266 42.0751 11.5266 41.7535 11.5283Z" fill="white"/>
<path d="M44.4895 10.6349C44.888 10.2842 45.469 10.2984 45.9514 10.4379L45.932 10.7415C45.5748 10.6097 45.1453 10.5432 44.8145 10.7789C44.231 11.2014 44.2471 12.2207 44.8236 12.6438C45.144 12.8854 45.5748 12.806 45.9275 12.6858C45.932 12.7441 45.9364 12.8023 45.941 12.8605C45.9444 12.9036 45.9478 12.9467 45.9514 12.99C45.4923 13.1115 44.9545 13.1412 44.5469 12.8557C44.2303 12.6186 44.062 12.2194 44.0478 11.8299C44.015 11.3939 44.1433 10.9224 44.4895 10.6349Z" fill="white"/>
<path d="M51.1203 10.4579C50.8302 10.31 50.4684 10.3055 50.1731 10.4418C49.999 10.5198 49.899 10.6843 49.8037 10.841L49.7868 10.8688C49.7681 10.715 49.7733 10.5606 49.7804 10.4069C49.6804 10.4069 49.5805 10.4076 49.4812 10.4082C49.492 10.9482 49.4909 11.4882 49.4897 12.0283C49.489 12.3547 49.4883 12.681 49.4902 13.0075C49.5973 13.0075 49.7049 13.0081 49.8133 13.0081C49.8117 12.7105 49.8113 12.4126 49.811 12.1147C49.8107 11.936 49.8105 11.7573 49.81 11.5787C49.8094 11.244 49.9229 10.8726 50.2273 10.6937C50.4671 10.5949 50.7728 10.5749 50.9823 10.7525C51.1732 10.9275 51.1971 11.2066 51.1997 11.4508C51.1995 11.6102 51.1995 11.7696 51.1996 11.9291C51.1997 12.2884 51.1998 12.6478 51.1971 13.0075L51.5169 13.0094C51.5152 12.7858 51.5163 12.5622 51.5174 12.3386C51.5192 11.9564 51.521 11.5743 51.5092 11.1924C51.5053 10.9056 51.3744 10.6058 51.1203 10.4579Z" fill="white"/>
<path fill-rule="evenodd" clip-rule="evenodd" d="M53.0619 10.3914C53.4301 10.2939 53.8538 10.3449 54.162 10.5781C54.5031 10.8462 54.6347 11.2957 54.6366 11.715C54.6334 12.1426 54.4922 12.6031 54.1336 12.8648C53.6145 13.2194 52.7937 13.1348 52.4416 12.5818C52.163 12.1322 52.1366 11.5457 52.3288 11.0574C52.4513 10.737 52.726 10.4741 53.0619 10.3914ZM53.1935 10.6498C52.8137 10.7493 52.6022 11.1472 52.5699 11.516C52.5377 11.8868 52.588 12.3099 52.8685 12.5818C53.1657 12.888 53.7261 12.877 54.004 12.5502C54.2426 12.2899 54.3013 11.9184 54.2768 11.5774C54.2626 11.2331 54.1014 10.8675 53.788 10.6989C53.6017 10.6227 53.3882 10.5878 53.1935 10.6498Z" fill="white"/>
<path fill-rule="evenodd" clip-rule="evenodd" d="M58.4218 10.7053C58.1213 10.3643 57.6118 10.2796 57.1875 10.3914C56.78 10.4889 56.4808 10.852 56.388 11.2512C56.2738 11.7175 56.3196 12.255 56.6149 12.6477C56.9806 13.1367 57.7279 13.1955 58.227 12.888C58.5481 12.6651 58.719 12.2795 58.7487 11.8971C58.7835 11.4811 58.7074 11.0257 58.4218 10.7053ZM56.6794 11.7091C56.6743 11.2809 56.8671 10.7667 57.3217 10.6485C57.6422 10.5555 58.0233 10.673 58.2032 10.9637C58.4817 11.4004 58.4817 12.0147 58.2064 12.4526C57.9788 12.824 57.4216 12.9158 57.0786 12.6555C56.7858 12.441 56.6846 12.056 56.6794 11.7091Z" fill="white"/>
<path fill-rule="evenodd" clip-rule="evenodd" d="M59.9403 10.4185C60.3614 10.2719 60.9147 10.31 61.1849 10.7111C61.1836 10.6097 61.1823 10.5077 61.1823 10.4069C61.288 10.4069 61.3944 10.4075 61.5021 10.4088C61.4992 10.7609 61.5001 11.113 61.5009 11.465V11.4657C61.5022 11.9789 61.5034 12.492 61.4931 13.0049C61.4776 13.4797 61.1745 13.9667 60.6903 14.0707C60.295 14.1334 59.8791 14.1159 59.4999 13.9797C59.5064 13.8769 59.5135 13.7749 59.5212 13.6735C59.9216 13.8298 60.3982 13.9402 60.8005 13.7303C61.1882 13.4731 61.1871 12.9551 61.1862 12.5376L61.1861 12.5069C60.9256 13.1483 59.9668 13.1677 59.5786 12.6477C59.262 12.233 59.2368 11.662 59.3516 11.171C59.4167 10.8474 59.6199 10.5335 59.9403 10.4185ZM60.1699 10.6582C59.9126 10.7422 59.7456 10.9954 59.6947 11.2512C59.6147 11.6187 59.6134 12.0237 59.7824 12.3674C59.9487 12.7188 60.4162 12.8415 60.7483 12.6542C61.0275 12.4901 61.1623 12.1574 61.1771 11.8448C61.19 11.525 61.1816 11.1788 61.0004 10.903C60.8225 10.6414 60.4588 10.5555 60.1699 10.6582Z" fill="white"/>
<path d="M24.2889 10.4088C24.2363 10.4082 24.1837 10.4079 24.1313 10.4078C24.0772 10.4077 24.0231 10.4079 23.9691 10.4082L23.969 10.6887C23.9689 10.91 23.969 11.1314 23.9691 11.3528C23.9693 11.9047 23.9695 12.4566 23.9678 13.0081L24.0766 13.0082C24.1098 13.0082 24.143 13.0082 24.1762 13.0083C24.2138 13.0084 24.2514 13.0086 24.2889 13.0088C24.2883 12.1419 24.2883 11.2751 24.2889 10.4088Z" fill="white"/>
<path d="M31.0087 10.4075C31.1145 10.4075 31.2202 10.4075 31.3273 10.4082C31.328 10.8895 31.3277 11.3708 31.3274 11.8521C31.3272 12.2377 31.327 12.6232 31.3273 13.0088C31.2209 13.0088 31.1151 13.0094 31.0087 13.0094C31.0081 12.1419 31.0081 11.275 31.0087 10.4075Z" fill="white"/>
<path d="M62.3604 10.4095C62.2398 10.4082 62.1186 10.4075 61.9986 10.4088C62.0935 10.6793 62.1891 10.9496 62.2848 11.2199C62.5014 11.8319 62.7182 12.4442 62.9253 13.0598C62.9018 13.1242 62.8824 13.1913 62.8629 13.2587C62.811 13.438 62.7585 13.6192 62.6286 13.7568C62.5304 13.8644 62.3814 13.8452 62.2462 13.8277C62.2119 13.8233 62.1784 13.819 62.1469 13.8169C62.1353 13.9041 62.1237 13.9919 62.1134 14.0798C62.1575 14.0822 62.2034 14.0869 62.2501 14.0918C62.4439 14.1119 62.6517 14.1335 62.8008 13.9919C62.9788 13.8272 63.0652 13.5927 63.1464 13.3699C63.3699 12.7179 63.5967 12.0673 63.8236 11.4167C63.9311 11.1082 64.0387 10.7996 64.1459 10.4909C64.1828 10.3782 64.0718 10.3926 63.9664 10.4063C63.9134 10.4132 63.8619 10.4198 63.8312 10.4101C63.7223 10.7541 63.6032 11.0946 63.4842 11.4352C63.3487 11.8224 63.2133 12.2097 63.0929 12.6018L62.9992 12.3269C62.7819 11.6893 62.5645 11.0516 62.3604 10.4095Z" fill="white"/>
<path fill-rule="evenodd" clip-rule="evenodd" d="M10.786 1.63968C9.41442 1.38969 8.01385 1.33026 6.6223 1.3658C5.86785 1.40003 5.11212 1.44072 4.36605 1.56022C3.68897 1.66681 3.00545 1.79988 2.37803 2.08539C2.12397 2.2036 1.87378 2.35409 1.69645 2.5763C1.47398 2.89412 1.40176 3.28814 1.36242 3.66667C1.29114 4.59003 1.3889 5.51015 1.48657 6.42932C1.52672 6.80712 1.56685 7.18476 1.59521 7.56241C1.73643 9.09784 1.91634 10.6365 2.29356 12.1338L2.32022 12.2263L2.32221 12.2332C2.43728 12.6333 2.55359 13.0377 2.76557 13.3986C2.90035 13.6376 3.12088 13.8185 3.36398 13.9405C3.89145 14.2131 4.47309 14.3559 5.05279 14.4657C6.53267 14.7221 8.05576 14.7273 9.53694 14.4805C10.1128 14.3765 10.6912 14.2428 11.2212 13.9864C11.4792 13.8514 11.7416 13.686 11.8951 13.4302C12.1292 13.0175 12.271 12.5614 12.3884 12.1041C12.7353 10.7392 12.9055 9.33619 13.0455 7.93771C13.0774 7.50797 13.1228 7.07861 13.1682 6.64917C13.2706 5.68106 13.3731 4.71251 13.3208 3.73838C13.2737 3.22936 13.1712 2.64284 12.7211 2.32956C12.1498 1.93294 11.4547 1.7805 10.786 1.63968ZM3.06405 4.30302C3.07621 4.26991 3.08825 4.23713 3.0996 4.20474C3.23243 4.16923 3.36849 4.14211 3.50777 4.14791C3.94635 4.15122 4.38515 4.15028 4.82399 4.14932C5.40913 4.14806 5.99433 4.14679 6.5791 4.15566C6.85058 4.16148 7.05564 4.36624 7.17106 4.59491C7.64759 5.49794 8.11831 6.40356 8.58968 7.30921C8.62277 7.36793 8.6532 7.42832 8.68364 7.48875C8.74933 7.6191 8.81506 7.74956 8.90758 7.86342C8.97966 7.44628 9.06813 7.03209 9.1566 6.61794C9.228 6.28366 9.29941 5.94938 9.36219 5.61357C9.38218 5.45789 9.39572 5.26088 9.25837 5.15236C9.1426 5.05708 8.99839 5.02165 8.85469 4.98635C8.81475 4.97652 8.77453 4.96666 8.73529 4.95557C8.70429 4.94681 8.67371 4.93726 8.64385 4.92628C8.64703 4.89329 8.64959 4.85758 8.65227 4.82023C8.6718 4.54745 8.69764 4.18683 9.01979 4.15501C9.63853 4.14697 10.2577 4.14825 10.877 4.14953H10.8813C11.3054 4.15041 11.7296 4.15129 12.1537 4.14919C12.2717 4.14791 12.4716 4.16148 12.4716 4.32103C12.4477 4.54452 12.3787 4.76157 12.3 4.97149C12.2542 4.98588 12.2061 4.99956 12.157 5.01352C11.8577 5.09861 11.5218 5.19413 11.4276 5.52378C11.2176 6.35786 11.0148 7.19412 10.812 8.03044L10.6479 8.70638C10.5937 8.92909 10.5394 9.15172 10.4848 9.3743C10.4461 9.50544 10.4345 9.64431 10.4932 9.77155C10.7008 9.95172 10.9543 10.0318 11.2084 10.1121C11.3379 10.153 11.4675 10.194 11.5914 10.2483C11.6681 10.5054 11.5927 10.8012 11.4289 11.0098C10.8706 11.0448 10.3112 11.0447 9.75192 11.0446C9.39057 11.0445 9.02926 11.0444 8.66835 11.0538L8.64766 11.0543L8.62592 11.0549C8.40521 11.0609 8.13722 11.0682 8.02159 10.8432C7.74513 10.3609 7.47577 9.87433 7.20642 9.3878L7.20478 9.38453L7.20422 9.3835C6.91638 8.86345 6.62855 8.34342 6.33213 7.82855C6.28441 7.71678 6.16834 7.72196 6.08387 7.78398L6.00272 8.23666C5.92997 8.6428 5.85719 9.0491 5.78338 9.45504L5.78093 9.4711C5.75685 9.62817 5.7295 9.80658 5.83174 9.94208C5.95813 10.1165 6.16577 10.1992 6.36824 10.2476C6.37681 10.2511 6.38594 10.2541 6.39546 10.2569C6.39942 10.2581 6.40345 10.2592 6.40753 10.2603L6.41392 10.262L6.42058 10.2637C6.42726 10.2654 6.43403 10.267 6.44085 10.2686C6.51582 10.2866 6.59528 10.3056 6.60296 10.3956C6.61129 10.5751 6.56276 10.7504 6.51495 10.923L6.51468 10.924C6.50703 10.9516 6.49942 10.9791 6.49205 11.0066C6.29996 11.057 6.10218 11.0529 5.90504 11.0487C5.83687 11.0473 5.76861 11.0458 5.70084 11.0467C5.34822 11.0456 4.99559 11.0429 4.64296 11.0402C4.11476 11.0362 3.58654 11.0322 3.05833 11.0338C2.94161 11.0338 2.82619 11.0189 2.71141 11.0002C2.69683 10.9838 2.67402 10.9585 2.65175 10.9337C2.63265 10.9125 2.61395 10.8917 2.60115 10.8774C2.61275 10.7114 2.64886 10.5486 2.69207 10.3885C2.80006 10.3247 2.92209 10.3086 3.04421 10.2925C3.16198 10.277 3.27984 10.2614 3.38526 10.2031C3.60966 10.0939 3.68639 9.83034 3.74056 9.6062C3.85238 9.05965 3.96404 8.5131 4.0757 7.96656L4.41312 6.31573C4.47889 6.01277 4.43439 5.66073 4.19065 5.44691C3.98325 5.27319 3.72888 5.20954 3.47397 5.14577C3.30329 5.10308 3.13237 5.06033 2.97515 4.98442C2.89785 4.75547 2.98356 4.52213 3.06405 4.30302Z" fill="white"/>
<path fill-rule="evenodd" clip-rule="evenodd" d="M11.267 0.368446C9.73812 0.0758277 8.17505 -0.035919 6.61972 0.00993568C5.16885 0.091969 3.69671 0.202431 2.31097 0.67074C1.70548 0.887148 1.10385 1.19139 0.689223 1.69847C0.279758 2.19585 0.110809 2.84308 0.0373007 3.47225C-0.0523315 4.42115 0.0353667 5.37457 0.134023 6.31894C0.161799 6.60064 0.188474 6.88275 0.215165 7.16503C0.391716 9.03242 0.568977 10.9072 1.07032 12.7197C1.28633 13.4464 1.55071 14.2183 2.15105 14.7202C2.81007 15.268 3.64771 15.5347 4.47115 15.7182C6.05744 16.0405 7.69724 16.0786 9.30093 15.8719C10.3526 15.7188 11.4385 15.4921 12.3265 14.8759C12.8623 14.5148 13.1899 13.9308 13.4066 13.3359C13.6032 12.7765 13.7574 12.2023 13.8696 11.6196C14.19 10.0655 14.3416 8.48353 14.4834 6.90548C14.4984 6.75281 14.5141 6.60011 14.5298 6.44739C14.6069 5.69735 14.6842 4.94638 14.6724 4.19183C14.6749 3.32432 14.5395 2.39479 13.9869 1.69588C13.3047 0.900057 12.2517 0.591297 11.267 0.368446ZM2.0956 1.34899C3.18407 0.879399 4.37765 0.731473 5.54931 0.632635C7.27552 0.516371 9.01914 0.543494 10.7292 0.823846C11.5907 0.99243 12.4877 1.18234 13.2092 1.71266C13.6703 2.04598 13.9302 2.58923 14.0308 3.13829C14.2033 4.01634 14.122 4.91391 14.0419 5.79887C14.0358 5.86637 14.0297 5.9338 14.0237 6.00115C13.9838 6.38905 13.947 6.77787 13.9101 7.16698C13.7354 9.01131 13.5602 10.8618 13.0564 12.6493C12.8501 13.3405 12.5728 14.0891 11.928 14.4857C10.8879 15.1465 9.62722 15.2925 8.42783 15.412C6.93956 15.507 5.42228 15.4295 3.97979 15.029C3.30401 14.8255 2.59728 14.5296 2.17427 13.9341C1.81639 13.3966 1.64357 12.763 1.48365 12.1435C1.09998 10.5286 0.914267 8.87432 0.774981 7.22199C0.761592 7.09019 0.747953 6.95838 0.734308 6.82655L0.733955 6.82322C0.658956 6.09887 0.583915 5.37412 0.551229 4.64657C0.535751 3.90891 0.547361 3.1357 0.863325 2.45357C1.0916 1.92712 1.58102 1.56797 2.0956 1.34899Z" fill="white"/>
</svg>
