<svg width="94" height="16" viewBox="0 0 94 16" fill="none" xmlns="http://www.w3.org/2000/svg">
<path fill-rule="evenodd" clip-rule="evenodd" d="M27.9571 0.000244141H32.9105C32.7084 0.167551 32.544 0.379246 32.4515 0.679717C31.7698 0.710445 31.0846 0.80605 30.403 0.973358C29.639 1.16115 28.9745 1.61527 28.9745 2.39718C28.9745 2.64984 29.043 2.88885 29.1595 3.09713L29.1526 2.93324L29.2554 2.88203C29.3479 2.83422 29.4472 2.79325 29.5431 2.75228C29.7898 2.64984 30.0467 2.56448 30.3036 2.49278C31.8109 2.06939 34.0307 2.06939 35.538 2.49278C35.7949 2.56448 36.0518 2.65326 36.2985 2.75228C36.3944 2.78984 36.4937 2.83422 36.5862 2.88203L36.689 2.93324L36.6821 3.09713C36.7986 2.88885 36.8671 2.64984 36.8671 2.39718C36.8671 1.61527 36.2025 1.15432 35.4386 0.973358C34.7124 0.802638 33.9861 0.700201 33.2599 0.676301C33.4106 0.485093 33.6436 0.362174 33.8765 0.242669C34.0238 0.164137 34.1711 0.0890195 34.3047 0.000244141H37.8845C38.3709 0.000244141 38.7683 0.396318 38.7683 0.881166V15.116C38.7683 15.6008 38.3709 15.9969 37.8845 15.9969H27.9571C27.4706 15.9969 27.0733 15.6008 27.0733 15.116V0.881166C27.0698 0.396318 27.4672 0.000244141 27.9571 0.000244141ZM33.6607 6.93154C34.9179 6.21794 35.4934 5.39505 35.5654 4.03269C35.055 5.69893 34.3081 6.50474 33.6607 6.93154ZM29.4198 4.80093C29.5979 7.19106 32.1877 7.3925 32.9208 8.74462C33.6539 7.3925 36.2436 7.18762 36.4218 4.80093L36.504 3.03909C34.7329 2.12061 31.1121 2.12061 29.341 3.03909L29.4198 4.80093Z" fill="white"/>
<path fill-rule="evenodd" clip-rule="evenodd" d="M14.419 0.000244141H24.3464C24.8328 0.000244141 25.2302 0.396318 25.2302 0.881166V15.116C25.2302 15.6008 24.8328 15.9969 24.3464 15.9969H14.419C13.9325 15.9969 13.5352 15.6008 13.5352 15.116V0.881166C13.5352 0.396318 13.9325 0.000244141 14.419 0.000244141ZM20.1774 10.9503C21.4346 10.2367 22.0101 9.41382 22.0821 8.05146C21.5716 9.7177 20.8249 10.5235 20.1774 10.9503ZM15.8851 8.94946C16.0633 11.3396 18.653 11.5444 19.3861 12.8931C20.1192 11.541 22.7089 11.3361 22.8871 8.94946L22.9693 7.18762C21.1983 6.26913 17.5774 6.26913 15.8064 7.18762L15.8851 8.94946ZM18.9168 4.82825C18.2351 4.85897 17.55 4.95457 16.8683 5.12189C16.1044 5.30969 15.4398 5.76381 15.4398 6.5457C15.4398 6.79838 15.5083 7.03738 15.6248 7.24566L15.6179 7.08178L15.7207 7.03058C15.8132 6.98278 15.9125 6.94178 16.0085 6.90082C16.2551 6.79838 16.512 6.71302 16.769 6.6413C18.2762 6.21794 20.496 6.21794 22.0033 6.6413C22.2602 6.71302 22.5171 6.80178 22.7638 6.90082C22.8597 6.93838 22.959 6.98278 23.0515 7.03058L23.1543 7.08178L23.1474 7.24566C23.2639 7.03738 23.3324 6.79838 23.3324 6.5457C23.3324 5.76381 22.6678 5.30285 21.9039 5.12189C21.1777 4.95117 20.4515 4.84873 19.7253 4.82485C19.876 4.63361 20.1089 4.51069 20.3419 4.39121C20.8557 4.12145 21.3559 3.85855 21.4175 3.10396C20.4652 3.22347 20.9448 3.17908 20.0061 3.75612C19.554 3.99513 19.0915 4.23757 18.9168 4.82825Z" fill="white"/>
<path fill-rule="evenodd" clip-rule="evenodd" d="M0.883809 0.000244141H2.31229L2.34654 0.748006C2.52467 3.13811 5.11445 3.33956 5.84754 4.69169C6.58058 3.33956 9.17035 3.13469 9.3485 0.748006L9.38276 0.000244141H10.8112C11.2977 0.000244141 11.695 0.396318 11.695 0.881166V15.116C11.695 15.6008 11.2977 15.9969 10.8112 15.9969H9.38619L9.43071 15.0511C7.65966 14.1326 4.03879 14.1326 2.26775 15.0511L2.31229 15.9969H0.883809C0.397371 16.0003 0 15.6008 0 15.116V0.881166C0 0.396318 0.397371 0.000244141 0.883809 0.000244141ZM8.56058 0.000244141C8.05706 1.42406 7.37534 2.14451 6.77588 2.53717C7.91659 1.88842 8.49552 1.14749 8.64626 0.000244141H8.56058ZM5.38165 12.6951C4.69994 12.7258 4.01482 12.8214 3.33312 12.9887C2.56921 13.1765 1.90464 13.6307 1.90464 14.4125C1.90464 14.6652 1.97315 14.9042 2.08962 15.1125L2.08277 14.9486L2.18554 14.8974C2.27803 14.8496 2.37737 14.8086 2.47329 14.7677C2.71994 14.6652 2.97686 14.5799 3.23378 14.5082C4.74104 14.0848 6.96083 14.0848 8.46811 14.5082C8.72504 14.5799 8.98194 14.6686 9.22861 14.7677C9.32451 14.8052 9.42387 14.8496 9.51634 14.8974L9.61913 14.9486L9.61228 15.1125C9.72875 14.9042 9.79724 14.6652 9.79724 14.4125C9.79724 13.6307 9.13267 13.1697 8.36879 12.9887C7.64255 12.818 6.9163 12.7156 6.19006 12.6917C6.34079 12.5005 6.57374 12.3775 6.80668 12.2581C7.32055 11.9883 7.82065 11.7254 7.88233 10.9708C6.93003 11.0903 7.4096 11.0459 6.47099 11.623C6.0188 11.8586 5.55634 12.101 5.38165 12.6951Z" fill="white"/>
<path fill-rule="evenodd" clip-rule="evenodd" d="M48.3561 9.20203C50.3466 9.20203 51.5694 7.96943 51.5694 6.29295V6.26907C51.5694 4.61647 50.3841 3.98139 49.1716 3.77652L51.4293 1.62884V0.153809H45.3967V1.8303H48.9044L46.7737 3.96431L47.0784 5.21059H47.8939C48.9902 5.21059 49.6408 5.61691 49.6408 6.34075V6.36467C49.6408 7.02707 49.1167 7.44363 48.3767 7.44363C47.4726 7.44363 46.8352 7.06119 46.2221 6.37491L44.876 7.66555C45.6399 8.56695 46.7498 9.20203 48.3561 9.20203Z" fill="white"/>
<path fill-rule="evenodd" clip-rule="evenodd" d="M61.5406 9.20214C64.2946 9.20214 66.2954 7.12958 66.2954 4.59949V4.57557C66.2954 2.04549 64.3185 0.000244141 61.5645 0.000244141C58.8104 0.000244141 56.8096 2.0728 56.8096 4.59949V4.62337C56.8096 7.1569 58.7865 9.20214 61.5406 9.20214ZM61.5645 7.3959C59.9817 7.3959 58.8615 6.12574 58.8615 4.59949V4.57557C58.8615 3.04933 59.9578 1.80648 61.5406 1.80648C63.1233 1.80648 64.2435 3.07665 64.2435 4.60289V4.62681C64.2435 6.15306 63.1472 7.3959 61.5645 7.3959Z" fill="white"/>
<path fill-rule="evenodd" clip-rule="evenodd" d="M66.7041 9.04882H68.7045L69.5196 7.05478H73.2949L74.11 9.04882H76.1619L72.3425 0.0893555H70.5305L66.7041 9.04882ZM70.2254 5.3271L71.4108 2.4419L72.5961 5.3271H70.2254Z" fill="white"/>
<path fill-rule="evenodd" clip-rule="evenodd" d="M77.543 9.04839H79.5092V6.33051L80.5403 5.26179L83.308 9.04839H85.665L81.8658 3.92676L85.5005 0.153809H83.1299L79.5092 4.04286V0.153809H77.543V9.04839Z" fill="white"/>
<path fill-rule="evenodd" clip-rule="evenodd" d="M89.8985 9.17826C91.8239 9.17826 93.177 8.1881 93.177 6.41942V6.3955C93.177 4.84533 92.1562 4.19661 90.3475 3.72542C88.8059 3.33276 88.4221 3.14155 88.4221 2.55768V2.53036C88.4221 2.09673 88.8162 1.75529 89.5699 1.75529C90.3235 1.75529 91.1011 2.08649 91.889 2.6328L92.9098 1.15777C92.0053 0.433905 90.8954 0.0275879 89.5938 0.0275879C87.7715 0.0275879 86.4695 1.09631 86.4695 2.70792V2.73182C86.4695 4.49709 87.6309 4.99557 89.4293 5.45313C90.923 5.83553 91.2277 6.08821 91.2277 6.5833V6.60722C91.2277 7.12962 90.7449 7.44714 89.9397 7.44714C88.9189 7.44714 88.0795 7.02718 87.2747 6.36818L86.1133 7.75446C87.1823 8.70706 88.5491 9.17826 89.8985 9.17826Z" fill="white"/>
<path fill-rule="evenodd" clip-rule="evenodd" d="M46.8348 16.0002C47.5167 16.0002 48.044 15.7338 48.4279 15.4095V13.7978H46.8076V14.5046H47.633V15.0339C47.424 15.1841 47.1605 15.2558 46.8624 15.2558C46.2011 15.2558 45.7352 14.7573 45.7352 14.0778V14.0676C45.7352 13.4359 46.2081 12.9101 46.8043 12.9101C47.236 12.9101 47.4928 13.0467 47.7769 13.2857L48.2943 12.6643C47.9072 12.3365 47.4994 12.1555 46.8315 12.1555C45.7043 12.1555 44.8789 13.0194 44.8789 14.0778V14.0881C44.8756 15.1875 45.6738 16.0002 46.8348 16.0002Z" fill="white"/>
<path fill-rule="evenodd" clip-rule="evenodd" d="M54.0088 15.9356H54.8445L55.1838 15.1024H56.7596L57.0989 15.9356H57.9552L56.3588 12.1934H55.6019L54.0088 15.9356ZM55.4786 14.382L55.975 13.1767L56.4718 14.382H55.4786Z" fill="white"/>
<path fill-rule="evenodd" clip-rule="evenodd" d="M63.6514 15.9356H64.4529V13.525L65.491 15.0991H65.5149L66.5633 13.5113V15.9356H67.3784V12.2207H66.4949L65.5149 13.7913L64.5353 12.2207H63.6514V15.9356Z" fill="white"/>
<path d="M74.2436 12.2207H73.4248V15.9356H74.2436V12.2207Z" fill="white"/>
<path fill-rule="evenodd" clip-rule="evenodd" d="M80.29 15.9356H81.1018V13.5728L82.9072 15.9356H83.6028V12.2207H82.7943V14.5083L81.047 12.2207H80.29V15.9356Z" fill="white"/>
<path fill-rule="evenodd" clip-rule="evenodd" d="M91.4059 16.0002C92.0874 16.0002 92.6151 15.7338 92.9985 15.4095V13.7978H91.3783V14.5046H92.2041V15.0339C91.995 15.1841 91.7312 15.2558 91.4331 15.2558C90.7722 15.2558 90.3026 14.7573 90.3026 14.0778V14.0676C90.3026 13.4359 90.7755 12.9101 91.3717 12.9101C91.8033 12.9101 92.0602 13.0467 92.3443 13.2857L92.8617 12.6643C92.4745 12.3365 92.0668 12.1555 91.3989 12.1555C90.2721 12.1555 89.4463 13.0194 89.4463 14.0778V14.0881C89.4463 15.1875 90.2478 16.0002 91.4059 16.0002Z" fill="white"/>
</svg>
