<svg width="89" height="16" viewBox="0 0 89 16" fill="none" xmlns="http://www.w3.org/2000/svg">
<path d="M6.61827 6.48654C6.07789 5.63093 5.76315 4.7433 5.67405 3.82365C4.88809 3.18328 3.63489 2.86887 1.91447 2.88043C1.87205 3.57975 1.97672 4.2802 2.22167 4.9363H2.20438C2.38277 5.35868 2.63146 5.74756 2.93981 6.08631C2.94029 6.09284 2.94207 6.09922 2.94504 6.10506C2.94801 6.1109 2.95211 6.11609 2.9571 6.12033C3.06598 6.24026 3.18624 6.34928 3.31617 6.44585C4.07287 7.02752 4.96943 7.38773 6.00586 7.52648C6.10147 7.12609 6.31484 6.76377 6.61827 6.48654Z" fill="white"/>
<path d="M3.31591 10.5267H3.29863C2.80879 11.2698 2.49538 12.3329 2.3584 13.7159C3.112 13.8302 3.80708 13.7959 4.44366 13.6132C4.99213 13.4484 5.4991 13.1677 5.93046 12.79V12.7727L6.03287 12.6699H6.05148C6.73283 11.9469 7.1872 11.0472 7.41461 9.97103C7.10311 9.87787 6.81819 9.71163 6.58344 9.48608C5.53859 10.1696 4.44942 10.5165 3.31591 10.5267Z" fill="white"/>
<path d="M2.97362 6.87524C2.86017 6.78417 2.75184 6.68685 2.64913 6.58374C1.8512 6.80076 0.968155 7.29793 0 8.07528C0.395229 8.65725 0.915003 9.14335 1.52139 9.49811C2.02289 9.78549 2.58493 9.95004 3.1618 9.97839H3.3154C4.33498 9.96861 5.31022 9.66154 6.24114 9.05718C6.0629 8.76016 5.96312 8.42243 5.95123 8.07594C4.81152 7.92341 3.81898 7.52318 2.97362 6.87524Z" fill="white"/>
<path d="M9.08466 6.26366C9.62326 5.43117 9.9278 4.572 9.99829 3.68615V3.65213C10.01 3.54403 10.0158 3.43535 10.0156 3.32661C10.0085 2.69338 9.8378 2.07283 9.52019 1.52556C9.20235 0.955447 8.73069 0.446928 8.1052 0H8.10121C7.47439 0.444704 7.00162 0.953445 6.68289 1.52622C6.36528 2.0735 6.1946 2.69405 6.18751 3.32728C6.18729 3.43602 6.19306 3.54469 6.20479 3.6528V3.68682C6.27262 4.5411 6.55899 5.37069 7.0639 6.17561C7.37919 6.01191 7.73173 5.93396 8.08641 5.94952C8.44108 5.96509 8.78549 6.07363 9.08532 6.26432L9.08466 6.26366Z" fill="white"/>
<path d="M9.81036 12.3272V12.3099C9.70397 11.4676 9.40895 10.6416 8.92532 9.83179C8.63733 9.98022 8.31818 10.0575 7.9944 10.0573C7.9811 10.0573 7.9678 10.0573 7.9545 10.0573C7.70537 11.2397 7.20179 12.2307 6.44376 13.0303C6.44141 13.03 6.43902 13.0302 6.43677 13.031C6.43452 13.0317 6.43247 13.033 6.4308 13.0347C6.42912 13.0363 6.42786 13.0384 6.4271 13.0407C6.42635 13.0429 6.42614 13.0453 6.42647 13.0477C6.4268 13.05 6.42658 13.0524 6.42583 13.0547C6.42508 13.0569 6.42382 13.059 6.42214 13.0607C6.42046 13.0623 6.41842 13.0636 6.41617 13.0644C6.41392 13.0651 6.41153 13.0653 6.40918 13.065C6.58029 13.9451 7.11003 14.9234 7.99839 16.0001C8.56919 15.5911 9.04695 15.0652 9.40009 14.4572C9.65051 14.0138 9.80757 13.5237 9.86156 13.017C9.84025 12.9869 9.82844 12.9511 9.82765 12.9143C9.85077 12.7188 9.84494 12.521 9.81036 12.3272Z" fill="white"/>
<path d="M7.4693 6.56047C7.44337 6.56914 7.41611 6.57581 7.39084 6.58715C7.07264 6.71744 6.80892 6.95375 6.64409 7.25628C6.47925 7.55882 6.42337 7.90909 6.48585 8.24812C6.49383 8.29281 6.50181 8.3375 6.51311 8.38153C6.52442 8.42556 6.53838 8.47025 6.55368 8.51494C6.66228 8.81383 6.85807 9.073 7.11555 9.25871C7.13749 9.27338 7.15877 9.28806 7.18205 9.30207C7.23057 9.33221 7.28074 9.3596 7.33232 9.38411C7.36823 9.40213 7.4048 9.41947 7.4427 9.43481C7.62047 9.50578 7.80993 9.54267 8.00125 9.54354C8.01921 9.54354 8.03583 9.53887 8.05312 9.53821V9.53287C8.25517 9.52369 8.45399 9.47851 8.64026 9.39946C8.98651 9.24793 9.26461 8.9732 9.42096 8.62822C9.57731 8.28324 9.60086 7.89241 9.48706 7.53105C9.37327 7.16969 9.13018 6.86337 8.80465 6.6711C8.47911 6.47884 8.09416 6.41424 7.72397 6.48976C7.70203 6.49443 7.68075 6.49776 7.65748 6.5031C7.59358 6.51811 7.53072 6.53727 7.4693 6.56047Z" fill="white" stroke="white"/>
<path d="M15.2055 0.362113H13V0H19.3458C22.663 0 25.2241 1.14066 25.2241 4.35622C25.2241 7.50661 22.2624 8.71244 19.5678 8.71244C18.8097 8.71244 17.92 8.55673 17.4742 8.33222V15.3753H19.75V15.7374H13V15.3753H15.2037L15.2055 0.362113ZM17.4778 7.89045C17.9955 8.20183 18.5887 8.36409 19.1924 8.35938C20.6615 8.35938 22.8219 7.57722 22.8219 4.55719C22.8219 1.63132 21.4863 0.358491 18.835 0.358491H17.476L17.4778 7.89045Z" fill="white"/>
<path d="M28.3976 6.92895H26.6162V6.56683H28.3976C29.1105 6.56683 29.8234 6.52338 30.2674 6.07617V15.3752H32.0487V15.7373H26.6162V15.3752H28.3976V6.92895ZM29.3325 0.919678C29.5569 0.919678 29.7763 0.986424 29.963 1.11148C30.1496 1.23654 30.2951 1.4143 30.3811 1.62229C30.4671 1.83028 30.4897 2.05917 30.446 2.28004C30.4024 2.5009 30.2944 2.70383 30.1358 2.86317C29.9773 3.02251 29.7751 3.13112 29.5551 3.17527C29.335 3.21941 29.1068 3.19712 28.8993 3.1112C28.6918 3.02528 28.5144 2.87959 28.3894 2.69255C28.2645 2.5055 28.1976 2.2855 28.1972 2.06033C28.1982 1.75811 28.3183 1.46853 28.5313 1.25482C28.7444 1.04111 29.033 0.920633 29.3343 0.919678H29.3325Z" fill="white"/>
<path d="M41.3495 14.5247C41.3495 14.9502 41.4163 15.5078 42.0173 15.5078C42.5298 15.5078 42.8403 15.0824 43.176 14.6134L43.4214 14.7945C42.9991 15.5314 42.4197 16.0003 41.4614 16.0003C40.4146 16.0003 39.6565 15.3974 39.5013 14.6152H39.4562C38.6982 15.6201 37.6965 16.0003 36.2274 16.0003C34.4911 16.0003 33.4443 15.1294 33.4443 13.6104C33.4443 11.1082 36.7616 10.4835 39.0555 10.4835H39.4779V7.73327C39.4779 6.68495 38.4978 6.43871 37.6514 6.43871C37.0053 6.43871 35.4856 6.68495 35.4856 7.48884C35.4856 8.03201 36.2202 7.78034 36.2202 8.78521C36.2202 9.32838 35.7744 9.72308 35.195 9.72308C34.5724 9.72308 34.215 9.23242 34.215 8.47198C34.215 7.33132 35.417 6.08203 37.6442 6.08203C39.3371 6.08203 41.3405 6.95291 41.3405 8.67295L41.3495 14.5247ZM39.1007 10.8384C37.4763 10.8384 35.4495 10.8837 35.4495 13.2736C35.4495 14.5247 35.6498 15.4626 37.0738 15.4626C38.7433 15.4626 39.4797 14.2115 39.4797 13.7643V10.8384H39.1007Z" fill="white"/>
<path d="M44.8105 12.4932H45.0993C45.2798 13.6321 45.8555 15.6418 48.1946 15.6418C49.4201 15.6418 50.3604 14.8379 50.3604 13.5651C50.3604 11.7998 49.0248 11.7781 47.8445 11.6441C46.4006 11.4884 44.9946 11.282 44.9946 8.96264C44.9946 7.35305 46.0414 6.08203 47.7777 6.08203C48.9797 6.08203 49.8045 6.8642 50.0265 6.8642C50.1601 6.8642 50.1817 6.70849 50.1817 6.39526V6.2142H50.4939L50.5824 8.87211H50.2936C50.1384 7.60472 49.4688 6.4369 47.7109 6.4369C46.5757 6.4369 45.6624 7.06155 45.6624 8.22393C45.6624 9.38631 46.5305 9.78826 48.0087 9.87698L48.7649 9.92224C50.5697 10.0345 51.3043 11.0086 51.3043 12.5584C51.3043 14.6351 49.9236 15.9985 48.209 15.9985C46.4493 15.9985 45.9151 15.0389 45.4693 15.0389C45.1805 15.0389 45.2473 15.401 45.2022 15.8645H44.8539L44.8105 12.4932Z" fill="white"/>
<path d="M54.6143 6.9289H52.6777V6.56679C54.9933 6.61205 55.8398 5.62892 56.2188 3.43994H56.4859V6.56679H59.5541V6.9289H56.4859V14.4355C56.4859 15.3517 56.8631 15.6413 57.5688 15.6413C58.6824 15.6413 59.1733 14.6129 59.3051 14.2345L59.639 14.3015C59.4837 14.8447 58.8376 15.9998 57.1898 15.9998C55.6322 15.9998 54.6071 15.4856 54.6071 14.0082L54.6143 6.9289Z" fill="white"/>
<path d="M62.9099 6.92944H61.0401V6.56732H62.9099C63.6319 6.56732 64.3357 6.52387 64.7815 6.07666V8.71284H64.8267C65.0938 7.70798 65.8735 6.07666 67.6981 6.07666C68.5229 6.07666 69.1691 6.61983 69.1691 7.39475C69.1691 7.97594 68.8081 8.44488 68.1439 8.44488C67.4094 8.44488 67.1639 8.06466 67.1639 7.46174C67.1536 7.27244 67.1934 7.08376 67.2793 6.9149C67.3652 6.74603 67.4941 6.603 67.653 6.50033C67.559 6.44437 67.4494 6.42083 67.3408 6.43334C66.4275 6.43334 64.7797 7.88179 64.7797 10.7896V15.3757H66.8047V15.7378H61.0293V15.3757H62.8991L62.9099 6.92944Z" fill="white"/>
<path d="M72.34 6.92895H70.5586V6.56683H72.34C73.0619 6.56683 73.7658 6.52338 74.2116 6.07617V15.3752H75.9929V15.7373H70.5586V15.3752H72.34V6.92895ZM73.2749 0.919678C73.4993 0.919678 73.7187 0.986424 73.9054 1.11148C74.092 1.23654 74.2375 1.4143 74.3235 1.62229C74.4095 1.83028 74.4321 2.05917 74.3884 2.28004C74.3447 2.5009 74.2368 2.70383 74.0782 2.86317C73.9196 3.02251 73.7175 3.13112 73.4974 3.17527C73.2773 3.21941 73.0491 3.19712 72.8417 3.1112C72.6342 3.02528 72.4568 2.87959 72.3318 2.69255C72.2069 2.5055 72.14 2.2855 72.1396 2.06033C72.1406 1.75811 72.2607 1.46853 72.4737 1.25482C72.6867 1.04111 72.9754 0.920633 73.2767 0.919678H73.2749Z" fill="white"/>
<path d="M83.3957 9.76299L84.4786 8.31454C84.7457 7.95242 85.0362 7.51065 85.0362 7.3314C85.0362 7.0399 84.724 6.92945 84.0562 6.92945H83.5888V6.56734H87.7092V6.92945H87.0414C86.1733 6.92945 85.7943 7.21915 85.1933 7.97958L83.5689 10.0563L86.8176 15.3739H88.2867V15.736H82.8398V15.3739H84.576L82.3489 11.7329L80.7245 13.8784C80.3636 14.3473 80.1831 14.771 80.1831 15.0173C80.1831 15.2182 80.295 15.3794 80.7245 15.3794H81.7262V15.7415H77.3838V15.3794H77.9397C79.0532 15.3794 79.4539 14.9557 80.3672 13.7698L82.172 11.416L79.4557 6.92583H77.8512V6.56372H83.0166V6.92583H81.6811L83.3957 9.76299Z" fill="white"/>
</svg>
