<?xml version="1.0" encoding="UTF-8"?>
<svg id="Layer_1" data-name="Layer 1" xmlns="http://www.w3.org/2000/svg" viewBox="0 0 300 130">
  <defs>
    <style>
      .cls-1 {
        fill: #ffbe00;
        stroke-width: 0px;
      }
    </style>
  </defs>
  <rect class="cls-1" x="65.17" y="9.9" width="6.06" height="48.76"/>
  <path class="cls-1" d="m126.66,58.67h4.65v-28.7c0-1.78-.15-3.41-.46-4.88-.3-1.48-.83-2.74-1.59-3.8-.76-1.06-1.79-1.88-3.1-2.47-1.31-.59-2.46-.88-4.94-.88-9.2,0-9.78,10.82-9.78,10.82l5.87-.06s.1-4.76,3.94-4.76c.92,0,1.65.16,2.18.47.53.31.93.77,1.2,1.37.27.6.44,1.35.51,2.25.07.9.1,1.93.1,3.08v3.04s-3.45,0-5.58,0c-5.57,0-8.6,6.18-8.88,11.11-.13,2.23-.27,14.06,8.49,14.06,3.78,0,6-3.97,6-3.97l1.38,3.33Zm-1.41-12.33c0,1-.12,4.17-.12,4.17,0,0-2.06,2.8-4.01,2.8-3.56,0-4.06-3.28-4.06-6.47s.99-7.46,3.96-7.46c1.11,0,4.23,0,4.23,0v6.97Z"/>
  <path class="cls-1" d="m57.66,21.87c-.71-1.2-1.73-2.15-3.05-2.87-1.32-.71-3.06-1.07-5.23-1.07s-3.88.33-5.2.98c-1.32.66-2.34,1.56-3.06,2.72-.72,1.16-1.21,2.54-1.46,4.15-.25,1.61-.37,3.36-.37,5.25v15.03c0,1.87.12,3.6.36,5.2.24,1.6.72,2.99,1.46,4.18.73,1.19,1.77,2.12,3.1,2.8,1.33.68,3.08,1.02,5.25,1.02s3.87-.35,5.18-1.05c1.31-.7,2.32-1.64,3.03-2.83.71-1.19,1.18-2.56,1.42-4.12.07-.48.13-1.24.18-2.07h-5.97c-.07.8-.23,1.5-.49,2.1-.27.62-.67,1.11-1.2,1.45-.53.34-1.27.52-2.22.52s-1.73-.17-2.27-.5c-.54-.33-.95-.81-1.22-1.43-.27-.62-.43-1.37-.49-2.25-.06-.88-.08-1.87-.08-2.98v-4.17l6.69-1.39c4.33-.9,7.42-1.56,7.42-1.56v-8.12c0-1.69-.12-3.31-.36-4.87-.24-1.56-.71-2.93-1.42-4.13Zm-7.73,13.61l-4.61,1.03v-5.53c0-1.16.03-2.18.1-3.07.07-.89.24-1.62.51-2.2.27-.58.68-1.02,1.22-1.32.54-.3,1.29-.45,2.23-.45s1.73.18,2.27.55c.54.37.94.87,1.2,1.5.26.63.42,1.36.47,2.18.06.82.08,6.57.08,6.57,0,0-1.45.28-3.48.74Z"/>
  <path class="cls-1" d="m107.02,55.43c.71-1.16,1.18-2.49,1.42-4,.06-.36.13-1.41.19-2.23h-6.07c-.1.75-.25,1.76-.43,2.15-.27.59-.67,1.06-1.2,1.4-.53.34-1.26.52-2.18.52-.72,0-1.33-.1-1.81-.3-.49-.2-.88-.49-1.18-.87-.3-.38-.53-.84-.68-1.38-.15-.54-.24-1.15-.29-1.82-.02-.44-.04-.89-.05-1.33-.01-.44-.02-.89-.02-1.33,0-.6,0-1.21.02-1.82.01-.61.02-1.24.02-1.88v-11.27c0-1.16.03-2.19.08-3.1.06-.91.22-1.68.49-2.3.27-.62.67-1.1,1.2-1.43.53-.33,1.27-.5,2.22-.5s1.69.18,2.23.55c.54.37.84.9,1.2,1.45.64.96.14,6.31.14,6.31l5.62-1.13s.81-6.53-.94-9.27c-.74-1.16-1.74-2.12-3.05-2.83-1.31-.71-3.05-1.07-5.21-1.07-2.01,0-3.66.27-4.94.8s-2.31,1.3-3.06,2.3c-.76,1-1.28,2.21-1.57,3.63-.29,1.42-.45,3.02-.47,4.8-.02.62-.03,1.32-.03,2.08v14.35c0,1.87.12,3.61.36,5.23.24,1.62.72,3.04,1.46,4.25.73,1.21,1.76,2.16,3.1,2.85,1.33.69,3.08,1.03,5.25,1.03s3.87-.35,5.18-1.05c1.31-.7,2.32-1.63,3.03-2.78Z"/>
  <rect class="cls-1" x="76.96" y="8.29" width="6.53" height="6.53" transform="translate(15.32 60.11) rotate(-45)"/>
  <rect class="cls-1" x="77.19" y="18.42" width="6.06" height="40.25"/>
  <path class="cls-1" d="m32.87,22.57c-.61-1.26-1.48-2.27-2.61-3.02-1.13-.75-2.66-1.13-4.57-1.13h-11.36v48.61h6.07v-8.62h5.36c1.89,0,3.4-.36,4.53-1.08,1.13-.72,2-1.69,2.6-2.92.6-1.23.99-2.67,1.18-4.33.19-1.66.29-3.44.29-5.34v-12.47c0-1.86-.1-3.62-.29-5.3-.19-1.67-.59-3.14-1.2-4.4Zm-4.58,22.56c0,1.15-.03,2.18-.08,3.09-.06.91-.21,1.67-.47,2.29-.26.62-.65,1.09-1.18,1.43-.53.33-1.26.5-2.21.5-.88,0-3.94,0-3.94,0v-28.04h3.94c.97,0,1.71.17,2.24.52.53.34.92.83,1.16,1.46.25.63.4,1.39.46,2.29.06.9.08,1.9.08,3v13.46Z"/>
  <path class="cls-1" d="m143.48,76.7c-.71-1.2-1.72-2.15-3.03-2.85-1.31-.71-3.05-1.06-5.21-1.06s-3.86.33-5.17.98c-1.31.65-2.33,1.56-3.05,2.71-.72,1.15-1.2,2.53-1.45,4.13-.25,1.6-.37,3.35-.37,5.23v14.97c0,1.86.12,3.58.35,5.18.24,1.59.72,2.98,1.45,4.17.73,1.18,1.76,2.11,3.08,2.79,1.33.67,3.07,1.01,5.22,1.01s3.85-.35,5.16-1.05c1.3-.7,2.31-1.64,3.02-2.82.71-1.18,1.18-2.55,1.42-4.1.07-.47.13-1.24.18-2.06h-5.94c-.07.8-.23,1.5-.49,2.09-.27.62-.67,1.1-1.2,1.44-.53.34-1.26.51-2.21.51s-1.72-.17-2.26-.5c-.54-.33-.94-.81-1.21-1.43-.27-.62-.43-1.37-.49-2.24-.06-.87-.08-1.86-.08-2.97v-4.15l6.67-1.38c4.31-.9,7.39-1.55,7.39-1.55v-8.09c0-1.68-.12-3.3-.35-4.85-.24-1.55-.71-2.92-1.42-4.12Zm-7.7,13.55l-4.59,1.02v-5.51c0-1.15.03-2.17.1-3.05.07-.88.24-1.61.51-2.19.27-.58.67-1.01,1.21-1.31.54-.3,1.28-.45,2.22-.45s1.72.18,2.26.55c.54.36.94.86,1.2,1.49.26.63.42,1.36.47,2.17.06.82.08,6.54.08,6.54,0,0-1.44.28-3.47.73Z"/>
  <path class="cls-1" d="m164.51,78.99v-6.21s-1.88.17-3.93,1.29c-2.08,1.14-3.89,2.96-3.91,2.97v-4.19l-6.04-.03v40.53h6.04v-32.71s7.84-1.64,7.84-1.64Z"/>
  <path class="cls-1" d="m177.12,90.89c-2.93-2.48-4.91-4.75-4.91-7.85s2.34-4.28,3.57-4.28c.74,0,1.34.13,1.8.38.46.25.78.66,1.08,1.15.49.78.31,1.98.31,2.69l6-1.25c0-3.54-1.14-5.46-1.91-6.4-.76-.94-1.75-1.6-2.95-1.98-1.2-.38-2.65-.56-4.33-.56-8.05,0-9.67,7.36-9.67,10.32,0,1.42-.25,6.63,6.66,12.06,3.38,2.65,6.15,4.99,6.15,8.34,0,3.93-2.77,4.47-4.05,4.47-3.93,0-7.42-4.09-7.42-4.09l-3.53,5.28s4.58,4.78,10.96,4.78c1.82,0,10.66-.75,10.66-10.52,0-5.61-5.21-9.83-8.4-12.53Z"/>
  <path class="cls-1" d="m57.13,76.09c-.75-1.05-1.78-1.87-3.08-2.46-1.3-.59-2.45-.88-4.92-.88-9.16,0-9.74,10.77-9.74,10.77l5.85-.06s.1-4.74,3.93-4.74c.92,0,1.65.16,2.17.46.53.31.93.76,1.2,1.36.27.6.44,1.34.51,2.24.07.9.1,1.92.1,3.07v3.02s-3.44,0-5.55,0c-5.54,0-8.56,6.16-8.84,11.06-.13,2.22-.27,14,8.45,14,3.77,0,5.97-3.95,5.97-3.95l1.37,3.32h4.63v-28.58c0-1.77-.15-3.39-.46-4.86-.3-1.47-.83-2.73-1.58-3.78Zm-3.99,24.95c0,1-.12,4.15-.12,4.15,0,0-2.05,2.79-3.99,2.79-3.54,0-4.04-3.26-4.04-6.44s.98-7.43,3.94-7.43c1.1,0,4.21,0,4.21,0v6.94Z"/>
  <path class="cls-1" d="m32.87,77.48c-.61-1.26-1.48-2.27-2.61-3.02-1.13-.75-2.66-1.13-4.57-1.13h-11.36v48.61h6.07v-8.62h5.36c1.89,0,3.4-.36,4.53-1.08,1.13-.72,2-1.69,2.6-2.92.6-1.23.99-2.67,1.18-4.33.19-1.66.29-3.44.29-5.34v-12.47c0-1.86-.1-3.62-.29-5.29-.19-1.67-.59-3.14-1.2-4.4Zm-4.58,22.56c0,1.15-.03,2.18-.08,3.09-.06.91-.21,1.67-.47,2.29-.26.62-.65,1.09-1.18,1.43-.53.33-1.26.5-2.21.5-.88,0-3.94,0-3.94,0v-28.04h3.94c.97,0,1.71.17,2.24.52.53.34.92.83,1.16,1.46.25.63.4,1.39.46,2.29.06.9.08,1.9.08,3v13.46Z"/>
  <path class="cls-1" d="m70.67,77.04v-3.71s-6.04-.03-6.04-.03v40.05h6.04v-32.71s7.84-1.64,7.84-1.64v-6.21s-1.88.17-3.93,1.29c-2.08,1.14-3.89,2.96-3.91,2.97Z"/>
  <path class="cls-1" d="m88.07,104.76c0-.84,0-25.66,0-25.66h6.47s0-5.78,0-5.78h-6.47v-8.54h-6.04v38.39c0,5.51,1.22,10.8,7.61,10.8,2.41,0,7.04-1.81,7.04-1.81l-2.15-5.63s-6.46,3.79-6.46-1.77Z"/>
  <path class="cls-1" d="m111.31,73.33h-11.47v40.02h6.04v-34.07s4.15,0,4.15,0c3.13,0,3.77,3.4,3.77,6.76v27.32s6.03,0,6.03,0v-28.73c0-5.95-1.26-11.29-8.51-11.29Z"/>
  <path class="cls-1" d="m151.05,58.44h6.04v-28.73c0-5.95-1.26-11.29-8.51-11.29h-11.47v40.02h6.04V24.36s4.15,0,4.15,0c3.13,0,3.77,3.4,3.77,6.76v27.32Z"/>
  <path class="cls-1" d="m283.68,26.55c-2.06-7.21-11.62-8.1-15.64-8.1h-25.51c-.29,0-.54.18-.55.2l-3.01,12.44h26.43c2.14,0,3.64,2.13,2.92,4.15l-3.75,10.57h-29.24l-8.19,31.39c-.13.49-.82.49-.95,0l-8.19-31.39h-29.24s-3.75-10.57-3.75-10.57c-.72-2.02.78-4.14,2.92-4.15h26.43l-2.94-12.21c-.09-.26-.35-.44-.62-.44h-25.51c-4.01,0-13.57.89-15.63,8.1-1.78,6.23.41,12.01,2.72,18.14,0,0,4.12,10.97,5.02,13.27.23.15.37.24.6.39h27.18s18.89,28.69,18.89,28.69c1.23,1.87,3.97,1.87,5.2,0l18.89-28.69h27.18c.27,0,.51-.14.61-.4.89-2.31,5.02-13.29,5.02-13.29,2.31-6.11,4.49-11.89,2.71-18.12Z"/>
</svg>