<svg width="34" height="16" viewBox="0 0 34 16" fill="none" xmlns="http://www.w3.org/2000/svg">
<path fill-rule="evenodd" clip-rule="evenodd" d="M6.49054 1.59557C9.40565 0.548885 12.5052 0.094402 15.5924 0.00564777C19.3522 -0.0563272 23.171 0.383618 26.7028 1.7287C28.1887 2.30255 29.624 3.05313 30.8467 4.08375C31.6715 4.7846 32.3785 5.66144 32.7289 6.69665C33.0089 7.50309 32.9821 8.39292 32.7534 9.20931C32.7985 9.25904 32.8452 9.30877 32.8926 9.35851C32.9554 9.20548 33.0181 9.05246 33.0893 8.9025C32.9301 9.86655 32.3241 10.6921 31.6623 11.3823C30.5207 12.5284 29.1022 13.3601 27.624 13.9944C24.9476 15.1206 22.06 15.6723 19.1755 15.9041C18.8453 15.9458 18.5131 15.95 18.1809 15.9541C18.0559 15.9556 17.9308 15.9572 17.8059 15.9608C17.6198 15.9635 17.4337 15.9717 17.2477 15.9799L17.2476 15.9799C16.8217 15.9986 16.3961 16.0173 15.9712 15.9715C13.3858 15.9355 10.802 15.5843 8.3077 14.9003C6.67646 14.4359 5.07888 13.8131 3.63357 12.9171C2.38642 12.1152 1.17829 11.1145 0.560069 9.73189C0.107882 8.73799 0.0436112 7.55358 0.469019 6.54056C0.465525 6.60433 0.46171 6.66827 0.457887 6.73235C0.424876 7.28562 0.391305 7.84828 0.559304 8.38451C0.965585 9.86272 2.10485 10.9982 3.32446 11.8589C4.46679 12.6271 5.71011 13.2407 7.00776 13.699C9.94812 14.761 13.0844 15.178 16.1976 15.2683C18.0186 15.2989 19.8412 15.1933 21.6453 14.9447C23.3837 14.67 25.119 14.3089 26.7701 13.6891C27.9997 13.2629 29.1802 12.6906 30.2728 11.9836C31.2797 11.3126 32.2339 10.4985 32.8291 9.42737L32.6931 9.46062L32.5567 9.49393L32.7197 9.44191L32.8827 9.38988L32.8276 9.32755C32.7763 9.2695 32.7142 9.19932 32.6784 9.15805C32.787 8.24143 32.5537 7.30492 32.0877 6.51455C31.5231 5.52907 30.6562 4.76012 29.7365 4.11359C28.2315 3.11893 26.5566 2.39895 24.829 1.89091C22.6469 1.24209 20.3798 0.914614 18.112 0.766945C17.8143 0.763374 17.5166 0.749599 17.219 0.735825C16.6238 0.708282 16.0288 0.680744 15.4341 0.73481C14.7271 0.731701 14.0231 0.787714 13.3193 0.843714C13.1571 0.856623 12.9949 0.86953 12.8326 0.881713C10.1478 1.17093 7.46607 1.73483 4.99013 2.8366C3.87611 3.34541 2.78887 3.9422 1.84854 4.73487C1.06582 5.40053 0.368024 6.20314 0 7.17561C0.037491 6.75326 0.221885 6.36458 0.415461 5.9935C0.869179 5.13733 1.54861 4.42041 2.31067 3.83126C3.56318 2.85267 5.0039 2.14264 6.49054 1.59557ZM3.51759 4.66226C3.84353 4.60641 4.17559 4.61635 4.50383 4.63548C4.86963 4.65613 5.23609 4.65248 5.60251 4.64884H5.60253H5.60255C5.91516 4.64574 6.22774 4.64263 6.53982 4.65461V4.76555C6.48892 4.77557 6.434 4.7831 6.37774 4.79082C6.12027 4.82613 5.83463 4.8653 5.77623 5.16418C5.58026 5.90529 5.41471 6.65443 5.24915 7.4036L5.24915 7.40361L5.24915 7.40362C5.13935 7.90046 5.02956 8.39732 4.91088 8.89186C4.89141 9.00962 4.86179 9.12724 4.83212 9.24511C4.765 9.51169 4.69757 9.77956 4.74637 10.0533C4.85435 10.1571 5.00249 10.1648 5.14895 10.1724C5.21836 10.176 5.28738 10.1796 5.35159 10.1933C5.27737 10.3005 5.17102 10.3869 5.03176 10.3624L4.65303 10.3633C3.86708 10.3655 3.08072 10.3676 2.29492 10.3379L2.29559 10.3295L2.29559 10.3294C2.2988 10.2885 2.30426 10.219 2.3064 10.1834C2.36603 10.1732 2.43125 10.1693 2.49773 10.1653H2.49776C2.69655 10.1534 2.90673 10.1408 3.01337 9.95844C3.11475 9.7443 3.1635 9.5121 3.21216 9.28036C3.23217 9.18504 3.25217 9.0898 3.27581 8.99592C3.39448 8.49413 3.50639 7.9908 3.61829 7.48752L3.61829 7.48751C3.75601 6.86809 3.89371 6.24875 4.04399 5.63244C4.05077 5.59853 4.05817 5.56426 4.06561 5.52973C4.11026 5.32276 4.15689 5.10655 4.08607 4.90328C3.97629 4.81042 3.83441 4.79914 3.69582 4.78811H3.69582H3.69581H3.69581H3.6958H3.6958H3.69579H3.69579C3.65281 4.78469 3.61014 4.7813 3.56885 4.7755C3.55661 4.74719 3.53059 4.69057 3.51759 4.66226ZM27.6864 4.77911C27.3077 4.52586 26.7966 4.68883 26.489 4.98111C26.0429 5.40422 25.8081 5.99336 25.6183 6.56567C25.3872 6.56414 25.1562 6.56414 24.9259 6.57409C24.9305 6.64831 24.9373 6.72329 24.9481 6.79751C25.0945 6.80907 25.241 6.80637 25.3878 6.80366H25.3878H25.3878C25.445 6.8026 25.5021 6.80155 25.5594 6.80133C25.4763 7.11699 25.3935 7.4327 25.3106 7.74841L25.3106 7.74851L25.3106 7.74861L25.3105 7.74871L25.3105 7.74881L25.3105 7.74891L25.3104 7.74901C24.9652 9.06462 24.6199 10.3802 24.2602 11.6912C24.2229 11.8851 24.0943 12.0246 23.966 12.1638C23.9181 12.2158 23.8702 12.2677 23.8271 12.3225C24.3482 12.3424 24.87 12.337 25.3911 12.324C25.8716 10.5053 26.2289 8.65752 26.5449 6.80439C26.7843 6.80057 27.0238 6.80286 27.2633 6.80745C27.268 6.76998 27.2725 6.73251 27.277 6.69513L27.277 6.69497L27.2771 6.69482C27.2821 6.65291 27.2871 6.6111 27.2924 6.5695C27.1231 6.56731 26.9542 6.56708 26.7854 6.56685H26.7853H26.7853H26.7852H26.7852H26.7852H26.7851L26.5824 6.56644C26.6035 6.46382 26.6233 6.36055 26.643 6.25712C26.7206 5.85156 26.7986 5.4437 26.9626 5.0645C27.0391 4.87475 27.2381 4.82579 27.4255 4.8342C27.2342 5.08134 27.03 5.39121 27.1554 5.71715C27.209 5.99183 27.564 6.19153 27.8004 5.99719C28.1585 5.68502 28.0927 5.02472 27.6864 4.77911ZM28.5043 4.72423L28.7307 4.72351H28.7307C29.0478 4.7223 29.3648 4.72108 29.6818 4.73035C29.5844 5.17073 29.4753 5.60797 29.3662 6.04516L29.3662 6.04519L29.3662 6.04522L29.3662 6.04524L29.3662 6.04527L29.3662 6.0453C29.3227 6.21954 29.2792 6.39376 29.2365 6.56818L29.2375 6.56818C29.4277 6.56895 29.6194 6.56972 29.8103 6.5743C29.8027 6.65081 29.795 6.72809 29.7881 6.8046C29.5861 6.8046 29.3849 6.8046 29.1837 6.80384C29.0664 7.30086 28.9448 7.79675 28.8232 8.29261L28.8232 8.29269L28.8232 8.29276L28.8232 8.29284L28.8232 8.29291L28.8232 8.29299C28.7211 8.70919 28.6191 9.12538 28.5196 9.54221C28.516 9.56835 28.5112 9.59595 28.5062 9.62439C28.4786 9.78331 28.4464 9.96861 28.593 10.0724C28.9067 9.91676 29.0227 9.60203 29.1393 9.28576C29.217 9.0751 29.2949 8.86376 29.4316 8.69828C29.4342 8.96521 29.3293 9.21019 29.226 9.45134L29.2259 9.45144L29.2259 9.45154C29.2072 9.49511 29.1886 9.53856 29.1707 9.582C29.0169 9.92783 28.7843 10.2813 28.4102 10.4099C28.1171 10.4933 27.7476 10.4649 27.5532 10.201C27.3145 9.87733 27.3612 9.44504 27.4446 9.07548C27.5997 8.39895 27.7682 7.72485 27.9366 7.05156L27.997 6.80996C27.9459 6.80885 27.8948 6.80858 27.8437 6.8083C27.7179 6.80762 27.5921 6.80695 27.4675 6.79389C27.4124 6.72579 27.4178 6.6554 27.4821 6.58348C27.6196 6.56149 27.7593 6.56277 27.8988 6.56405C27.9487 6.5645 27.9985 6.56496 28.0483 6.56435C28.1236 6.27908 28.1918 5.99214 28.2599 5.70524L28.2599 5.70512C28.3378 5.37725 28.4157 5.04943 28.5043 4.72423ZM8.32406 6.55208C8.01648 6.34779 7.62474 6.48704 7.33323 6.65307C6.52373 7.16035 6.12204 8.15195 6.14499 9.0831C6.14423 9.52764 6.25441 10.0273 6.62626 10.3104C6.83284 10.484 7.14348 10.4817 7.37378 10.357C7.58798 10.2546 7.73223 10.0706 7.87591 9.88728C7.94368 9.80083 8.01132 9.71454 8.08611 9.63705C8.06733 9.72222 8.04892 9.8079 8.03045 9.89386C7.88035 10.5925 7.72633 11.3093 7.33935 11.9164C7.16261 12.2216 6.73414 12.1987 6.51837 11.9508C6.97668 11.9225 7.20851 11.3831 6.99887 11.0013C6.88946 10.7052 6.47553 10.634 6.25288 10.8452C6.00651 11.0938 6.01492 11.4978 6.15264 11.7985C6.33627 12.1719 6.77469 12.3372 7.17179 12.3219C7.85122 12.354 8.51687 11.9408 8.8015 11.3241C8.98871 10.9074 9.101 10.4615 9.21253 10.0185C9.23 9.94913 9.24745 9.87983 9.26516 9.81073C9.37123 9.33559 9.49146 8.86377 9.61166 8.39207C9.76805 7.77834 9.92439 7.16481 10.0494 6.54443C9.87084 6.55093 9.69212 6.54901 9.51338 6.5471H9.51337H9.51335H9.51334H9.51333C9.29232 6.54473 9.07127 6.54237 8.85047 6.5559C8.8073 6.67495 8.77628 6.7975 8.74522 6.9202C8.72398 7.00411 8.70272 7.08809 8.67755 7.17106C8.65977 7.12646 8.64359 7.07986 8.62724 7.0328L8.62723 7.03279C8.56337 6.84894 8.49707 6.65807 8.32406 6.55208ZM7.66271 8.3755L7.66271 8.37547L7.66273 8.3754C7.75835 7.98339 7.85399 7.59132 7.9591 7.20167C8.00271 7.01115 8.12436 6.85583 8.25597 6.71581C8.55083 6.96845 8.51714 7.39039 8.489 7.74267V7.74268L8.48627 7.77704C8.39369 8.51003 8.14349 9.23689 7.71809 9.84517C7.63545 9.95993 7.43346 10.1803 7.31946 9.98671C7.30255 9.82017 7.34303 9.65721 7.38303 9.49617L7.38304 9.49615C7.39192 9.4604 7.40077 9.42474 7.40898 9.38915C7.49759 9.05241 7.58013 8.71402 7.66269 8.37558L7.66271 8.3755ZM11.0821 6.50613C11.3912 6.33703 11.8028 6.54438 11.9023 6.86956C11.9988 7.12112 11.978 7.38778 11.9574 7.65173C11.9506 7.7394 11.9438 7.82677 11.9413 7.91319C12.0341 7.75305 12.1004 7.57848 12.1666 7.40397L12.1666 7.40396L12.1666 7.40396L12.1666 7.40395C12.2674 7.13824 12.3682 6.87267 12.5626 6.65839C12.7225 6.50536 12.9796 6.37682 13.1923 6.50536C13.5412 6.68134 13.5626 7.13735 13.5221 7.47783C13.4915 7.75098 13.3071 8.09605 12.988 8.06698C12.7921 8.08305 12.6514 7.9086 12.5794 7.74716C12.5171 7.57747 12.5204 7.39723 12.5237 7.21808C12.5251 7.14197 12.5265 7.06605 12.5228 6.99122C12.0372 7.87538 11.7924 8.86063 11.55 9.83621C11.5071 10.0088 11.4643 10.181 11.4203 10.3524C11.014 10.3669 10.6054 10.3784 10.2007 10.3394C10.3109 9.90442 10.415 9.46819 10.5191 9.03198L10.5191 9.0318C10.6448 8.50511 10.7705 7.97847 10.9069 7.45411C10.9146 7.4169 10.9241 7.37899 10.9337 7.3407C10.9758 7.17355 11.0196 6.99918 10.9206 6.84355C10.64 7.0617 10.5218 7.39503 10.4044 7.72629C10.3464 7.88996 10.2885 8.05312 10.2114 8.20164C10.1306 7.99321 10.2153 7.79106 10.2969 7.59633C10.318 7.54587 10.339 7.49591 10.3568 7.44646C10.5128 7.08303 10.6919 6.6691 11.0821 6.50613ZM16.8736 7.17186C16.5752 6.67529 15.9762 6.40214 15.4054 6.46335C14.9272 6.51232 14.4696 6.74339 14.1567 7.10988C13.6104 7.70974 13.4505 8.60952 13.6961 9.37541C13.856 9.85132 14.2431 10.2622 14.7367 10.3877C15.4107 10.5843 16.1636 10.2928 16.5959 9.75568C17.2072 9.0663 17.3878 7.96452 16.8736 7.17186ZM15.3078 7.27945C15.3622 7.06401 15.419 6.83958 15.5905 6.68906C15.8537 6.5391 16.1139 6.82449 16.0305 7.08616C15.9434 7.54771 15.831 8.00378 15.7187 8.45982L15.7187 8.45984L15.7187 8.45986L15.7186 8.45992C15.6297 8.82107 15.5407 9.18221 15.4643 9.54603C15.4514 9.59042 15.4399 9.63692 15.4282 9.68417C15.3756 9.89587 15.3194 10.1224 15.1261 10.24L15.1002 10.2425H15.1002C14.9965 10.2529 14.8671 10.2659 14.8002 10.1742C14.6638 10.0413 14.7033 9.84572 14.7375 9.67672C14.7409 9.6599 14.7442 9.64334 14.7474 9.62714C14.8213 9.30606 14.8993 8.98599 14.9774 8.66592L14.9774 8.66586C15.0795 8.24688 15.1817 7.82792 15.2745 7.40675C15.2861 7.36512 15.2969 7.32248 15.3078 7.27949L15.3078 7.27948L15.3078 7.27945ZM18.0023 7.05005C18.5234 6.36374 19.6427 6.27345 20.3076 6.7945C20.6489 7.05311 20.7973 7.70729 20.3604 7.94295C19.9495 8.11663 19.5188 7.64149 19.6657 7.23598C19.6872 7.01753 19.9073 6.95245 20.0885 6.89888L20.0885 6.89887C20.1072 6.89334 20.1255 6.88793 20.1431 6.88249C19.8983 6.68279 19.5693 6.61699 19.2609 6.65984C19.0222 6.69962 18.8371 6.9261 18.847 7.16864C18.8195 7.46704 19.0566 7.69658 19.2831 7.84807C19.3519 7.8941 19.4234 7.93848 19.4953 7.98312C19.7808 8.16041 20.073 8.34187 20.2319 8.64686C20.528 9.21611 20.2372 9.96593 19.6802 10.2529C19.1377 10.5275 18.4285 10.5321 17.9135 10.1932C17.5478 9.96058 17.3083 9.44335 17.534 9.04014C17.6611 8.78305 18.0054 8.7953 18.2295 8.89935C18.5387 9.0891 18.5708 9.57266 18.3191 9.82209C18.2391 9.89089 18.1355 9.91018 18.0328 9.92929C17.9802 9.93909 17.9279 9.94883 17.8791 9.96517C18.189 10.2353 18.6274 10.3118 19.0214 10.2268C19.4055 10.1159 19.4583 9.55506 19.1913 9.30257C19.0274 9.13661 18.8255 9.01805 18.6239 8.89961C18.3737 8.75268 18.1239 8.60594 17.9472 8.36912C17.6526 7.9858 17.7207 7.42113 18.0023 7.05005ZM23.8997 6.88629C23.521 6.51214 22.941 6.39125 22.4315 6.51291C21.6526 6.69424 21.0581 7.39892 20.9119 8.17169C20.7979 8.7991 20.8882 9.51449 21.3412 9.99498C21.7207 10.415 22.3396 10.5336 22.8745 10.3997C23.6817 10.187 24.2609 9.42191 24.4009 8.61929C24.5141 8.00796 24.3565 7.32547 23.8997 6.88629ZM22.6045 7.1907C22.6535 7.00885 22.7068 6.81078 22.8691 6.69807C22.9451 6.65855 23.0296 6.67067 23.1136 6.68271C23.1548 6.68861 23.1958 6.69449 23.2356 6.69424C23.2381 6.70432 23.2406 6.71443 23.2431 6.72455C23.284 6.88972 23.3265 7.06113 23.2739 7.22983C23.258 7.29622 23.2422 7.36261 23.2264 7.429C23.0623 8.11693 22.8982 8.80455 22.7482 9.49536C22.7389 9.53136 22.73 9.56794 22.7211 9.60475C22.6731 9.8034 22.6235 10.0086 22.4873 10.1648C22.3702 10.3056 22.117 10.2919 22.029 10.1266C21.9555 9.97808 21.9893 9.80879 22.0204 9.653C22.022 9.64505 22.0236 9.63713 22.0252 9.62925C22.1199 9.21866 22.2182 8.80886 22.3165 8.39905C22.4097 8.01084 22.5028 7.62261 22.5929 7.23365C22.5968 7.21947 22.6006 7.20514 22.6045 7.1907Z" fill="white"/>
</svg>
