<svg width="83" height="16" viewBox="0 0 83 16" fill="none" xmlns="http://www.w3.org/2000/svg">
<path fill-rule="evenodd" clip-rule="evenodd" d="M24.9959 0.282693L21.6232 15.757H17.5438L20.9168 0.282693H24.9959ZM42.1579 10.2749L44.3054 4.46351L45.5407 10.2749H42.1579ZM46.7118 15.757H50.4835L47.188 0.282693H43.7087C42.9242 0.282693 42.2635 0.728983 41.9709 1.41706L35.8497 15.757H40.134L40.9844 13.4462H46.2172L46.7118 15.757ZM36.0621 10.7053C36.0799 6.62158 30.3095 6.39513 30.3479 4.57027C30.3604 4.01571 30.8991 3.42537 32.0777 3.2744C32.6618 3.20042 34.2737 3.14057 36.101 3.96669L36.8156 0.683871C35.8338 0.33562 34.5709 0 32.9998 0C28.967 0 26.13 2.10214 26.1073 5.1149C26.0816 7.34274 28.1341 8.58508 29.677 9.32699C31.2678 10.0851 31.801 10.5717 31.7933 11.2493C31.7823 12.2874 30.5244 12.7473 29.3537 12.7644C27.3015 12.796 26.1122 12.2204 25.1641 11.7864L24.4237 15.179C25.3783 15.6075 27.1376 15.9811 28.9587 16C33.2459 16 36.0495 13.9225 36.0621 10.7053ZM19.1671 0.282693L12.5574 15.757H8.24577L4.99288 3.40733C4.79583 2.64827 4.62392 2.36889 4.02421 2.04831C3.04329 1.52503 1.42373 1.03603 0 0.731991L0.0962231 0.282693H7.03777C7.92216 0.282693 8.71738 0.860104 8.91964 1.85975L10.6379 10.8147L14.8815 0.282693H19.1671Z" fill="white"/>
<path d="M72.77 14.309H65.6396V1.69116H72.77V14.309Z" fill="white"/>
<path d="M66.0871 8C66.0871 10.5517 67.306 12.8247 69.2041 14.2895C67.816 15.3607 66.0643 16 64.1605 16C59.6535 16 56 12.4183 56 8C56 3.58166 59.6535 0 64.1605 0C66.0643 0 67.816 0.639329 69.2041 1.71047C67.306 3.17528 66.0871 5.44828 66.0871 8Z" fill="white"/>
<path d="M82.4087 8C82.4087 3.58166 78.7552 0 74.2482 0C72.3444 0 70.5926 0.639329 69.2041 1.71047C71.1027 3.17528 72.3216 5.44828 72.3216 8C72.3216 10.5517 71.1027 12.8247 69.2041 14.2895C70.5926 15.3607 72.3444 16 74.2482 16C78.7552 16 82.4087 12.4183 82.4087 8Z" fill="white"/>
</svg>
