<svg width="86" height="16" viewBox="0 0 86 16" fill="none" xmlns="http://www.w3.org/2000/svg">
<path d="M85.4193 6.04376H81.8921V15.9697H78.9369V6.05449H75.4639V3.58643H85.4193V6.04376Z" fill="white"/>
<path d="M30.86 13.3208C31.4717 10.0658 32.0812 6.82334 32.6886 3.5934H35.7109C35.5435 4.24797 35.3804 4.89074 35.2146 5.53297C34.3422 8.91064 33.4714 12.289 32.6022 15.6681C32.5383 15.9176 32.4466 16.0051 32.1794 15.9997C31.2415 15.9809 30.3015 15.9922 29.3647 15.9922H29.0235C28.4719 12.9972 27.923 10.0157 27.4203 7.29817L25.5891 15.9772H22.0619C21.0812 11.8491 20.1025 7.73116 19.1201 3.59608H22.2798C22.8657 6.86573 23.4532 10.1418 24.0294 13.3557C24.6743 10.1418 25.3305 6.86894 25.9894 3.58374H28.5352C29.1286 3.58374 29.1356 3.58374 29.2397 4.15354C29.7322 6.85017 30.2219 9.54733 30.7087 12.245C30.772 12.5981 30.8096 12.9565 30.86 13.3208Z" fill="white"/>
<path d="M38.7734 3.58379C40.023 3.58379 41.2554 3.58754 42.4873 3.58057C42.6767 3.58057 42.6729 3.71148 42.7073 3.82254C43.3972 6.04022 44.0858 8.2579 44.7729 10.4756C45.3159 12.2254 45.858 13.9758 46.3992 15.7266C46.4222 15.8018 46.4426 15.8785 46.4753 15.9917H45.9597C45.1549 15.9917 44.3501 15.9869 43.5453 15.9955C43.3742 15.9955 43.3001 15.9493 43.2508 15.7776C43.0308 15.0082 42.7958 14.2431 42.5533 13.4791C42.5275 13.397 42.4352 13.2747 42.373 13.2741C41.1771 13.2618 39.9806 13.265 38.775 13.265C38.5191 14.1771 38.2669 15.0753 38.0131 15.981H34.9844C36.2499 11.8378 37.5129 7.70545 38.7734 3.58379ZM42.0462 11.0572C41.5559 9.3045 41.0698 7.56684 40.5879 5.84421L39.2294 11.0572H42.0462Z" fill="white"/>
<path d="M73.8655 8.7167V10.7679H68.9058V13.2499C68.9058 13.8937 69.0168 14.0048 69.6757 14.0048C71.178 14.0048 72.6792 14.0048 74.1794 14.0048H74.5061V15.99H74.1901C72.0633 15.99 69.9364 15.9868 67.8096 15.9927C67.2511 15.9927 66.8578 15.7389 66.5869 15.2732C66.3159 14.8075 66.2429 14.2972 66.2408 13.7794C66.2311 11.1683 66.2324 8.55718 66.2445 5.94604C66.2445 5.57046 66.3288 5.18416 66.4318 4.81931C66.6298 4.12182 67.1357 3.74946 67.8429 3.64323C68.0547 3.61063 68.2687 3.59377 68.483 3.59279C70.4145 3.58886 72.3448 3.58886 74.2738 3.59279C74.3435 3.59279 74.4133 3.60084 74.5013 3.60621V5.71962H74.2073C72.6792 5.71962 71.1512 5.71962 69.6231 5.71962C69.049 5.71962 68.9079 5.86073 68.9074 6.42731C68.9074 7.18221 68.9074 7.93712 68.9074 8.71939L73.8655 8.7167Z" fill="white"/>
<path d="M47.7578 3.62769H50.4507V3.95873C50.4507 7.07063 50.4507 10.1807 50.4507 13.2891C50.4507 13.4136 50.4507 13.5386 50.4571 13.6646C50.4668 13.9147 50.5993 14.0611 50.8461 14.0971C50.9529 14.1103 51.0605 14.1157 51.168 14.1132C52.5988 14.1132 54.0285 14.1132 55.4571 14.1132H55.7559V15.9911H55.4769C53.2519 15.9911 51.0275 15.9884 48.8024 15.9959C48.7098 15.9992 48.6175 15.983 48.5314 15.9485C48.4454 15.9139 48.3676 15.8617 48.3029 15.7952C47.981 15.4819 47.8292 15.0891 47.7836 14.6529C47.7655 14.4577 47.7576 14.2616 47.76 14.0654C47.76 10.6878 47.76 7.31046 47.76 3.93351L47.7578 3.62769Z" fill="white"/>
<path d="M65.0306 14.1122V15.99H64.7521C62.5276 15.99 60.3026 15.9874 58.0776 15.9949C57.985 15.9981 57.8927 15.982 57.8067 15.9476C57.7207 15.9131 57.6428 15.861 57.5781 15.7947C57.2562 15.4809 57.1038 15.0887 57.0582 14.6525C57.0401 14.4572 57.0322 14.2611 57.0346 14.0649C57.0346 10.6873 57.0346 7.30997 57.0346 3.93302V3.6272H59.728V13.2886C59.728 13.4131 59.728 13.5381 59.7344 13.6642C59.7441 13.9142 59.8761 14.0612 60.1229 14.0971C60.2296 14.1104 60.3372 14.1158 60.4448 14.1132C61.8756 14.1132 63.3052 14.1132 64.7339 14.1132L65.0306 14.1122Z" fill="white"/>
<path fill-rule="evenodd" clip-rule="evenodd" d="M12.5493 0.186993C12.2178 1.27723 11.3598 1.93824 10.2272 1.97151C9.55113 1.9917 8.87469 1.99838 8.19824 2.00505H8.19823C7.45475 2.01239 6.71125 2.01973 5.96819 2.04501C5.10384 2.07079 4.24148 2.14261 3.38478 2.26016C2.72376 2.35406 2.41901 2.68403 2.39862 3.33323C2.37287 4.21959 1.9694 4.9203 1.45754 5.58078C1.15262 5.97567 0.826564 6.35367 0.490313 6.74348C0.347322 6.90925 0.202487 7.07715 0.0566487 7.2494C0.0387835 7.19546 0.0260294 7.13995 0.0185547 7.08361C0.0217247 6.75876 0.0239033 6.43387 0.0260819 6.10899C0.0323845 5.16913 0.038687 4.22927 0.068989 3.29031C0.0901244 2.84574 0.162132 2.40505 0.283603 1.97687C0.525044 1.08676 1.07016 0.316298 2.4217 0.215966C5.4148 -0.00771449 8.41835 -0.0576961 11.4172 0.066273C11.6692 0.0765136 11.9205 0.108693 12.1798 0.141909L12.1798 0.141911C12.3009 0.157422 12.4238 0.173159 12.5493 0.186993ZM17.6596 15.8827C17.4509 15.8827 17.2461 15.8841 17.044 15.8856C16.5745 15.8889 16.1195 15.8922 15.6653 15.8768C15.302 15.8644 14.9892 15.675 14.7644 15.4003C14.2633 14.7871 13.7638 14.1695 13.305 13.5225C12.6071 12.5411 11.9225 11.5509 11.2379 10.5608L11.2377 10.5605C10.9492 10.1433 10.6607 9.72613 10.3713 9.30959C10.3445 9.27114 10.316 9.23387 10.2769 9.18263C10.2515 9.14952 10.2217 9.11058 10.1851 9.06171V15.8827H8.15913C8.15731 15.857 8.15508 15.8319 8.15289 15.8071V15.8071C8.14796 15.7515 8.1432 15.6979 8.14357 15.6445C8.14443 15.1215 8.14623 14.5985 8.14803 14.0755C8.15184 12.9679 8.15565 11.8604 8.15055 10.7529C8.14787 9.71253 8.44886 8.80042 9.07124 7.94197C10.0461 6.59728 10.9993 5.23709 11.9527 3.87672C12.4932 3.10553 13.0336 2.33429 13.5781 1.56578C13.8314 1.20523 14.1147 0.859703 14.4055 0.522758C14.6517 0.236785 14.971 0.0398769 15.3562 0.0323654C15.8076 0.0203873 16.2596 0.0230333 16.7199 0.0257282C16.9194 0.0268961 17.1204 0.0280732 17.3237 0.0280732C17.3083 0.0522756 17.2942 0.0754466 17.2806 0.0977583C17.2562 0.137769 17.2335 0.175017 17.2083 0.210495C15.7465 2.29869 14.2839 4.38635 12.8206 6.47347C12.7988 6.50442 12.7774 6.5358 12.756 6.56722C12.6763 6.68395 12.5963 6.80117 12.4986 6.8984C12.2245 7.16667 12.211 7.4725 12.3768 7.77779C12.4307 7.87717 12.4843 7.97681 12.538 8.0765L12.538 8.07652C12.8386 8.63507 13.1402 9.19536 13.4912 9.72165C14.4289 11.1284 15.382 12.5249 16.3351 13.9215L16.336 13.9228C16.7138 14.4764 17.0917 15.0301 17.4686 15.5844C17.505 15.6401 17.541 15.6967 17.5828 15.7624L17.6596 15.8827ZM2.36827 15.8827V8.80042C2.67161 8.80042 2.96894 8.80176 3.26279 8.80308C3.71319 8.80511 4.15543 8.8071 4.59864 8.80418C4.96295 8.79881 5.32833 8.76984 5.69103 8.7296C5.92174 8.70438 6.05802 8.5504 6.07411 8.31593C6.09182 8.05893 6.10577 7.80086 6.10201 7.54332C6.09397 6.98801 5.94588 6.81846 5.3852 6.80612C4.57342 6.7852 3.76057 6.78949 2.9488 6.80612C2.71534 6.80538 2.48483 6.8582 2.27498 6.96052C2.06514 7.06284 1.88157 7.21192 1.73837 7.39631C1.63268 7.52947 1.53103 7.66587 1.42938 7.80226C1.29677 7.98019 1.16417 8.15811 1.02264 8.32881C0.274169 9.22965 -0.00751149 10.2759 0.00321921 11.4294C0.0132915 12.456 0.00881873 13.4843 0.00434214 14.5135C0.00261877 14.9097 0.00089483 15.306 0 15.7024C0.00315314 15.7628 0.00942105 15.823 0.0187787 15.8827H2.36827Z" fill="white"/>
</svg>
