<svg width="99" height="16" viewBox="0 0 99 16" fill="none" xmlns="http://www.w3.org/2000/svg">
<path d="M80.6743 3.61668C81.4199 2.98821 82.4335 2.78098 83.3886 2.83616C84.5679 2.88122 85.7257 3.31033 86.647 4.05143C86.2798 4.58529 85.916 5.12141 85.5455 5.65189C84.7131 5.08875 83.7276 4.58417 82.6915 4.73284C82.2409 4.78014 81.7555 5.13267 81.8242 5.63387C81.8163 6.09565 82.2736 6.33667 82.6509 6.46732C83.8437 6.89081 85.2042 7.01357 86.1908 7.88194C86.9826 8.57912 87.0716 9.77073 86.7855 10.7281C86.4938 11.7046 85.586 12.3815 84.6163 12.5966C82.7669 13.019 80.7418 12.4558 79.334 11.1955C79.7507 10.6932 80.1663 10.1908 80.5853 9.69077C81.3174 10.2956 82.1925 10.7866 83.1589 10.8475C83.6387 10.8756 84.1804 10.8599 84.5679 10.5355C84.9801 10.1931 84.8979 9.44636 84.3955 9.22899C83.2017 8.61628 81.7533 8.61854 80.6461 7.81211C80.0176 7.37849 79.7147 6.6036 79.7226 5.858C79.6775 5.01779 80.0176 4.15505 80.6743 3.61668Z" fill="white"/>
<path d="M31.8741 3.3397C32.997 2.80922 34.2922 2.7653 35.4963 2.99731C36.3725 3.16288 37.1722 3.60889 37.8446 4.18555C37.4019 4.72391 36.957 5.26116 36.5122 5.79952C35.9119 5.28706 35.1865 4.8816 34.3823 4.8388C33.5354 4.72842 32.6524 5.04941 32.0791 5.68239C31.0654 6.75799 30.9866 8.5488 31.8336 9.74379C32.7796 11.1077 34.8385 11.2147 36.1394 10.3216C36.1382 9.98369 36.1394 9.6458 36.1382 9.30904C35.806 9.30904 35.4737 9.30679 35.1415 9.30792C35.1403 8.75265 35.1403 8.19739 35.1426 7.64326C36.1563 7.64101 37.1688 7.64213 38.1836 7.64213C38.1892 8.85852 38.1779 10.0749 38.1892 11.2913C37.055 12.2813 35.5582 12.8501 34.0501 12.8253C32.6659 12.8332 31.2524 12.3129 30.3097 11.2778C29.1417 10.0265 28.7892 8.15234 29.2149 6.52035C29.5731 5.13614 30.5732 3.93664 31.8741 3.3397Z" fill="white"/>
<path d="M42.3702 3.35543C43.5303 2.79679 44.8784 2.75963 46.1207 3.01755C46.9609 3.19437 47.7246 3.63025 48.3733 4.18326C47.9318 4.725 47.4858 5.26224 47.0398 5.79948C46.4293 5.27125 45.6792 4.86917 44.8593 4.83425C43.9526 4.72726 43.0223 5.13159 42.4648 5.84904C41.4252 7.12963 41.5773 9.25607 42.8883 10.2945C43.956 11.1347 45.5474 11.0514 46.658 10.3373C46.676 9.99491 46.6704 9.65252 46.6692 9.31013C46.337 9.309 46.0036 9.30675 45.6725 9.30901C45.6713 8.75262 45.6702 8.19736 45.6725 7.64209C46.6861 7.64209 47.6998 7.64097 48.7134 7.64322C48.7179 8.85849 48.7089 10.0749 48.7179 11.2902C47.5444 12.3218 45.9732 12.8884 44.4099 12.8219C42.993 12.7937 41.5615 12.1912 40.6627 11.0762C39.6795 9.88679 39.3754 8.22889 39.6907 6.73881C39.9993 5.27801 41.0153 3.98616 42.3702 3.35543Z" fill="white"/>
<path d="M19.7939 3.02879C20.6105 3.02203 21.4271 3.03892 22.2436 3.01978C23.0433 4.43214 23.7765 5.88055 24.5525 7.30531C25.324 5.88281 26.1034 4.46256 26.8693 3.03667C27.6735 3.0164 28.4788 3.03329 29.2841 3.02879C28.0609 5.21154 26.8051 7.37852 25.6033 9.57141C25.5752 10.6008 25.6022 11.6314 25.5898 12.6619C24.887 12.6597 24.1842 12.6608 23.4803 12.6608C23.478 11.7046 23.4792 10.7495 23.4803 9.79329C23.4904 9.65475 23.4566 9.52861 23.3801 9.41373C22.1817 7.28729 20.9889 5.15748 19.7939 3.02879Z" fill="white"/>
<path d="M50.3852 3.02864C51.5453 3.03089 52.7054 3.02188 53.8654 3.03315C55.3747 3.06018 56.9098 3.71005 57.8288 4.93545C59.284 6.81635 59.0452 9.79539 57.2466 11.3745C56.3027 12.2304 55.0188 12.655 53.7551 12.6596C52.631 12.6618 51.5081 12.6607 50.3841 12.6596C50.3841 9.44962 50.3829 6.23857 50.3852 3.02864ZM52.4947 4.94671C52.4936 6.8783 52.4936 8.80989 52.4947 10.7426C52.9881 10.7358 53.4814 10.7561 53.9747 10.7302C54.7563 10.6795 55.5301 10.3124 56.002 9.67601C56.5742 8.91463 56.6812 7.8807 56.4525 6.97516C56.2498 6.17212 55.6585 5.47494 54.8836 5.1731C54.1279 4.85323 53.2922 4.96473 52.4947 4.94671Z" fill="white"/>
<path d="M60.1274 3.02873C61.5319 3.02985 62.9375 3.02309 64.342 3.03211C65.3139 3.049 66.3423 3.32494 67.0304 4.04914C67.8267 4.89048 67.9641 6.17671 67.6724 7.25794C67.4224 8.19164 66.6497 8.89895 65.7622 9.22783C66.5427 10.371 67.321 11.5153 68.1004 12.6596C67.2737 12.6585 66.4459 12.6653 65.6192 12.6563C64.9344 11.628 64.2609 10.5918 63.5581 9.57698C63.3756 9.58035 63.1943 9.58261 63.0141 9.58261C63.0118 8.95752 63.0118 8.33243 63.0141 7.70734C63.718 7.67355 64.5041 7.83573 65.1281 7.41901C65.9447 6.8874 65.8275 5.41533 64.8769 5.09434C64.0289 4.81615 63.1154 4.99636 62.2392 4.9468C62.2369 7.51812 62.2392 10.0883 62.2381 12.6596C61.5341 12.6608 60.8302 12.6608 60.1263 12.6596C60.1263 9.44971 60.1251 6.23865 60.1274 3.02873Z" fill="white"/>
<path d="M68.7432 12.6979C70.1161 9.46322 71.48 6.22514 72.8586 2.99381C73.5096 2.99832 74.1606 2.98593 74.8116 3.00057C76.1722 6.2364 77.5496 9.46435 78.9158 12.6968C78.177 12.6945 77.437 12.7024 76.6982 12.6923C76.4053 11.9636 76.1114 11.236 75.8118 10.5095C74.7463 10.5129 73.6808 10.5129 72.6165 10.5095C72.8676 9.88783 73.1165 9.265 73.3677 8.64329C73.9309 8.64103 74.4929 8.64103 75.056 8.64329C74.6472 7.64314 74.2473 6.63961 73.8351 5.64059C73.8182 5.64285 73.7833 5.64623 73.7653 5.64848C72.8113 7.99454 71.8551 10.3406 70.9079 12.6912C70.1859 12.7047 69.464 12.6934 68.7432 12.6979Z" fill="white"/>
<path d="M88.5169 3.02868C89.222 3.02755 89.9259 3.02755 90.631 3.02868C90.6332 6.2386 90.6321 9.44966 90.6321 12.6596C89.927 12.6607 89.2209 12.6607 88.5169 12.6596C88.5158 9.44966 88.5147 6.2386 88.5169 3.02868Z" fill="white"/>
<path d="M92.39 3.02864C93.0928 3.02752 93.7956 3.02639 94.4984 3.02864C94.5006 5.59546 94.4984 8.16227 94.4995 10.7291C95.9885 10.7313 97.4786 10.7302 98.9686 10.7291C98.9698 11.3722 98.9686 12.0164 98.9686 12.6596C96.7735 12.6607 94.5795 12.6618 92.3843 12.6584C92.3866 9.4485 92.3742 6.23857 92.39 3.02864Z" fill="white"/>
<path d="M5.09806 0.47679C5.69405 0.247021 6.3167 0.0870454 6.95033 0.00156813C7.07815 1.20374 7.43574 2.3816 8.00507 3.44889C8.57361 2.38082 8.93199 1.20296 9.05903 0C9.69266 0.0839089 10.3161 0.244669 10.9121 0.476007C10.7835 1.45547 10.5278 2.41689 10.1545 3.33126C11.1756 2.97053 12.0994 2.34867 12.8232 1.5433C13.3305 1.92442 13.7901 2.3667 14.1955 2.85369C12.9604 4.21976 11.265 5.15765 9.45034 5.4729C9.99693 6.05321 10.6125 6.56842 11.2854 6.99659C12.406 5.89793 13.783 5.07061 15.273 4.5797C15.5506 5.15138 15.7372 5.76462 15.8682 6.3857C14.866 6.71193 13.9257 7.22793 13.1141 7.90077C14.041 8.24189 15.0236 8.42775 16.0101 8.46696C15.9694 9.10529 15.8525 9.73814 15.6667 10.3498C12.7659 10.1914 9.96321 8.84651 8.00428 6.70566C6.04693 8.84651 3.24422 10.1914 0.344261 10.349C0.159975 9.73736 0.0415624 9.10529 0 8.46696C0.987302 8.42932 1.96755 8.23954 2.89603 7.90234C2.08439 7.22636 1.14257 6.71193 0.138802 6.3857C0.265841 5.76462 0.465028 5.15922 0.727733 4.58205C2.22398 5.06198 3.60103 5.8995 4.72399 6.99659C5.39605 6.56842 6.01243 6.05399 6.55901 5.4729C4.74517 5.15765 3.04974 4.22054 1.81541 2.85526C2.21927 2.3667 2.67803 1.92363 3.1854 1.54251C3.90843 2.3471 4.833 2.96975 5.85402 3.33126C5.48231 2.41689 5.22588 1.45625 5.09806 0.47679Z" fill="white"/>
<path d="M4.33789 9.69597C4.92368 9.4364 5.4883 9.12978 6.02548 8.78003C6.68577 9.64108 7.34449 10.5029 8.00479 11.364C8.6643 10.5029 9.32302 9.64108 9.98331 8.78003C10.5213 9.129 11.0851 9.4364 11.6709 9.69675C10.7699 10.8879 9.83902 12.0603 8.9568 13.2641C8.94425 14.1565 8.95523 15.0505 8.95131 15.9437C8.32239 16.0166 7.68484 16.0213 7.0567 15.9437C7.05905 15.0458 7.05591 14.1478 7.05748 13.2499C6.15252 12.065 5.24442 10.8809 4.33789 9.69597Z" fill="white"/>
</svg>
